<?xml version="1.0" encoding="utf-8"?>
<!-- Generator: Adobe Illustrator 24.0.0, SVG Export Plug-In . SVG Version: 6.00 Build 0)  -->
<svg version="1.1" xmlns="http://www.w3.org/2000/svg" xmlns:xlink="http://www.w3.org/1999/xlink" x="0px" y="0px"
	 viewBox="0 0 841.89 1190.55" style="enable-background:new 0 0 841.89 1190.55;" xml:space="preserve">
<style type="text/css">
	.st0{display:none;}
	.st1{fill:#EAB483;}
	.st2{fill:#DDA97F;}
	.st3{fill:#D49E7A;}
	.st4{fill:#BE8D77;}
	.st5{fill:none;}
	.st6{stroke:#000000;stroke-miterlimit:10;}
	.st7{fill:#503830;}
	.st8{fill:#E5B5A3;}
	.st9{fill:#AF837C;}
	.st10{fill:#E64E25;}
	.st11{fill:#F6BCA3;}
	.st12{fill:#F7EC22;}
	.st13{fill:#FFFFFF;stroke:#ED2C24;stroke-miterlimit:10;}
</style>
<g id="Layer_3">
	<g>
		<path class="st1" d="M246,360.96c0,0-2.28-11.76-1.56-16.8s3.6-16.2,3.6-16.2l1.8-7.2V310.4L246,278.64l1.07-27.36l30-62.64
			l56.65-19.44l38.88-2.16l40.32,2.88l24.84,23.76l20.88,18.63l-7.2,33.21l16.8,50.4l-1.44,15.36l1.44,38.4l-20.76,50.62
			l-26.54,24.5l-15.58,16.56L351,461.16l-47.16-15.84l-26.77-14.76l-14.99-11.16l-6.69-20l-8.56-13.94l-0.4-22.99"/>
	</g>
	<g>
		<path class="st1" d="M305.8,477.08c0,0,9.56,16.12,11,26.2s5.76,25.92,5.76,25.92s3.12,0,28.08,0c24.96,0,35.28-8.6,35.28-8.6
			l35.02-17.46c0,0,7.46-29.38,9.62-29.38s12.24-17.28,12.24-17.28l16.56-18.72l3.6-6.48c0,0,5.28-2.16,5.28-7.92
			c0-5.76-8.81-6.05-11.04-2.64C454.97,424.13,305.8,477.08,305.8,477.08"/>
	</g>
	<g>
		<path class="st1" d="M551.52,356.1"/>
	</g>
	<g>
		<polyline class="st2" points="263.21,222.31 280.08,216 292.32,207.36 311.04,195.12 330.48,188.64 345.6,188.64 320.79,178.56 
			298.92,186.08 277.07,202.9 263.21,222.31 		"/>
	</g>
	<g>
		<path class="st3" d="M433.08,459.36c5.72-2.79,10.47-8.14,14.56-12.87c0.79-0.92,1.95-2.21,3.17-3.69l3.52-5.04l1.75-2.92
			c0.55-1.34,0.83-2.6,0.63-3.67c-0.7-3.75,2.43-6.22,5.33-6.26l0.93-1.54l-14.16,6l-103.2,57.36l-17.99,2.38
			c0.82,0.9,1.33,2.1,1.39,3.38c0.05,1.11-0.35,2.15-1.01,2.99c12.52,0.29,25.05,1.55,37.56,0.87c14.11-0.77,26.76-5.61,37.71-14.59
			c1.13-0.93,2.38-1.27,3.57-1.2c6.56-5.28,12.63-11.14,18.03-17.52c1.77-2.09,4.05-2.01,5.78-0.85
			C430.92,461.06,431.68,460.04,433.08,459.36z"/>
	</g>
	<g>
		<path class="st3" d="M267.12,248.02c3.35-7.64,10.14-13.59,25.2-15.46c9.66-8.19,22-8.39,35.29-5.76h21.59
			c5.16-7.24,10.96-13.73,21.6-14.49h24.49L414,222.31l15.84,19.61l12.24,16.85l-35.28-18.29l-19.78-4.94
			c-7.97,9.61-15.56,12.72-22.96,12.48c0,0,18.52,15.34-14.86,0c-30.97-14.24-35.44-2.3-36.72,1.1
			c-10.37-2.55-22.41-1.01-35.41,2.88l-16.91,9.81L267.12,248.02z"/>
	</g>
	<g>
		<path class="st1" d="M471.6,302.72l4.11-4.55c0,0,10.29-1.12,10.29,2.27s5.76,17.79,5.76,17.79s-1.44,23.28-3.84,23.04
			c-2.4-0.24-2.64,6.72-1.68,11.76c0.96,5.04,2.64,8.64,1.68,11.04c-0.96,2.4-6,6.48-7.92,6.48s-7.92,2.88-9.6,2.16
			s-5.28-1.2-5.28-1.2V310.4L471.6,302.72"/>
	</g>
	<g>
		<path class="st4" d="M472.32,314.88c0,0,1.44-4.4,2.16-4.48s0.72-3.68,3.12-3.68s4.32-5.04,5.52,0c1.2,5.04,3.36,9.84,3.36,12.48
			c0,2.64,2.4,12.24,0,12.72c-2.4,0.48-3.12,9.84-3.12,9.84s-4.69,13.8-3.43,14.34c1.27,0.54-1.85-5.46-1.85-5.46l1.85-7.44v-6.24
			c0,0,0.55-5.87-1.61-6.65s-2.4-7.75-2.4-7.75L472.32,314.88z"/>
	</g>
	<g>
		<path class="st5" d="M472.32,314.88"/>
	</g>
	<g>
		<polygon points="367.92,295.2 370.32,291.97 373.68,289.2 379.44,286.08 370.56,288 364.06,292.91 358.32,297.12 364.06,297.44 
			377.76,298.08 		"/>
		<path d="M381.92,298.78l-25.02-1.23l6.86-5.03l6.69-5l12.3-2.66l-8.84,4.79l-3.23,2.68l-1.94,2.6L381.92,298.78z M359.74,296.7
			l4.34,0.24l9.52,0.45l-6.51-1.91l2.91-3.89l3.36-2.77l2.78-1.51l-5.36,1.16l-6.41,4.84L359.74,296.7z"/>
	</g>
	<g>
		<path class="st6" d="M427.68,312.96"/>
	</g>
	<g>
		<path class="st3" d="M336.6,352.08c0,0-1.96-3.24,2.44-3.6c4.4-0.36,10.16,0,10.16,0s0.72,1,2.88,1.58
			c2.16,0.58,5.04,0.14,5.04,0.14l-10.48,1.88l-6.08,2.05L336.6,352.08z"/>
	</g>
	<g>
		<path class="st7" d="M308.16,337.17"/>
	</g>
	<g>
		<path class="st2" d="M309.24,334.44c-0.51-0.42-2.86,1.56-4.24,3.1c-1.36,1.51-2.25,2.5-2.6,4.1c-0.35,1.63-0.22,4.33-0.36,5.76
			c0,0.03-0.02,0.22-0.04,0.48c0,0-0.07,0.83-0.12,1.49c-0.07,0.94-0.17,2.42,0.16,3.43c0.65,1.98,3.36,3.51,4.32,2.88
			c0.83-0.55-0.13-2.43-0.36-7.56c-0.07-1.48-0.12-2.65,0-3.96C306.52,338.38,309.89,334.96,309.24,334.44z"/>
	</g>
	<g>
		<path class="st3" d="M309.24,356.4c-1.01-1.58,0.44-4.85,2.88-6.12c2.3-1.2,4.65-0.18,5.04,0c1.5,0.68,3.57,2.37,3.24,3.96
			c-0.31,1.48-2.54,2.06-4.32,2.52C314.49,357.17,310.41,358.23,309.24,356.4z"/>
	</g>
	<g>
		<path class="st2" d="M338.4,285.84c0,0,1.44-2.88,11.52-10.44c10.08-7.56,21.6-7.92,21.6-7.92l18-1.8l14.4,3.24l15.48,8.64
			c0,0,21.32,11.68,15.12,8.28c-6.2-3.4-10.59,5.04-13.58,10.08c-2.98,5.04-13.78,8.64-13.78,8.64l-10.44,8.28l-17.64,5.04
			l-15.12-3.24l-11.88-6.48l-5.44-5.76l-8.24-4.4V285.84z"/>
	</g>
	<g>
		<path class="st2" d="M258.48,294.12l6.84-8.28l15.12-8.64c0,0,14.76-0.36,16.92,0c2.16,0.36,15.48-0.16,15.48-0.16l10.44,9.62
			c0,0,3.6,17.18,0,17.18s-2.85,12.24-2.85,12.24l-16.95,4.68c0,0-22.68,6.48-23.04,3.96c-0.36-2.52-9.36-4.32-9.36-4.32
			s-10.44,3.24-12.24,0.72c-1.8-2.52-3.24-11.16-3.24-11.16"/>
	</g>
	<g>
		<path class="st2" d="M320.43,282.44c0,0,8.89,21.64,4.45,27.64c-4.45,6-14.56,23.28-14.56,23.28l0.09-14.51l7.81-10.95
			l-2.65-22.62l-2.73-8.24L320.43,282.44z"/>
	</g>
	<g>
		<path class="st3" d="M368.88,335.42c0,0,15.6,13.51,10.56,15.81c-5.04,2.3,22.26,3.74,21.57,10.94
			c-0.69,7.2,4.35,20.88,4.35,20.88s11.04,0.72,12-15.84c0.96-16.56-8.4-22.1-8.4-22.1l-13.68-7.93l-30.25-6.86L368.88,335.42z"/>
	</g>
	<g>
		<path class="st3" d="M298.08,357.44c0,0-8.19,2.56-10.21,7.6c-2.03,5.04-10.8,12.71-10.8,12.71l-5.14,21.65l-8.72-21.65
			c1.43-8.09,6.19-10.67,6.19-13.55c0-2.88,9.61-7.16,13.31-6.76H298.08z"/>
	</g>
	<g>
		<path class="st3" d="M270,302.64c1.39-1.86,3.96-4.71,7.92-6.54c0.57-0.26,2.52-1.13,5.22-1.62c1.98-0.36,3.51-0.36,5.22-0.36
			c1.66,0,3.87,0.11,6.48,0.52"/>
	</g>
	<g>
		<path class="st8" d="M294.84,393.36l4.44-4.56c0,0,4.62-3.45,6.28-4.32c1.96-1.02,6.36-3.37,6.28-2.4l3.42-3.11l12.99-2.32
			l6.07,1.1l4.08-2.87h8.24h9.04l9.36,3.52l9.84,4.64l8.76,4.34c0,0-10.44,5.02-12.6,5.98c-2.16,0.96-13.92,4.32-13.92,4.32
			s-15.12,3.08-16.56,2.62c-1.44-0.46-15.68,0-15.68,0l-13.12-0.9l-11.04-3.64L294.84,393.36z"/>
	</g>
	<g>
		<path class="st9" d="M375.6,387.61h-13.2l-5.28-1.74c0,0-1.92,2.45-5.04,1.74c-3.12-0.71-5.04-1.21-6.96-1.69
			c-1.92-0.48-6.72,2.64-6.72,2.64s-6.48,2.16-7.68,0.96c-1.2-1.2-8.4-1.91-8.4-1.91l-1.89,2.39c0,0-6.27,0-9.87,1.2
			c-3.6,1.2,0,0-5,1.92c-5,1.92-7.48,0-7.48,0l26.8,7.18h13.52l13.68-0.9l16.8-6.31L375.6,387.61z"/>
	</g>
</g>
<g id="Layer_4">
	<g>
		<path class="st10" d="M320.54,518.74c0.58-7.65,0,0,1.35,4.58c0.45,1.52,3.14,4.54,3.25,2.96c0.51-7.4,25.47,8.11,31.13,3.45
			c-5.15-5.21,33.4-24.44,38.68-17.13c0.14,0.2,0.45-0.16,0.67-0.26l23.74-11.84c1.02-0.51,1.79-1.4,2.14-2.48l8.9-27.2
			c0.11-0.33,0.25-0.64,0.44-0.93l16.54-26.41c0.17-0.28,0.38-0.53,0.61-0.76l14.37-14.26c0.4-0.4,0.72-0.87,0.93-1.39l2.36-5.72
			c1.2-2.9,5.01-3.54,7.1-1.2l6.16,6.92c0.67,0.75,1.05,1.71,1.07,2.72c0.14,6.25,0.09,29.56-7.66,40.65
			c-9,12.86-29.52,56.01-43.56,60.9c-13.23,4.61-48.71,15.42-52.78,16.65c-0.25,0.08-0.49,0.17-0.72,0.29
			c-3.1,1.62-26.74,13.72-39.1,11.7c-12.36-2.02-25.37-11.55-27.07-12.82c-0.13-0.1-0.26-0.18-0.4-0.27l-9.94-5.82
			c-4.24-2.48-7.92-5.83-10.79-9.82l-4.9-6.79c-1.35-1.87-0.96-4.47,0.87-5.86l10.9-8.29l10.08-8.12c0.43-0.34,0.78-0.76,1.05-1.24
			h0c1.99-3.58,5.9-2.04,7.93,1.53C324.79,521.63,319.87,527.61,320.54,518.74z"/>
	</g>
	<g>
		<path class="st11" d="M321.03,638.1c-2.52,2.7,1.65,12.78-0.71,18.9"/>
	</g>
	<g>
		<path class="st12" d="M283.94,518.58l-49.58,36.18c0,0-21.6,51.84-30.24,55.08c-8.64,3.24-18.36,59.4-18.36,59.4l-7.56,89.64v64.8
			l-9.72,43.2c0,0,29.16,16.2,50.76-38.88s12.96-133.92,21.6-55.08s-16.2,260.28,30.24,120.96s12.96-223.56,46.44-139.32
			S301.32,918.72,351,838.8s35.64-145.8,49.68-79.92c14.04,65.88,46.8,169.56,64.44,85.32c17.64-84.24-59.04-136.08,17.64-84.24
			c76.68,51.84,123.12,159.84,108,47.52s-33.48-127.44-15.12-112.32C594,710.28,594,710.28,594,710.28s-12.96,74.52,0,0
			s-58.32-112.32,12.96-74.52s110.16,160.92,96.12,59.4c-14.04-101.52,19.44-114.48,19.44-114.48s-41.45-41.04-17.28-42.12
			c24.17-1.08-1.08-29.16-1.08-29.16s8.64,6.55-18.36-19.95c-27-26.49-51.84-28.29-51.84-28.29h-27H567c0,0-44.28-8.55-48.6-1.21
			c-4.32,7.33-18.36-7.79-18.36-7.79l-12.49-14.4l-7.56-7.98l-3.09,30.17l-8.66,16.92L445.5,514.5l-16.74,16.82l-20.28,6.6
			l-39.6,13.47l-19.68,7.31c0,0-28.12,2.35-30.98-5.66c-2.86-8-19.47-11.99-19.47-11.99l-10.79-9.82L283.94,518.58z"/>
	</g>
	<g>
		<path class="st11" d="M324,304.56c-2.52,2.7,1.65,12.78-0.71,18.9"/>
	</g>
	<g>
	</g>
	<g>
		<path class="st13" d="M289.24,624.66c1.23-3.91,4.42-7.25,9.56-10c2.25-1.14,4.62-2.06,7.11-2.76c2.49-0.7,5.14-1.15,7.95-1.35
			c0.89-2.36,2.08-3.75,3.58-4.17c0.39-0.11,0.68-0.06,0.89,0.13c0.2,0.2,0.26,0.46,0.17,0.77c-0.09,0.32-0.39,0.68-0.91,1.07
			c-0.51,0.4-1.05,1.11-1.6,2.14c2.07,0.15,3.53,0.34,4.37,0.58c0.84,0.24,1.54,0.64,2.09,1.22c0.55,0.58,0.86,1,0.94,1.27
			c0.17,0.61-0.59,0.82-2.28,0.64c-1.69-0.18-3.61-0.15-5.75,0.08c-0.18,3.18-0.12,7.46,0.19,12.84c0.31,5.38,0.5,8.6,0.56,9.67
			c2.75-1.71,4.63-2.72,5.65-3c1.02-0.29,1.67-0.38,1.94-0.27c0.27,0.11,0.45,0.29,0.56,0.55c0.1,0.26,0.12,0.5,0.06,0.69
			c-0.06,0.2-0.24,0.27-0.53,0.2c-0.29-0.06-0.76-0.01-1.43,0.18c-0.66,0.19-1.83,0.82-3.5,1.91c-1.67,1.09-2.51,2.25-2.52,3.49
			c-0.31,18.51-3.46,32.21-9.45,41.1c-2.64,4.02-5.4,6.43-8.28,7.23c-1.05,0.29-2.11,0.37-3.16,0.23c-3.15-0.36-5.27-2.51-6.38-6.46
			c-1.11-3.95-0.63-8.76,1.42-14.44c4.15-11.43,11.38-20.99,21.71-28.69c0-0.65-0.04-2.79-0.1-6.42
			c-0.22-8.24,0.01-14.35,0.69-18.33c-0.66,0.19-1.66,0.47-2.99,0.84c-1.33,0.37-3.17,1.07-5.51,2.09
			c-6.01,2.63-9.93,5.8-11.76,9.52c-0.93,2.01-1.1,4.06-0.52,6.15c0.28,1.01,0.77,1.86,1.47,2.54c0.7,0.68,1.31,1.13,1.85,1.34
			c0.89,0.41,2.05,0.81,3.47,1.21c0.84,0.42,1.08,0.76,0.73,1c-0.17,0.05-0.37,0.07-0.61,0.06c-1.42,0.03-3.11-0.55-5.06-1.75
			c-1.95-1.2-3.24-2.84-3.89-4.92c-0.37-0.7-0.63-1.28-0.76-1.75C288.63,628.88,288.62,626.73,289.24,624.66z M293.19,680.69
			c0.21,0.74,0.47,1.47,0.79,2.18c1.27,2.41,3.02,3.31,5.23,2.69c3.27-0.91,5.95-4.54,8.06-10.89c3.1-9.39,4.77-20.41,4.98-33.08
			c-8.61,6.56-14.53,14.96-17.76,25.18C292.62,672.48,292.19,677.11,293.19,680.69z"/>
		<path class="st13" d="M340.69,665.43c-0.89,0.25-1.93,0.19-3.13-0.16c-1.2-0.35-2.33-1.02-3.38-2c-1.05-0.98-1.76-2.14-2.14-3.5
			c-0.38-1.35-0.49-2.7-0.33-4.06c0.31-3.15,1.33-6.4,3.05-9.76c1.72-3.36,3.64-6.35,5.77-8.99c2.13-2.63,3.9-4.41,5.32-5.31
			c1.42-0.91,2.86-1.57,4.33-1.98c1.47-0.41,2.85-0.31,4.16,0.31c1.31,0.62,2.1,1.43,2.39,2.45c0.1,0.34,0.12,0.55,0.09,0.63
			c-0.04,0.08-0.18,0.09-0.44,0.02c-1.02-1.1-2.57-1.36-4.65-0.77c-2.08,0.58-4.2,2.07-6.37,4.46c-2.17,2.39-4.06,5.16-5.69,8.31
			c-1.32,2.77-2.31,5.77-3,8.98c-0.68,3.21-0.84,5.46-0.49,6.75c0.7,2.5,1.63,3.59,2.79,3.26c1.16-0.33,2.61-1.97,4.35-4.93
			c2.8-5.15,4.65-8.88,5.56-11.17c3.22-8.11,5.03-12.22,5.42-12.33c0.66-0.19,1.53-0.17,2.61,0.03c1.07,0.21,1.54,0.7,1.4,1.47
			c-1.46,5.65-1.75,11.02-0.87,16.09c0.11,0.62,0.3,1.41,0.57,2.35s0.7,1.66,1.32,2.14c1.13,0.85,2.29,0.6,3.46-0.75
			c1.17-1.35,2.65-3.8,4.43-7.36c1.78-3.56,3.07-6.9,3.86-10.04c0.13-0.4,0.35-0.55,0.68-0.46c0.32,0.09,0.51,0.21,0.54,0.34
			c0.28,1.01-0.41,3.59-2.09,7.74c-1.68,4.15-3.04,7.02-4.08,8.62c-1.94,3.09-4.02,4.95-6.23,5.57c-2.11,0.59-3.88-0.3-5.31-2.66
			c-0.39-0.76-0.73-1.65-1.01-2.67c-0.85-3.04-1.22-6.39-1.12-10.07c-0.18,0.2-0.83,1.84-1.94,4.91c-1.11,3.08-2.54,6.14-4.28,9.18
			C344.47,663.1,342.62,664.89,340.69,665.43z"/>
		<path class="st13" d="M389.3,619.6c1.27-0.36,2.14,0.29,2.61,1.95c0.46,1.66,0.46,4.11,0,7.37c-0.46,3.26-0.74,5.89-0.84,7.88
			c-0.18,3.4-0.01,6.03,0.51,7.89c0.52,1.86,1.09,3.03,1.7,3.51c1.13,0.85,2.28,0.58,3.45-0.8c1.17-1.38,2.64-3.84,4.43-7.36
			c1.79-3.52,3.08-6.85,3.88-9.99c0.13-0.4,0.37-0.56,0.72-0.47c0.35,0.08,0.55,0.21,0.6,0.38s0.04,0.37-0.01,0.6
			c-0.32,2.06-1.16,4.8-2.53,8.25c-1.37,3.44-2.8,6.3-4.32,8.58c-1.51,2.28-3.24,3.69-5.17,4.23c-1.9,0.46-3.38,0.31-4.43-0.45
			c-1.05-0.76-1.78-1.89-2.2-3.37c-0.42-1.48-0.71-2.95-0.87-4.4c-0.17-1.45-0.2-3.17-0.1-5.16c0.18-3.18,0.42-5.69,0.72-7.52
			c0.29-1.83,0.37-3,0.23-3.51c-0.14-0.51-0.43-0.7-0.88-0.57c-0.89,0.25-2.21,2.04-3.96,5.37c-1.17,2.44-2.67,6.85-4.5,13.22
			c-1.83,6.38-2.92,9.79-3.27,10.25c-1.65,1.77-2.73,2.73-3.23,2.87c-0.5,0.14-0.78,0.11-0.83-0.09c-0.06-0.2-0.08-0.51-0.07-0.91
			c0.01-0.4,0.03-2.39,0.07-5.97c0.04-3.58,0.08-7.5,0.11-11.77c0.03-4.27,0.06-6.84,0.08-7.72c0.02-0.88,0-1.62-0.08-2.22
			c-0.08-0.6-0.12-1.11-0.12-1.55c0-0.44,0.08-0.95,0.24-1.54c0.16-0.59,0.49-0.97,0.98-1.15c0.49-0.17,1.14-0.28,1.97-0.33
			c0.82-0.05,1.33,0.27,1.52,0.94c0.13,0.47,0.12,1.59-0.05,3.34c-0.17,1.76-0.38,7.7-0.65,17.83c1.16-3.53,2.72-7.66,4.68-12.4
			c1.96-4.74,3.71-8.41,5.24-11.03C386.51,621.36,387.97,619.97,389.3,619.6z"/>
		<path class="st13" d="M416.8,684.55c-0.44,0.12-1.02,0.18-1.75,0.16c-3.07-0.09-4.99-1.5-5.75-4.23
			c-0.77-2.74-0.27-6.57,1.48-11.5c1.75-4.93,6.25-12.49,13.49-22.68c1.21-11.04,1.77-19.69,1.7-25.93
			c-1.82,5.46-3.14,9.26-3.98,11.38c-3.09,8.15-6.16,12.65-9.21,13.5c-0.89,0.25-1.93,0.19-3.13-0.16c-1.2-0.35-2.33-1.02-3.38-2
			c-1.05-0.98-1.76-2.14-2.14-3.5c-1-3.58-0.08-8.17,2.77-13.78c1.68-3.38,3.58-6.39,5.71-9.03c2.13-2.63,3.9-4.41,5.32-5.31
			c1.42-0.91,2.85-1.56,4.29-1.97c1.44-0.4,2.85-0.29,4.22,0.35c1.37,0.64,2.19,1.43,2.46,2.37c0.15,0.54-0.02,0.77-0.52,0.69
			c-0.97-1.11-2.49-1.38-4.57-0.8c-2.08,0.58-4.2,2.07-6.37,4.46c-2.17,2.39-3.99,5.01-5.46,7.86c-1.47,2.85-2.54,5.92-3.2,9.2
			c-0.66,3.28-0.81,5.6-0.43,6.95c0.66,2.36,1.54,3.39,2.65,3.08c1.55-0.43,3.5-2.65,5.84-6.66c3.5-5.86,6.52-12.64,9.08-20.35
			c0.36-1.48,1.86-1.87,4.51-1.15c1.04,0.29,1.53,0.66,1.48,1.12c-0.17,2.16-0.54,5.92-1.1,11.29c-0.56,5.36-0.97,9.39-1.23,12.09
			c1.05-1.17,2.65-3.82,4.8-7.95c2.16-4.14,3.93-8.18,5.33-12.15c0.73-2.1,1.26-2.54,1.6-1.32c0.47,1.69-1.6,7.08-6.22,16.16
			c-2.65,5.26-4.63,8.65-5.93,10.18c-1.4,13.14-2.48,21.45-3.23,24.94C423.89,678.52,420.84,683.42,416.8,684.55z M423.77,650.59
			c-4.94,7.94-8.36,14.08-10.25,18.44c-1.89,4.35-2.4,8.08-1.53,11.19c0.26,0.94,0.7,1.55,1.31,1.82c0.61,0.27,1.2,0.32,1.75,0.17
			c0.55-0.15,1.21-0.89,1.98-2.19c0.77-1.31,1.39-2.56,1.86-3.74c0.47-1.19,0.87-2.28,1.19-3.28c0.32-1,0.64-2.25,0.96-3.76
			c0.32-1.51,0.57-2.69,0.76-3.54c0.18-0.85,0.39-2.17,0.64-3.95c0.25-1.78,0.42-2.99,0.5-3.64c0.09-0.64,0.23-1.94,0.43-3.89
			C423.59,652.24,423.72,651.04,423.77,650.59z"/>
		<path class="st13" d="M443.15,621.57c-0.02,2.48,0.05,4.12,0.21,4.91c0.16,0.79,0.43,1.85,0.8,3.16s0.98,2.44,1.84,3.36
			c1.45,1.56,3.07,1.25,4.85-0.92c1.36-1.54,2.91-4.11,4.65-7.69c1.74-3.58,2.98-6.75,3.7-9.5c0.05-0.23,0.19-0.38,0.41-0.44
			c0.5-0.14,0.76,0.26,0.78,1.2c-0.32,2.06-1.21,4.82-2.65,8.28c-1.45,3.46-2.86,6.28-4.22,8.45s-2.96,3.5-4.79,4.02
			c-4.21,1.18-7.01-0.73-8.41-5.73c-0.06-0.2-0.11-0.41-0.17-0.61c-1.1-4.79-1.14-12.48-0.1-23.08c1.03-10.59,2.37-18.74,4-24.44
			l1.47-4.67c0.36-1.05,0.95-2.38,1.75-3.99c1.5-3.19,3.42-5.11,5.78-5.77c2.35-0.66,4.19-0.23,5.51,1.3
			c0.45,0.53,0.83,1.37,1.15,2.52c0.32,1.15,0.36,2.89,0.12,5.21C457.5,590.82,451.94,605.63,443.15,621.57z M457.07,575.94
			c0.25-1.67,0.26-2.91,0.03-3.72c-0.4-1.42-1.07-2-2.01-1.73c-0.78,0.22-1.59,1.03-2.45,2.44c-3.26,5.43-5.7,13.25-7.32,23.46
			c-1.28,8.22-1.97,15.15-2.06,20.79c2.93-4.24,5.76-10.61,8.49-19.09C454.48,589.59,456.25,582.21,457.07,575.94z"/>
		<path class="st13" d="M473.16,595.36c2.99-0.84,4.98,0.5,5.96,4.01c0.51,1.82,0.51,3.43,0,4.81c-0.68,2.89-2.32,5.69-4.9,8.42
			c-2.58,2.73-4.92,4.49-7.03,5.3c-0.76,0.29-1.25,0.13-1.47-0.46c-0.13-0.25-0.11-0.44,0.07-0.56c0.17-0.12,0.32-0.2,0.43-0.23
			c1.24-0.49,2.66-1.69,4.28-3.6c3.03-3.47,5.04-6.73,6.04-9.78c0.38-1.42,0.41-2.68,0.1-3.8c-0.31-1.12-0.91-1.55-1.8-1.3
			c-0.72,0.2-1.59,0.85-2.6,1.93c-2.19,2.22-4.21,5.57-6.05,10.05c-1.85,4.49-2.73,8.61-2.63,12.37c0.02,1.16,0.19,2.26,0.48,3.31
			c0.29,1.05,0.93,1.94,1.92,2.69c0.98,0.74,2.22,0.91,3.72,0.49c1.66-0.47,3.42-1.54,5.28-3.23c5.39-4.86,8.89-10.9,10.51-18.13
			c0.18-0.63,0.46-0.82,0.83-0.56c0.26,0.07,0.42,0.21,0.47,0.41c0.06,0.2,0.04,0.46-0.05,0.78c-0.72,3.84-1.98,7.44-3.79,10.78
			c-3.49,6.51-7.56,10.42-12.21,11.72c-3.99,1.12-7.19,0.45-9.61-2.01c-0.93-0.98-1.62-2.28-2.08-3.9
			c-0.45-1.62-0.63-3.65-0.54-6.08c0.31-4.24,2.16-9.02,5.57-14.34C467.47,599.14,470.5,596.1,473.16,595.36z"/>
		<path class="st13" d="M499.66,587.94c2.99-0.84,4.98,0.5,5.96,4.01c0.51,1.82,0.51,3.43,0,4.81c-0.68,2.89-2.32,5.69-4.9,8.42
			c-2.58,2.73-4.92,4.49-7.03,5.3c-0.76,0.29-1.25,0.13-1.47-0.46c-0.13-0.25-0.11-0.44,0.07-0.56c0.17-0.12,0.32-0.2,0.43-0.23
			c1.24-0.49,2.66-1.69,4.28-3.6c3.03-3.47,5.04-6.73,6.04-9.78c0.38-1.42,0.41-2.68,0.1-3.8c-0.31-1.12-0.91-1.55-1.8-1.3
			c-0.72,0.2-1.59,0.85-2.6,1.93c-2.19,2.22-4.21,5.57-6.05,10.05c-1.85,4.49-2.73,8.61-2.63,12.37c0.02,1.16,0.19,2.26,0.48,3.31
			s0.93,1.94,1.92,2.69c0.98,0.74,2.22,0.91,3.72,0.49c1.66-0.47,3.42-1.54,5.28-3.23c5.39-4.86,8.89-10.9,10.51-18.13
			c0.18-0.63,0.46-0.82,0.83-0.56c0.26,0.07,0.42,0.21,0.47,0.41c0.06,0.2,0.04,0.46-0.05,0.78c-0.72,3.84-1.98,7.44-3.79,10.78
			c-3.49,6.51-7.56,10.42-12.21,11.72c-3.99,1.12-7.19,0.45-9.61-2.01c-0.93-0.98-1.62-2.28-2.08-3.9
			c-0.45-1.62-0.63-3.65-0.54-6.08c0.31-4.24,2.16-9.02,5.57-14.34C493.97,591.72,497,588.69,499.66,587.94z"/>
	</g>
	<g>
	</g>
</g>
<g id="Layer_2">
	<g>
		<path d="M246,360.96c0,0,0,16.8,1.2,16.8s-1.44,10.32,0,10.56c1.44,0.24,2.4,6.24,4.08,6.24c1.68,0,0.96,6,0.96,6l0.15,8.64
			l1.29-4.8l1.04,6.78l0.4,2.58l1.92,2.4l1.68,5.28l2.64,1.2c1.92,0,0.48,6.96,2.64,6.24s-0.72,6.48,2.4,6.24s6.96,6,7.44,8.4
			c0.48,2.4,8.88,6.96,6.72,9.84c-2.16,2.88,3.84,6,3.84,6s3.36,7.44,3.84,6.48c0.48-0.96,1.68,6.24,4.08,5.04
			c2.4-1.2,5.52,2.16,5.52,2.16l15.6,7.92l7.44,4.32c0,0,3.12,0.48,5.28,0s7.92,4.56,11.04,2.16c3.12-2.4,4.99,7.44,12,0.65
			l10.08,2.43l9.6-1.88c0,0,6.48,0,6.96-1.92s12.72-0.72,12.24-4.32c-0.48-3.6,10.32-3.12,11.28-6.48
			c0.96-3.36,13.92-5.52,12.96-8.64c-0.96-3.12,8.13-6.96,8.62-8.4s12.02-6.24,10.82-7.92c-1.2-1.68,8.88-5.76,12.24-9.12
			c3.36-3.36,6-10.32,4.8-12.48c-1.2-2.16,9.36-5.28,8.4-8.64c-0.96-3.36,2.64-11.04,2.16-12.96c-0.48-1.92,4.56-9.36,4.56-9.36
			l1.2-4.56v-6.48v-5.52v-4.08c0,0-1.2-6.24,0-6.24c1.2,0-1.44-3.84,0-6.24s1.44-5.28,1.44-5.28v-2.88v-2.4v-1.68l1.68-3.36v-5.04
			v-5.52v-4.8l-0.96-12.48l-0.48-10.56l-3.84-1.2v6.24c0,0-0.72,7.44,1.2,7.44c1.92,0-1.2,9.6,0.24,9.6s-2.64,4.8-3.6,11.52
			c-0.96,6.72-2.16,12.24-2.16,12.24l-3.12,7.92l-3.12,5.28l-1.92,5.52l-4.56,4.08l-3.12,6.72l-1.68,7.68c0,0-8.88,7.44-8.88,10.8
			c0,3.36-7.2-1.68-8.4,1.68c-1.2,3.36-4.56,6.48-4.56,10.32s-12.48-4.08-12.96-0.96c-0.48,3.12-3.36-6.96-3.84-3.36
			c-0.48,3.6,0.48,0.24-2.64-6.48s-3.36-12.96-3.36-12.96l-12.72,0.24l-3.36,1.44c0,0,6.24,5.28,5.76,8.4S383.04,414,383.04,414
			s-7.92,12.24-10.08,11.04c-2.16-1.2-10.08,11.28-13.2,8.4s-10.32,4.56-9.84-0.24c0.48-4.8,0.24-7.44,0.24-7.44l2.88-3.12v-6.24
			l-4.32-4.8l-5.76-0.72l-6.48-1.44h-8.4h-5.52l-5.28,2.88c0,0-3.12,8.4-0.24,8.4s-1.68,6.96,2.64,8.4s5.28,5.28,5.28,5.28
			l-5.52,3.12l-4.08-1.44l-5.52-4.32c0,0-4.8-8.16-6.96-8.16s-7.68-0.72-8.16-4.08c-0.48-3.36-1.68,0.48-3.6-5.28
			c-1.92-5.76,0.24-9.84,0.24-9.84l0.96-4.1l-6-2.62l-6.96,0.24c0,0-2.16,8.88,0.24,17.76s3.12,12.96,1.44,12.96
			c-1.68,0-8.16-4.08-8.16-4.08l-6.24-5.28l-5.52-5.76l-4.56-11.28l-3.84-9.36l-1.68-11.28l-2.16-10.56L246,360.96z"/>
	</g>
	<g>
		<path d="M462.96,314.88"/>
	</g>
	<g>
		<path d="M292.32,423.36"/>
	</g>
	<g>
		<path d="M260.16,437.76"/>
	</g>
	<g>
		<path d="M250.56,301.92c-1.36,0.22-1.46-7.61-8.16-17.28c-3.75-5.41-6.62-7.15-6.72-11.52c-0.08-3.71,1.92-5.97,0.48-9.6
			c-0.94-2.38-2.16-2.32-2.88-4.8c-0.69-2.4,0.1-3.66,0.48-7.68c0.36-3.78-0.18-4.36,0-7.2c0.03-0.41,0.47-6.59,3.84-11.52
			c4.89-7.15,12.17-6.15,12.72-10.32c0.56-4.25-6.82-6.59-6-11.04c0.2-1.09,0.74-1.44,7.2-7.2c4.65-4.15,5.05-4.57,5.52-5.52
			c1.14-2.32,1.08-4.82,0.96-9.84c-0.12-4.8-0.63-4.85-0.24-6.96c0.65-3.52,2.09-3.48,3.84-8.16c1.67-4.45,0.8-5.67,2.64-7.68
			c1.7-1.86,2.89-1.31,4.8-3.36c1.9-2.04,1.79-3.75,2.88-6c1.64-3.39,3.79-3.46,7.92-6.96c6.99-5.92,5.85-9.98,12.48-13.92
			c2.26-1.34,4.48-2.11,6-2.64c5.19-1.8,7.1-1.27,11.28-3.36c1.86-0.93,1.71-1.15,4.56-2.64c0.77-0.4,3.78-1.97,6.48-2.88
			c4.03-1.35,6.35-0.87,9.84-1.2c6.99-0.65,6.87-3.44,16.56-6.24c6.44-1.86,11.62-2.11,13.68-2.16c2.74-0.07,7.64-0.15,13.44,1.44
			c6.17,1.69,9.87,4.33,17.28,9.6c8.32,5.92,12.5,8.98,13.68,13.92c0.57,2.36,0.57,5.32,1.68,5.52c1.01,0.18,1.74-2.16,3.84-4.56
			c3.2-3.65,7.37-4.87,9.6-5.52c3.98-1.16,7.06-0.84,12.24-0.24c7.01,0.81,11.12,1.29,16.08,3.84c2.08,1.07,9,4.63,13.44,12
			c1.2,1.99,2.81,5.25,3.36,5.04c0.56-0.22-1.06-3.66,0-4.56c1.8-1.54,11.28,4.35,17.52,13.2c3.67,5.22,5.19,10,7.2,16.32
			c1.36,4.3,3.03,9.67,3.36,16.8c0.23,5.01-0.47,4.94,0,9.36c0.71,6.61,2.53,9.11,1.2,13.2c-0.81,2.48-1.65,2.1-3.6,5.52
			c-3.36,5.89-3.55,11.76-3.6,14.16c-0.13,6.23,1.76,6.91,2.4,12.96c0.98,9.31-3.23,10.38-4.56,23.04
			c-1.07,10.1,1.2,13.33-1.92,18.24c-2.32,3.64-6.92,2.55-10.32,7.2c-2.79,3.82-3.6,5.28-3.6,5.28c-1.07,1.93-1.35,2.9-2.4,3.6
			c-1.54,1.02-4.17,1.11-5.76,0c-3.41-2.39,0.86-8.4-1.68-18c-1.33-5.01-3.16-5.91-3.84-11.28c-0.58-4.56,0.62-5.01,0.48-9.36
			c-0.23-7.09-3.68-15.77-10.08-21.12c-3.5-2.93-5.45-2.81-6-5.04c-1-4.04,4.96-5.99,7.68-14.16c0.46-1.37,2.87-8.6-0.72-14.16
			c-0.24-0.37-1.4-2.13-3.6-3.6c-4.4-2.95-7.19-0.91-11.04-3.12c-2.92-1.67-4.17-4.48-6.24-9.12c-2.88-6.45-1.24-7.71-3.36-10.08
			c-3.8-4.25-9.18-0.36-18-4.32c-5.26-2.36-4.81-4.4-10.56-6.96c-1.99-0.88-4.48-1.73-14.16-2.64c-14.25-1.34-21.47-1.95-25.92,1.2
			c-3.85,2.73-3.29,5.1-6.72,6.24c-5.35,1.77-8.69-3.34-16.8-5.28c-7.06-1.69-12.93,0.19-21.36,2.88
			c-2.88,0.92-10.62,3.61-19.68,10.08c0,0-9.68,6.82-17.36,16.64c-3.15,4.02-6.1,8.78-6.1,8.78c-0.26,0.41-1.64,2.65-3,5.14
			c-0.42,0.78-4.4,8.19-7.13,16.97c-1.82,5.86-3.23,13.46-4.32,27.12C250.15,286.57,252.47,301.62,250.56,301.92z"/>
	</g>
	<g>
		<path d="M433.92,269.52l-3.36-6l-4.32-4.32c0,0-5.04-4.56-6.48-4.56s-7.68-5.52-7.92-5.04c-0.24,0.48-11.28-2.64-12.24-1.2
			c-0.96,1.44-14.4-0.38-14.4-0.38h-9.12c0,0-8.64,0.62-7.2,1.58c1.44,0.96-7.44,0.72-7.44,3.36c0,0-3.6-0.96-5.28,0.96
			s-5.76,3.12-5.76,3.12l1.68,9.36l9.36-2.64l11.52-1.92c0,0,10.08-2.64,10.08,0.24c0,2.88,8.4-2.16,10.56-0.48s7.92-1.92,9.36-0.48
			s10.08,0.48,10.08,0.48l5.52,2.16l4.32,2.16l7.2,2.64L433.92,269.52z"/>
	</g>
	<g>
		<polygon points="349.2,267.12 350.4,262.56 351.91,256.51 352.08,266.4 		"/>
	</g>
	<g>
		<path d="M254.16,288l1.2-6.24l1.1-4.4l0.34-1.36l3.6-3.6l2.16-2.88l2.88-4.32c0,0,2.88-3.65,4.8-3.39c1.92,0.27,7.2,1.23,7.2,1.23
			l4.56-3.12h6.24c0,0,7.22-0.77,10.08-1.15c5.76-0.77,5.76-0.77,5.76-0.77l7.68,0.77l3.6-2.26v5.31l1.44,5.31
			c-0.48,2.88-6.24,5.13-6.24,5.13h-7.2l-17.88,1.35l-15.72,4.08l-9.84,4.32L254.16,288z"/>
	</g>
	<g>
		<path d="M279.36,397.92h-1.59c-0.56,0-0.89-0.62-0.59-1.08l1.47-2.27c0.3-0.47-0.03-1.08-0.59-1.08h-0.02
			c-0.61,0-0.93-0.72-0.52-1.17l4.03-4.5c0.4-0.45,0.08-1.17-0.52-1.17l0,0c-0.59,0-0.92-0.69-0.54-1.15l4.94-5.98
			c0.04-0.04,0.08-0.09,0.13-0.12c8.91-6.44,6.06-9.3,8.93-6.43c2.88,2.88,3.24-5.4,7.56-5.4c4.32,0-1.08-4.32,4.68-3.6
			s7.2,1.28,10.08-0.08c2.44-1.15,4.88-3.14,5.57-3.72c0.13-0.11,0.28-0.16,0.45-0.16h4.78h4.46c0.14,0,0.28-0.04,0.4-0.12
			l5.32-3.65c0.17-0.12,0.38-0.15,0.58-0.1l7.88,2.06c0.06,0.02,0.12,0.02,0.18,0.02h5.63c0.03,0,0.05,0,0.08,0l9.68,1.08l7.45,0.62
			c0.34,0.03,0.69-0.18,0.73-0.52c0.04-0.36,1.15-0.5,6.22,0.98c8.64,2.52,9.72,6.48,11.16,6.84c0,0,8.88,3.96,4.8,3.96
			c-4.08,0,7.8,0.72,5.28,2.88c-2.31,1.98,0.42,4.79,1.8,5.4c0.13,0.06,0.12,1.34,0,1.26c-3.51,0-1.55,5.22,1.08,7.02
			c-2.15,0-3.17,4.4-3.84,5.64c-0.12,0.22,4.77-0.23,4.52-0.22l-18.76,1.11l-1.84,0.79l4.11-9.71c-0.02-0.08-0.05-0.16-0.1-0.24
			l-5.22-7.95c-0.07-0.11-0.17-0.19-0.28-0.25l-5.87-2.82c-0.05-0.02-0.1-0.04-0.16-0.05l-4.41-0.94c-0.29-0.06-0.6,0.06-0.75,0.32
			c-0.39,0.7-1.41,1.82-3.51,0.39c-0.1-0.07-0.22-0.11-0.34-0.12l-7.85-0.67c-0.21-0.02-0.41,0.05-0.56,0.2
			c-0.6,0.62-2.48,2.12-4.84-0.23c-2.88-2.88-6.12,2.16-10.44-1.08c-4.32-3.24-9.36,5.04-12.6,2.52c-2.77-2.15-8.69-2.47-10.36-2.51
			c-0.27-0.01-0.52,0.15-0.64,0.39l-2.13,4.31c-0.12,0.24-0.36,0.39-0.63,0.39h-5.02c-0.19,0-0.38,0.08-0.51,0.22l-4.09,4.37
			c-0.01,0.02-0.03,0.03-0.04,0.05l-4.43,5.7c-0.28,0.37-0.84,0.36-1.11-0.01c-1.1-1.47-3.6-4.09-4.16,1.48
			c-0.62,6.17-1.76,8.46-2.08,8.99c-0.05,0.08-0.11,0.15-0.19,0.21l-1.96,1.4"/>
	</g>
	<g>
		<path d="M386.59,299.32c-1.78,0-3.27-0.16-4.32-0.26c-1.59-0.17-2.58-0.38-3.53-0.58c-1.16-0.25-2.25-0.48-4.37-0.62
			c-0.64-0.04-3.79-0.16-5.72-0.19c-0.06,0.14-0.19,0.29-0.51,0.34c-0.1,0.02-9.95,0.37-10.3-0.74v0c-0.17-0.53-0.33-1.04,9.34-6.82
			c1.22-0.73,2.05-0.63,2.6-0.57c0.58,0.07,0.82,0.1,1.51-1.59l0.08-0.18l0.18-0.08c3.24-1.48,5.98-2.05,7.79-2.43
			c1.61-0.34,4.6-0.97,8.5-0.97c1.5,0.01,5.55,0.14,10.45,1.46c4.66,1.26,9.13,3.65,10.2,4.24c0.05-0.02,0.09-0.04,0.13-0.06
			c0.06-0.03,0.09-0.05,0.1-0.05l0,0c0.26-0.12,0.34-0.1,0.51,0.02l0.24,0.16l-0.02,0.29c0,0.06-0.01,0.14-0.32,0.35l0.03,0.06
			c-0.03,0.01-0.17,0.09-0.47,0.24l-0.24,0.12l0,0c-0.99,0.57-2.98,1.58-6.97,3.49c-4.43,2.11-6.65,3.17-8.49,3.63
			C390.67,299.15,388.47,299.32,386.59,299.32z M369.15,296.63c1.16,0,2.85,0.06,5.28,0.23c2.2,0.15,3.37,0.4,4.51,0.64
			c0.93,0.2,1.88,0.4,3.43,0.56c2.1,0.22,6.02,0.63,10.39-0.47c1.75-0.44,3.94-1.48,8.31-3.57c1.44-0.69,4.57-2.26,6.35-3.16
			c-1.63-0.86-5.44-2.76-9.38-3.82c-4.75-1.28-8.66-1.42-10.15-1.42c-0.01,0-0.02,0-0.04,0c-3.8,0-6.61,0.6-8.3,0.95
			c-1.84,0.39-4.34,0.91-7.4,2.29c-0.85,1.98-1.44,2.15-2.48,2.02c-0.49-0.06-1.04-0.12-1.97,0.43c-5.68,3.39-7.79,4.88-8.54,5.53
			c1.47,0.18,5.23,0.28,7.38,0.26C366.58,296.88,366.86,296.63,369.15,296.63z"/>
	</g>
	<g>
		<path d="M381.6,287.04c0,0-3.6,3.36-1.2,6.48c2.4,3.12,5.28,4.48,5.28,4.48l7.2,0.08c0,0,4.8-4.8,4.8-7.44
			c0-2.64-1.16-4.49-1.16-4.49l-5.44-0.87l-7.44,0.09L381.6,287.04z"/>
		<path d="M393.08,298.58l-7.62-0.13c-0.12-0.06-3.02-1.45-5.46-4.63c-2.12-2.75-0.1-5.88,1.26-7.15l0.02-0.02l2.17-1.78l7.62-0.09
			l5.75,0.92l0.12,0.19c0.05,0.08,1.24,2,1.24,4.75c0,2.77-4.44,7.29-4.95,7.79L393.08,298.58z M385.8,297.5l6.87,0.07
			c1.38-1.42,4.51-5.02,4.51-6.94c0-1.99-0.71-3.51-0.98-4.03l-5.2-0.84l-7.18,0.09l-1.89,1.55c-0.24,0.23-3.19,3.13-1.13,5.8
			C382.85,295.89,385.3,297.24,385.8,297.5z"/>
	</g>
	<g>
		<path d="M282.72,310.58l-8.71-1.21l-7.95-1.06l3.59-6.04l4.95-4.66l4.22-1.71c0.04,0,4.46-0.48,6.44-1.4l0.17-0.04
			c0.36-0.03,8.87-0.72,13.91,0c5.12,0.73,13.34,7.5,13.69,7.79l0.67,0.56l-10.66,3.9l-7.72,2.17L282.72,310.58z M267.69,307.52
			l15.03,2.05l12.41-1.67l7.61-2.15l8.97-3.28c-2.09-1.64-8.48-6.45-12.51-7.02c-4.66-0.67-12.69-0.07-13.6,0
			c-2.04,0.91-6,1.37-6.6,1.44l-3.93,1.62l-4.68,4.45L267.69,307.52z"/>
	</g>
	<g>
		<path d="M260.16,300.96c0,0,6-4.56,9.6-8.88c3.6-4.32,4.44-5.28,10.08-6.96c5.64-1.68-4.56,1.69,3.12-0.96
			c7.68-2.65-0.29-1.44,5.01-1.44c5.31,0,6.99,1.44,6.99,1.44l8.4,1.92l8.4,4.32l3.81,2.88l-15.09-6.24l-16.32-1.76l-10.56,3.92
			L260.16,300.96z"/>
		<path d="M260.77,301.76l-1.26-1.55l7.33-6.42c0.77-0.77,1.5-1.57,2.16-2.35c3.78-4.53,4.78-5.55,10.56-7.28
			c0.73-0.22,1.28-0.38,1.69-0.47c0.38-0.13,0.84-0.29,1.39-0.48c1.18-0.41,1.93-0.7,2.39-0.91c0.09-0.38,0.4-0.74,0.98-0.84
			c0.49-0.08,0.86,0.03,1.12,0.24c0.22,0.01,0.5,0.01,0.85,0.01c4.64,0,6.74,1.07,7.41,1.51l8.44,1.96l8.54,4.41l10.05,7.59
			l-22.18-9.17l-15.94-1.72l-10.17,3.77l-5.9,5.16C264.83,298.65,260.97,301.6,260.77,301.76z M285.24,284.39l11.82,1.27l-2.56-0.58
			l-0.19-0.16l0,0c0,0-1.6-1.2-6.34-1.2c-0.46,0-0.88,0-1.26-0.02C286.36,283.91,285.88,284.14,285.24,284.39z"/>
	</g>
	<g>
		<path class="st6" d="M271.93,289.2"/>
	</g>
	<g>
		<path d="M365.04,282.44c0,0,4.8-4.52,10.56-5c5.76-0.48,5.04-3.12,14.4-1.2c9.36,1.92,10.32,1.67,14.88,2.76
			s12.48,10.2,12.48,10.2c-10.08-7.44-19.68-10.32-19.68-10.32l-12.72-1.44L365.04,282.44z"/>
		<path d="M424.06,295.39l-7.29-5.38c-9.33-6.88-18.35-9.84-19.29-10.14l-12.45-1.41l-23.47,5.9l2.79-2.63
			c0.21-0.19,5.12-4.77,11.16-5.27c1.91-0.16,3.05-0.57,4.16-0.97c2.16-0.78,4.2-1.51,10.52-0.21c4.88,1,7.43,1.4,9.48,1.73
			c1.87,0.3,3.23,0.51,5.43,1.03c4.82,1.15,12.67,10.14,13,10.52L424.06,295.39z M402.01,279.41c2.07,0.85,4.8,2.1,7.87,3.8
			c-1.9-1.6-3.81-2.9-5.23-3.24C403.63,279.73,402.8,279.55,402.01,279.41z M384.39,276.55c-1.83,0.01-2.88,0.39-4.03,0.8
			c-1.17,0.42-2.5,0.9-4.67,1.08c-2,0.17-3.9,0.87-5.49,1.68L384.39,276.55z"/>
	</g>
	<g>
		<path d="M271.93,308.59c0,0,0.95-0.97,1.85-2.95c0.9-1.98,2.08-4.86,3.29-4.68c1.21,0.18,2.29-0.01,2.29-0.01l1.98-2.13l2.52-1.82
			c0,0-0.18,1.26-0.18,3.96c0,2.7,0.54,3.96,0.54,3.96l1.26,1.8l0.72,0.9l1.67,0.97h5.89l3.6-0.8l1.44-1.97l0.9-1.8l1.08-5.2v-1.64
			l5.94,3.06l3.36,0.72l2.64,1.68l-10.79-6.9l-4.39-1.1h-7.74l-9.45,1.57l-4.48,1.43l-4.11,3.32l-2.24,2.48l-1.95,3.3l-0.7,1.18"/>
		<path d="M293.82,309.09h-6.08l-1.92-1.16l-0.72-0.9l-1.33-1.92c-0.02-0.06-0.58-1.39-0.58-4.16c0-1.29,0.04-2.25,0.08-2.91
			l-1.63,1.18l-2.02,2.19l-0.17,0.03c-0.05,0.01-1.18,0.2-2.45,0.01c-0.75-0.14-1.95,2.59-2.53,3.88l-0.23,0.51
			c-0.93,2.04-1.9,3.05-1.94,3.1l-0.72-0.7c0.01-0.01,0.9-0.95,1.75-2.81l0.23-0.5c1.04-2.3,2.11-4.69,3.59-4.46
			c0.85,0.13,1.64,0.06,1.97,0.02l1.86-2l3.34-2.43l-3.88,0.65l-4.32,1.38l-4.03,3.26l-2.15,2.39l-2.62,4.43l-0.86-0.51l2.7-4.56
			l2.24-2.48l4.33-3.46l4.48-1.43l9.52-1.58l7.88-0.01l4.6,1.18l10.79,6.9l-0.54,0.84l-2.56-1.63l-3.4-0.75l-5.21-2.68l-0.01,0.93
			l-1.12,5.32l-0.9,1.8l-1.6,2.2L293.82,309.09z M288,308.09h5.7l3.36-0.75l1.33-1.82l0.83-1.67l1.06-5.08v-2.41l6.61,3.4l0.61,0.13
			l-5.77-3.69l-4.25-1.07h-7.68l-5.3,0.88l-0.15,1.05c0,0.01-0.17,1.27-0.17,3.89c0,2.28,0.4,3.49,0.48,3.72l1.23,1.75l0.64,0.8
			L288,308.09z"/>
	</g>
	<g>
		<path d="M381.74,299.08c-0.11,0-0.21,0-0.3-0.01c-2.7-0.12-8.36-1.08-9.06-1.2l-17.44-0.74l2.87-1.72
			c1.24-0.74,12.14-7.25,13.56-7.86c1.43-0.61,7.82-2.26,8.54-2.45l0.13-0.02l7.79-0.97l9.95,0.97c7.62,1.26,8.18,2.46,8.37,2.85
			c0.15,0.31,1.37,0.74,2.45,0.87l3.3,0.4l-16.21,8.06C395.24,297.34,384.99,299.08,381.74,299.08z M361.71,295.42l10.94,0.47
			c0.06,0.01,6.18,1.07,8.87,1.19c2.16,0.09,10.47-1.22,13.68-1.76l10.52-5.26c-0.56-0.28-1.06-0.66-1.34-1.18
			c-0.63-0.51-4.02-1.34-6.87-1.81l-9.66-0.94l-7.51,0.94c-1.97,0.51-7.11,1.87-8.19,2.33C371.35,289.74,366.2,292.76,361.71,295.42
			z"/>
	</g>
</g>
</svg>
