<svg xmlns="http://www.w3.org/2000/svg" xmlns:xlink="http://www.w3.org/1999/xlink" viewBox="0 0 792.75 739.87">
<defs>
<style>.cls-1{fill:url(#linear-gradient);}.cls-2{fill:#e5ad8f;}.cls-3{fill:#d39d86;}.cls-4{fill:url(#linear-gradient-2);}.cls-5{fill:#151313;}.cls-6{fill:#d0977c;}.cls-7{fill:#ddaf97;}.cls-8{fill:#ab6c57;}.cls-9{fill:#dea27c;}.cls-10{fill:#e6b292;}.cls-11{fill:#e5ae96;}.cls-12{fill:#e8b497;}.cls-13{fill:#dba48a;}.cls-14{fill:#eaa486;}.cls-15{fill:#cc7971;}.cls-16{fill:#d1877d;}.cls-17{fill:#c6786f;}.cls-18{fill:#b26862;}.cls-19{fill:#c66664;}.cls-20{fill:#da8070;}.cls-21{fill:#4f2c24;}.cls-22{fill:#eaac9b;}.cls-23{fill:#e0a58c;}.cls-24{fill:#e2a898;}.cls-25{fill:#d09480;}.cls-26{fill:#ce9482;}.cls-27{fill:#332017;}.cls-28{fill:#efddd7;}.cls-29{fill:#703d18;}.cls-30{fill:#82461e;}.cls-31{fill:#ce927b;}.cls-32{fill:#3a2522;}.cls-33{fill:#eee6ed;}.cls-34{fill:#c0b7b2;}.cls-35{fill:#ebf3f8;}.cls-36{fill:#ccc3bd;}.cls-37{fill:#fdfdfe;}.cls-38,.cls-39,.cls-40{fill:#634043;}.cls-39,.cls-40{stroke:#634144;stroke-miterlimit:10;}.cls-40{stroke-width:0.75px;}.cls-41{fill:#151617;}.cls-42{fill:#1c2128;}.cls-43{fill:#1c1d1e;}.cls-44{fill:#121212;}.cls-45{fill:#0c1517;}.cls-46{fill:#191c20;}.cls-47{fill:#0f0f10;}.cls-48{fill:#2b2d2e;}
</style>
<linearGradient id="linear-gradient" x1="268.24" y1="816.78" x2="524.51" y2="-76.92" gradientUnits="userSpaceOnUse">
<stop offset="0" stop-color="#bd4f6c"/>
<stop offset="0.73" stop-color="#d7816a"/>
</linearGradient>
<linearGradient id="linear-gradient-2" x1="444.15" y1="137.83" x2="456.51" y2="137.83" gradientUnits="userSpaceOnUse">
<stop offset="0" stop-color="#fff"/>
<stop offset="1" stop-color="#ddc8c3"/>
</linearGradient>
</defs>
<title>Layer 6 (3)
</title>
<g id="Layer_2" data-name="Layer 2">
<g id="Layer_6" data-name="Layer 6">
<g id="Layer_5" data-name="Layer 5">
<rect class="cls-1" width="792.75" height="739.87"/>
</g>
<g id="skin">
<path class="cls-2" d="M419.43,233.71l-5,2.88S355.71,201,351,201s-32.4-1.8-32.4-1.8V182.23s21.24-6.12,21.24-15.48v-9.36l2.88-19.8s-5-6.48,11-10.8,26.46-7.2,26.46-7.2l16.2-28.08,28.8-40L440,58l12.77,19.85s9.37,12.82,10,16.51l.63,3.69,1.71,10.8,2.7,7.47c1.12,3.12,3.75,7.07.82,13.14-.08.17-.17.33-.26.5s-.07.14-.11.22-2.7,5.22-2.16,7.11a17.57,17.57,0,0,0,3.87,7.92c3.15,4,9.54,14.76,9.54,14.76s9.81,14.91-3.87,17.55l-5.64.12-1.68,2.4s6,6.6-.12,13l-6,1.08s7.68,4.32,7.68,5.64.72,5-1.44,7.2-9.48,13.2-9.48,13.2Z"/>
<path class="cls-3" d="M374.07,148.52s-.59,3.83,0,5.67a6.86,6.86,0,0,0,2.11,3.56c.77.54,5.09,7.29-2,3.82s-.18,0-.18,0-2.34-2.34-8.64-2.25c0,0-4.32.22-5.27-5.27,0,0-1.57-4.23-.94-5.76,0,0,1.35,2.48,1.66,2.39s.45-3.65,3.11-4.41,6.88-4.46,6.88-4.46.09,4.73-.9,6.35S369,153,369,153a13.86,13.86,0,0,0,3.15-3.24C373.57,147.67,374,147,374.07,148.52Z"/>
<path class="cls-3" d="M356.55,132.25a2.38,2.38,0,0,1,2.1-1.2c1.5,0,2.76.66,2.46,1.14a24.08,24.08,0,0,0-3.24,4.26c-1.8,3-2.28,8.94-1.68,11.52s.48,9.78,10,16.62c0,0-7.86-2.16-11.64-12.12C354.51,152.47,349.41,139.09,356.55,132.25Z"/>
<path class="cls-4" d="M444.15,137.25s4.91-4.28,11.26-3.67c0,0,3.57,4.9-2.14,8.57C453.27,142.15,451,142.22,444.15,137.25Z"/>
<path class="cls-5" d="M442.58,137.58a53.29,53.29,0,0,1,7.12-4.2,12.62,12.62,0,0,1,3.83-1.07c1.44-.1,3.16.92,4.54,1.25a11.36,11.36,0,0,0-4.42.15,20.39,20.39,0,0,0-4.2,1.07c-.93.38-1.84.87-2.76,1.29A38.32,38.32,0,0,1,442.58,137.58Z"/>
<path class="cls-6" d="M463,93.19s-9.18-12.3-13.14-14.1-11.7-5.76-17.1-3.24-13,8.1-13,8.1-3.06,2.16-2.52,5.58,2.34,6.48,1.62,8.1,4,15.84-15.12,18.9c0,0-6.66,1.08-4.32,12.78s6.3,21.06,3.6,22-1.62-4.68,5.76,2a20.49,20.49,0,0,1,6.9,15.18s11.52,4.08,11.52,9.12v7.92s4.56.24,4.56,4.08-1,3.84,3.36,6.72,7.68,2.4,5.76,5.52,2.4,5.52,2.4,5.52,1.92,2.88,4.32-3.12,5.76-13.44,5.76-13.44l6.48-8.88-3.36,17-6,14.4-15.36-1.2-15.6-19.44-18.24-29.52L395.07,142l-5-21.84,6.72-22.32,7.68-42.72L451.71,66,463,93.19"/>
<path class="cls-7" d="M442.83,79.39s9.12,3.84,11.28,11,3.12,9.12,3.12,14.64,1,8.16,4.08,11.28,5.28,6.48,4.8,10.8-3.6,9.12-3.12,11.28,7.92,12.24,7.92,12.24,5.76,7.68,6.72,13,4.8,9.36,5,6.72-1-7-1.92-8.16-14.16-22.08-14.16-22.08-1.2-1.44-.72-5.52,7.92-7,.48-23.28a100.38,100.38,0,0,1-3.18-17.52h0s-9.06-13.92-14.58-15.36L443.07,77l-3.84-1.44Z"/>
<path class="cls-8" d="M464.07,174s6.84-1.8,8.82-1.26,5.94,3.42-1.08,2.34c0,0-4.68-1.44-5.22-.18a13.38,13.38,0,0,1-3.06.54C463.17,175.21,464.07,174,464.07,174Z"/>
<path class="cls-9" d="M459.93,161.17s-3.42,4.32-1.62,7.38a31.84,31.84,0,0,0,4.32,5.58S456.69,167.11,459.93,161.17Z"/>
<path class="cls-10" d="M434.91,142.15s1,7.92,6,10.92,17.16,12.24,12,25.92l-5.16,13.68s-1.44,3.48,1.08,2.76,4.56-4.08,5.64-7S458,181.27,458,178s-.48-5.88-.12-8-1.32-3.84-.12-7.44,3-6.84-4-7.2-13.56-6.72-13.56-6.72Z"/>
<path class="cls-10" d="M459.57,135.79s.36,6.66-1.08,10.44a9.77,9.77,0,0,0,2.34,10.26,35.54,35.54,0,0,0,4.5,3.24,7,7,0,0,1,4.32,4.32c1.44,3.6,2,6.48,4.14,5.76s3.24-2.16.72-5.58-5.58-5-8.82-7.38-5.22-5.4-5.22-8.82S459.57,135.79,459.57,135.79Z"/>
<path class="cls-11" d="M439.23,75.55a7.08,7.08,0,0,0-6-.12c-3.24,1.44-10,5.16-10,5.16l-4.44,3.84a4.21,4.21,0,0,0-1.56,3c0,1.8-.72,5.64,1.92,7.08s5.64-1.92,10.2,0,7.56,7.44,6.24,11.88-5.28,7.8-5.4,13.92.24,10.44,3.84,10.44,1.08-2.64,13-2.52,14.52,2.64,14.52,2.64,4,2.52.72-7.44a105.22,105.22,0,0,1-4.2-17.88l-.84-9.24-3-8.76L447.75,81Z"/>
<path class="cls-12" d="M415.65,110.41a29.73,29.73,0,0,1-8.82,5.22c-4.5,1.44-14,1.08-2.52,33.3A31.35,31.35,0,0,1,416.37,168s12.54,6.3,10.86,17.46c0,0,4.08-9.9-7.08-19.08C420.15,166.39,405.39,147.31,415.65,110.41Z"/>
<path class="cls-13" d="M348.53,159.33s-4,7.07,4.74,11.7,16.56-1.95,22.25,8.29.71,17.3,11.83,28.75S411,234.64,411,234.64l2.72,2,5.33-4.63-19.65-21.69-3.55-11.46-5-15.11-6-7.35s-10.49-2.54-11.79-3.84c-1.66-1.95-23.2-.75-24.38-22.68"/>
<path class="cls-14" d="M343,172.27s-1.44,4.56,13,19.44,29.76,19,35.28,26.64l5.52,7.68-44.64-25.44-33.48-1.44.36-18Z"/>
<path class="cls-15" d="M458,193a9.33,9.33,0,0,1,3.26-2.77c1.9-.83,2.17,0,3.93-1.55s2.43-1.55,3.92-.95l1.49.59s-.14,5.86-2.3,5.86-6-.24-6-.24L458,193"/>
<path class="cls-16" d="M469.89,201.67a18.2,18.2,0,0,1-9.72-4c-4.23-3.69-2.76-5-2.76-5s.46-.63,2.3.27a27.16,27.16,0,0,0,3.94,1.5s5.14,1.05,5.79,1.92S469.89,201.67,469.89,201.67Z"/>
<path class="cls-17" d="M458.13,193.33s3.27-2.59,6.26-2.31c0,0-.18-1,1.87-1.37a6,6,0,0,1,3.84.68s.28,3-1.22,3.55c0,0-6,.13-6.86.27A17.59,17.59,0,0,1,458.13,193.33Z"/>
<path class="cls-18" d="M461.84,193.91a8.24,8.24,0,0,0,2.15-.16,14.83,14.83,0,0,0,4-.3c.3-.1-.17,0,1.23-.44s-.51,1.62-.87,1.76C466.2,195.6,463.94,194.51,461.84,193.91Z"/>
<path class="cls-19" d="M461.84,193.91a23,23,0,0,0,2.29.68,19.8,19.8,0,0,0,3.48.6c.54,0,1.62.48,1.62.66a8.26,8.26,0,0,0,.48,1.2S464.84,197.44,461.84,193.91Z"/>
<path class="cls-20" d="M464.79,198.16s.27-.36,2.16,0,4,1.17,2,1.62S464.79,198.16,464.79,198.16Z"/>
<path class="cls-21" d="M440,135.34s10.08-8.67,16.56-2.79C456.51,132.55,449.8,128.81,440,135.34Z"/>
<path class="cls-6" d="M444.63,141.73s5.4,2.18,7.92,1.91l2.52-.26S448.68,147.74,444.63,141.73Z"/>
<path class="cls-10" d="M457.5,132.1s4.41,6.93,1.05,10.56-2.79,2.52-2.79,2.52S459.75,140.05,457.5,132.1Z"/>
<path class="cls-22" d="M382,177.91a5.72,5.72,0,0,0,7.92.72c4.68-3.24,4-2.88,3.6-13s-1.44-14.76-4.68-17.28-6.48-3.6-6.48-6.48-2.88,3.6-9.72-4-10.44-10.8-14-8.28S351,140.47,351,147.31v6.84l-11.16-17.28,14-19.44,16.2,10.8,15.84.36,8.64,14.76,4,17.28,3.24,15.48L393.51,184S384.51,186.19,382,177.91Z"/>
<path class="cls-23" d="M453.39,142.15a11.91,11.91,0,0,1-4.62-1.89l-4.62-3S449.28,144.13,453.39,142.15Z"/>
<path class="cls-3" d="M359.91,130.63s8.79-2.61,10.87,11.14c0,0-4.87,4.22-5.65,4s-5.64-9.78,1.68-11.52A7.54,7.54,0,0,0,359.91,130.63Z"/>
<path class="cls-24" d="M368.31,131.83s-10.08-8.46-13.14,1.62C355.17,133.45,356.79,118.33,368.31,131.83Z"/>
<path class="cls-25" d="M367,136.87a7.2,7.2,0,0,0-1.2,8.64s-5.52,3-3.36,6.84,3,6.36,3.84,3.12,0-3.12,1.56-6S371.91,141.55,367,136.87Z"/>
<path class="cls-26" d="M375.39,145.15s4.08-1,4.08,3.12-1,7.44,1.44,10.56,1.44,6.72-.72,7,3.12-5.52-3.36-9.84C376.83,156,375.15,154.51,375.39,145.15Z"/>
<path class="cls-24" d="M351.75,135.79s-2.7,2.52-1.44,9.9a60.55,60.55,0,0,0,4,13.32S344.37,150,351.75,135.79Z"/>
<path class="cls-24" d="M365.49,168.82a10.19,10.19,0,0,0,2-.12c1.38-.18,1.05-.39,2.19.12s3.75,1.41,5.7,1,3.84-.63,2.91.72-4,.54-5.79.3A66.53,66.53,0,0,1,365.49,168.82Z"/>
<path class="cls-24" d="M377,148.39s-1,1,0,3.36a10.91,10.91,0,0,1,1,3.48S380.31,150.79,377,148.39Z"/>
<path class="cls-24" d="M366.75,140.11s-1.32-.48-.6,2.4-1.08,3.36-1.56,6.12a19,19,0,0,0,.12,5.88S369.15,147.31,366.75,140.11Z"/>
<path class="cls-27" d="M456.32,133.36a8.54,8.54,0,0,0-3.34.51c-1.11,1.42-.05,7.21.17,8.35h.11l.13.06a8.69,8.69,0,0,0,2.26-2.91C457.05,136.89,456.32,133.36,456.32,133.36Z"/>
<ellipse class="cls-28" cx="454.79" cy="136.9" rx="0.37" ry="0.54"/>
<ellipse class="cls-28" cx="455.02" cy="135.86" rx="0.11" ry="0.12"/>
<path class="cls-29" d="M453.06,138.36s.35,2.76,1,2.43a3,3,0,0,0,1.64-1.57c.39-.91.34-.91.34-.91S454.05,141.22,453.06,138.36Z"/>
<path class="cls-30" d="M453.54,139.6a.81.81,0,0,0,.77.33c.48-.09,0,.38,0,.38S453.58,140.74,453.54,139.6Z"/>
<path class="cls-31" d="M370.05,130.87s-8.94-11.46-16.26-5.16S348.33,143,348.33,143l.42,10a28.48,28.48,0,0,0,10.68,15.18l6,2.76s7.92,1.62,8.82,2a32.49,32.49,0,0,0,5.1,1.92c2.52.72,3.84,1.68,4.68,1.2s2.28-.48,2.28-2.16-1.8-5.64-7.08-5.76-11.4-2.88-11.4-2.88L362,162.67s-13.56-10.32-9-24.48c0,0,1.44-8,4.92-8.28s8.28,1.68,8.28,1.68,3.72,4.68,5.88,5.4a20.32,20.32,0,0,0,5.28.72S370.29,132.43,370.05,130.87Z"/>
<path class="cls-32" d="M366.81,134.29s-9.66-10.38-12.9.06h0c-3.24,10.44-3.6,24.12,12.24,30.24,0,0-19.8-10.8-9.72-29.88C356.43,134.71,355.23,127,366.81,134.29Z"/>
<path class="cls-32" d="M349.59,155.59s2.88,11.52,19.44,15.84c0,0-14.4-5.4-19.44-15.84"/>
<path class="cls-32" d="M365.25,142.45s1.08-10.26,4-2.16-1.08,12.06-1.08,12.06-1.62,9.36-4,3.24-.72-7.74-.72-7.74-2.16,3.6,2,7.92c0,0,1.44,2.7,2.16-4.32,0,0,4.14-4.86,1.08-10.26C368.67,141.19,367.41,133.45,365.25,142.45Z"/>
</g>
<g id="clothes">
<path class="cls-33" d="M318.51,194.11l.12,5,33.48,1.44s52.12,28.56,62.3,36,15,10.32,15,10.32,5.28.48,12.24,1,25,4.56,30.72,6.24,5.52,2.4,15.84,8.88,16.32,21.12,16.32,21.12,8.4,5.52,9.36,9.6S515.79,304,515.79,304s5.52,6,8.16,11.28,7.92,9.84,7.92,9.84,11.52-1.68,13,6.24c0,0,15.51-7.64,21.52,9.14.11.31.22.62.32.94,0,0,10.08,11.76,16.08,14.4s29.28,11.52,28.08,27.36c0,0,16.56,7.2,19,9.12s16.56,2.88,16.56,2.88l28.32,3.36s19.44,2.16,6.48,34.56-15.12,41-15.12,41-21.6,13-34.56,4.32-15.12,2.16-32.4-8.64-19.44,23.76-51.84-17.28l-35.64-33.48L514.83,472l4.32,60.48,5.4,71.28,10.8,90.72,7.56,32.4s-8.64,1.08-15.12-1.08-45.36,0-45.36,0l-142.56-3.24-95,4.32h-5.4s-20.52-144.72-25.92-169.56-6.48-29.16-6.48-40,6.48,24.84-3.24-31.32l-9.72-56.16-14-15.12-11.88-14a352,352,0,0,1,0-51.84c.45-5.69.53-11.05.44-16.05,0-1-.05-1.95-.07-2.91-.52-17.29-2.51-30.2,3.95-38.28,8.64-10.8,7.56-18.36,35.64-31.32s54-27,54-27,20.52-22.68,24.84-22.68,13-13,13-13Z"/>
<path class="cls-34" d="M266.43,229s1.44,2.16,9.36-2.52,7.2-6.12,14-7.56,25.56-1.44,25.56-1.44L368,229.39s-17.64.36-23.76,1.44-10.08-10.08-29.52-6.12-32.4,1.08-32.4,1.08l-20.16,7.56Z"/>
<path class="cls-34" d="M365.55,227.71l63.84,19.2Z"/>
<path class="cls-34" d="M175.47,283.87s6.24-9.12,14.4-7.68,7.2,1,15.84-2.4,19.2-3.36,19.2-3.36,0-2.88,13.44-2.88,21.12,4.32,25.44,2.88,3.84-1.92,13-1.44,11.52,3.84,18.72,3.84,9.6,0,21.12,1.44,34.56,3.84,34.56,3.84l29.28,3.36s37.92,6.72,51.84,11.52a116.52,116.52,0,0,0,25.44,5.76h7.2s-11.52,4.32-33.12-3.36c0,0-40.32-13-50.88-12l-29.28-2.88-36-3.36L296,274.75s-13-2.4-16.8-1.92-5.76-2.88-14.4-.48c0,0-20.16-2.88-25.44-2.88,0,0-8.64-2.4-13.92,3.36,0,0-12.48,0-19.68,3.36,0,0-9.6,4.32-15.36,2.88C190.35,279.07,182.67,276.67,175.47,283.87Z"/>
<path class="cls-34" d="M480.75,259.39s-16.32-4.32-22.56,72.48c0,0-5.76,58.56-2.4,68.16s3.84,8.16,3.84,8.16C449.31,406.72,470.43,257.92,480.75,259.39Z"/>
<path class="cls-35" d="M187.47,414.91l-16.32-80.64Z"/>
<path class="cls-36" d="M168.52,330l18,87.84Z"/>
<path class="cls-36" d="M460.11,415.39a111.42,111.42,0,0,1,4.32,39.36c-1.44,22.56,7.68,39.36,7.68,58.56s13.44,109.92,14.88,119,6.24,24,9.12,31.68,11.52,32.16,11.52,32.16l1.92,13.44"/>
<path class="cls-36" d="M453.87,403.39a29.63,29.63,0,0,1-28.8,1.44c-15.84-7.68-34.56-19.2-56.64-19.2H346.35s33.6,9.6,60.48,18.24S443.31,413,453.87,403.39Z"/>
<path class="cls-36" d="M459.15,412l-21.6,30.24S458.67,421.15,459.15,412Z"/>
<path class="cls-36" d="M462,430.27s-16.32,52.32-33.6,78.72-23.52,33.6-23.52,33.6S464,496.51,462,430.27Z"/>
<path class="cls-36" d="M420.75,475.87s-121,85.44-107.52-59.52C313.23,416.35,306,530.11,420.75,475.87Z"/>
<path class="cls-36" d="M460.11,355.87c-5.43-4.56,3.36,6.24,3.36,6.24h0s8.64,4.8,13.44,7.68,12.48,3.84,12.48,3.84.48,13,.48,18.72,12.48,12,18.24,13.92S525.87,414,525.87,414s-35.52-10.08-34.08-20.64a80.94,80.94,0,0,0-.48-21.6S481.23,373.63,460.11,355.87Z"/>
<path class="cls-37" d="M473.07,289.63s9.12-8.64,18.72,11,9.12,29.76,22.56,35,26.4-2.88,13.92,9.6-26.88,35-4.32,29.76,39.36-20.16,35-4.8-46.08,32.64-24.48,26.88,30.72-35.52,38.4-16.32,1.44,71.52,6.24,54.72,12.48-59,23-59,1.92,19.68,1.92,37.92,1,36.48,13,30.72,4.32-33.6,4.32-33.6,8.64,27.36,7.68,14.88,7.68,28.32,7.68,28.32,5.28-.48,13.92-11,8.64-19.2,8.64-19.2l-32.64-13s5.76-2.4,19.2,3.36,5.76-10.08,5.76-10.08l-5.28-9.6s-25.44-2.88-35.52-12c0,0,11.52-7.68-31.2-31.2l-13-10.56s-1.44-18.24-21.84-10.08c0,0-1.2-8.16-16.56-7.2L515.79,304s.48-16.32-11.28-19.92c0,0-15.6-31-23.76-24.72,0,0-11,21.6-11,27.36S473.07,289.63,473.07,289.63Z"/>
<path class="cls-37" d="M507.27,412.63s2.16,5.4-15.12,9.72-20.52,4.32-20.52,4.32l8.64,138.24L487,632.35s31.08,76.2,25.68,82.68,27,6.48,27,6.48Z"/>
<path class="cls-37" d="M282.27,225.79a22,22,0,0,1,8.4,1c4.8,1.44,38.4-9.6,49.44,4.32L368,229.39l61.44,17.52s42.72,10.08,40.8,17.28S462,296.83,462,296.83s-17.28,1.44-53.76-11l-62.4-9.6-59-4.8a28.77,28.77,0,0,0-25.44,0s-21.6-9.12-36.48-1c0,0-17.28-1.44-27.36,6.24l-15.84-1s27.36-16.8,43.2-24,37.2-18.36,37.2-18.36Z"/>
<path class="cls-38" d="M513.75,442.87,538.59,445s13,29.16,32.4,25.92,33.48,0,42.12,0,27,11.88,27,11.88l-124.2,1.08Z"/>
<path class="cls-38" d="M52.59,451.51l145-4.32,6.24,38.88L51.51,483.91S40.71,455.83,52.59,451.51Z"/>
<path class="cls-38" d="M520.23,536.83l121,4.32,1.08,30.24s-115-1.92-116.64-2.16S520.23,536.83,520.23,536.83Z"/>
<path class="cls-39" d="M561.27,570.31l6.48,167.4Z"/>
<path class="cls-39" d="M626.07,573.55l6.48,164.16Z"/>
<path class="cls-38" d="M207.15,535.39l-155-.48s-4.32,1.44-1,16.32l3.36,14.88,159.84-2.4-5.28-28.32"/>
<path class="cls-39" d="M181.11,563.83l3.24,158.76Z"/>
<path class="cls-39" d="M73.11,559.51,68.79,723.67Z"/>
<path class="cls-40" d="M122.79,560.59v0Z"/>
</g>
<g id="hairs">
<path class="cls-41" d="M469.28,62.14C466.83,55,463.83,47.46,457.71,43c-7.54-5.49-17.84-4.94-27-3.11a9,9,0,0,1,11.51-4,12.4,12.4,0,0,0-15,2.87,20.3,20.3,0,0,0-16.92-4c.93-2.33-.64-5.31-2.72-7-3.14-2.54-6.8-3.16-10.71-3-2.56.11-2.14.32-3.5-1.87a22.7,22.7,0,0,0-3.67-5,23,23,0,0,0-13.12-5.64,58.5,58.5,0,0,0-14.47.53c-2.78.36-5.63.79-8.05,2.21a8.57,8.57,0,0,0-3.69,4.17C349,22.79,346.58,22,343.08,22a30.64,30.64,0,0,0-16.66,4.73c-8.84,5.53-15.37,14.08-20.5,23a145.82,145.82,0,0,0-7.05,14.23c-1.88,4.32-4.5,8.62-5.48,13.27s-.49,9.8-.53,14.49c-.05,7,.08,14,.69,20.91a84.65,84.65,0,0,0,4.5,19.82,113.88,113.88,0,0,1,5.28,26.1l5,18.13,4.08,11.81,3.7.51c-.54-1.06,1.14-1.81,2.33-1.78,4.37.11,8.8.92,13.05-.08,4-.94,7.86-4.19,8-8.18l.13,0c.43,0,.75-.37,1-.73a49.53,49.53,0,0,0,8.12-28.11c-.1-4.24-.73-8.49-.18-12.7s2.56-8.52,6.34-10.43c4.94-2.5,11.08-.06,15.14,3.69,2.17,2,4.09,4.41,6.82,5.51s6.62,0,7.19-2.84l.45,8.08,2.67-2a79.51,79.51,0,0,0,11.61,19.63c-1.52-3.39,1.7-7.05,1.74-10.76,0-2-.86-3.8-1.58-5.63A35.66,35.66,0,0,1,397,123.92c.72-4.27,2.63-8.86,6.63-10.55,1.59-.68,3.36-.81,5-1.35,4.91-1.59,8.23-6.47,12.56-9.06L417,104.64l8.35-7.54a38.17,38.17,0,0,1-9.87,6.27c-.32.14-.19-4.13-.17-4.37.08-1.11-.8-.89-1.53-1.3a6.07,6.07,0,0,1,1.92-11.41c2.39-.35,4.79.72,7.19.54,4.79-.37,7.56-5.18,9.33-9.83-2.53,5.7-9.68,9.11-15.66,7.08a22,22,0,0,1,36.19-6.2c4.35,4.64,6.5,10.93,10.45,15.91a8.66,8.66,0,0,0,1.2-8.22.82.82,0,0,0,1.24-.34c.2-.62-.17-1.26-.37-1.89a4.6,4.6,0,0,1,.8-4c1.09-1.71,2.83-3.34,3.81-5.13C471.86,70.6,470.63,66.08,469.28,62.14Z"/>
<path class="cls-42" d="M439.23,69.19a6.67,6.67,0,0,0-7.44-.84c-4.56,2-12.72,8.16-12.72,8.16S434.67,61.39,439.23,69.19Z"/>
<path class="cls-43" d="M429.25,60.42c-3.65-5.38-12.66-7.77-18.76-7.57a25.26,25.26,0,0,0-17.72,8.07c-4.44,5-5.13,11.81-5.63,18.19-.46,5.86-1,12.84-5.26,17.36,3.89-4,7.32-8.53,8.17-14.26.91-6.1-1-12.63,2.23-18.31,2.43-4.33,7.32-6.75,12.17-7.79A32.86,32.86,0,0,1,417.37,56a28.64,28.64,0,0,1,6,1.91C424.92,58.57,427.67,60.59,429.25,60.42Z"/>
<path class="cls-43" d="M401.79,53.53s-18-4.14-20.88,2.16.72,19.8-1.62,24.66L377,85.21l3.42-5s.9-9.9,1.44-22.68C381.81,57.49,383.79,50.29,401.79,53.53Z"/>
<path class="cls-43" d="M409.17,52.09s-8.82-5.58-15.48-3.24-7.56,2.52-7.56,2.52S399.09,46.87,409.17,52.09Z"/>
<path class="cls-43" d="M434.79,64.87s-3.48-3.36-12.24,1.2-10.8,7.2-16.44,8.28l-5.64,1.08s9.36,2.28,22.56-8C423,67.39,430.23,62.71,434.79,64.87Z"/>
<path class="cls-43" d="M419.19,60.79s-11.16-2-9.24-1,2.4,4.08,2.4,4.08.48,2.76-7.92,1.2c0,0,4.8,1.32,3.24,3.72s-7.92,2.52-7.92,2.52l6.72,1.44s3.24-1.08-1.32,1.68l-4.56,2.76s5.88,0,7.92-3a12.71,12.71,0,0,1,4.68-4.2l1-.6L408.39,67l9.12.24S412.59,64,415,64h2.4s-2-1.2.24-1.32,1.92.24,4.44-.72l2.52-1Z"/>
<path class="cls-43" d="M313.05,52.45s-14.76,12.6-14.94,29.16,12.78,42.66,8.28,52.56l-4.5,9.9,5.58-9.54s2.52-4.68,1.8-9.36c0,0-12.24-41.4-9.72-43C299.55,82.15,298.11,70.09,313.05,52.45Z"/>
<path class="cls-43" d="M317.89,61.52c-.18.46-.36.93-.53,1.4-1.06,3-1.92,6-2.78,9-2.43,9.74-5.16,19.68-8.34,29.18.32-.13.26-.33.38-.6,1.88-4.09,3.19-9.88,6.36-13.14.31,4.19-.9,8.38-1.92,12.39s-1.62,8.22-2.4,12.31L318,80.35c-1.95,6.17-2.15,13.53-3.16,19.91L311.74,120c-.07.39-.13.78-.19,1.18l9.84-33.36a40.15,40.15,0,0,0-.76,6.3L319,107.92l-3.82,31.71,13.2-54L320.67,131l10.8-40.8L330,108q4.43-15.54,8.78-31.09l-3.5,28.47L345.46,91c3.25-4.57,6.3-10.46,10.31-14.35.34,4.85-1.81,10.68-3.49,15.18A83.39,83.39,0,0,1,345,106.49a162.6,162.6,0,0,1-19.7,25.35c2.53-2.52,6.67-4.35,9.67-6.31a85.31,85.31,0,0,0,8.73-6.23,41.84,41.84,0,0,0,11.72-15.65c1.64-4,2.27-8.24,3-12.44.65-3.62,1.2-9.51,3.88-12.24,3.2,2.51,1.19,9.59.55,12.87-1.34,6.86-4.22,13.29-7.43,19.47-12.72,24.48-18,21.84-18,21.84s20.16-1,27.36-27.12c2.23-8.12,3.28-16.29,4.71-24.55a59,59,0,0,1,4.3-13.71c1.84-4.18,5.24-8.38,6.57-12.61-4.35,4-10.36,9.93-11,16.06-.05.42-.09.84-.17,1.25a56.86,56.86,0,0,1,2.93-16.4c.75-2.24,2.65-3.48,3.48-5.35-2.06.19-3.77,2-4.85,3.63-.46.69-1.67,5-2.41,4.85-.3-.06-.49-.36-.64-.64a24,24,0,0,1-1.94-5.09v5c0-.44-2.23-2.41-2.59-2.93a15.39,15.39,0,0,1-2-4.18c-.64-2.14-.3-4.2-.18-6.37a3.26,3.26,0,0,0-.89-2.71,4,4,0,0,0-2.94-.53c-2.58.23-5.26.63-7.4,2.09s-2.75,3.57-3,6a44.65,44.65,0,0,1-2.69-6A5.88,5.88,0,0,0,341,48.46a14.41,14.41,0,0,0,.68,5.78A29,29,0,0,1,343,59.88c-2.8-3.09-7.18-9.18-5.49-13.61a2.25,2.25,0,0,0,.21-1.29c-2.35.54-3.6,5.58-4,7.62a18.63,18.63,0,0,0-.11,6.32c.25,1.65,1.72,3.92,1.5,5.54-.24,1.78-1.08,1.45-2.42.47-4.15-3-7.36-10-6.22-15.05.71-3.21,1.42-6.42,2.16-9.62-1.08,3.62-3.87,7.08-5.65,10.42A96.91,96.91,0,0,0,317.89,61.52Z"/>
<path class="cls-43" d="M417.63,49.39s-4.68-11.52-14-9.72-22.32,6.48-22.32,6.48S410.79,33.19,417.63,49.39Z"/>
<path class="cls-43" d="M393.51,34.63S378.39,23.83,378,45.43C378,45.43,381.63,27.79,393.51,34.63Z"/>
<path class="cls-43" d="M350,24.94c0-.54-.65-.91-2.22-1.25a24.08,24.08,0,0,0-5.23-.4,25.73,25.73,0,0,0-9.29,1.82c-8.63,3.41-13.27,10.57-19.68,16.72,0,0,8.64-8.28,11.16-9.36s5-4.32,12.24-4l7.2.36c-3.22-.16-5.79-.48-9,.56C329.91,31.1,325,34.56,321,38.28a13.84,13.84,0,0,0-2.62,3c-2.7,4.56-3.73,9.91-5.41,14.88,2.82-3.53,4.77-7.86,7.57-11.48a40.85,40.85,0,0,1,10-9.53c3.6-2.32,7.72-3.6,11.86-2-5.9,1.91-13,6.84-13,13.68,0,3,0,6,0,8.93A19,19,0,0,1,333.21,43c2.32-3,5.5-5.31,8.29-7.93a82.51,82.51,0,0,0,6.87-7.6C349.34,26.3,350,25.52,350,24.94Z"/>
<path class="cls-43" d="M434.43,61.39s-5.76-12-5.52-16.8l.24-4.8S431.07,54.91,434.43,61.39Z"/>
<path class="cls-43" d="M429.87,58.27s-8.16-13.44-7.2-16.8l1-3.36S424.11,49.87,429.87,58.27Z"/>
<path class="cls-43" d="M445,69.55s2.16-27.84,19.68-3.84C464.67,65.71,449.79,45.31,445,69.55Z"/>
<path class="cls-44" d="M379.65,25.45s-3.6-1.8-5.58,5.76l-2,7.56S369.93,24.55,379.65,25.45Z"/>
<path class="cls-44" d="M329.25,45.43l-.55,1.07c-2.67,5.25-14.21,28.32-14.21,34.21v6.66s-.36-4.68,3.06-11.16L321,69.73s-.18,11.34-2,17.82L317.19,94S324.21,82,323,75l-1.26-7s8.46,10.26,5.4,19.62L324,96.91a28.67,28.67,0,0,0,2.88-27.36,36,36,0,0,1,5.4,23.58s-1.44-14.4,5-19.08l6.48-4.68-4.32,22.14s-3.6-1.8,7.74-14.76S360.75,73.15,357,87s-17.28,30.6-17.28,30.6l-6.12,5.4,8.1-5.94s13.5-18.36,16.74-29.52a40.31,40.31,0,0,1,9.9-17.28S366,110.05,355,120.49l-11,10.44S369.39,119.59,370.83,71c0,0-5-14.76.72-24.48l5.76-9.72s-10.44,13.32-11.88,23L364,69.55s-5-12.6-1.08-18l4-5.4s-8.64,5.76-8.64,11.16,0-19.44,5.76-22l5.76-2.52s-8.28-4.32-13,9.36l-4.68,13.68s-5.76-9.72,4.32-20.88,9-13.68,19.44-13l10.44.72s-27-11.52-39.24,22.32c0,0-8.64-10.8,1.8-18.72l10.44-7.92s-14,.72-18.36,24.84l-6.84,16.56,5-24.48-5.4,11.16.72-7.2"/>
<path class="cls-44" d="M412.68,106s-9.72,2.52-14.4,8.28-4,21.6-4,21.6l1.8,4.32,2.28,5.28a2.6,2.6,0,0,1-.36,2.76c-1.08,1.56-.22,5.36-.22,5.36h0c-.72-3.48-5.9-8.72-7.1-10.16a32.12,32.12,0,0,1-2.64-4.08s-1.2-.6-1.8-1a3.24,3.24,0,0,1-1.68-3.12c0-2,2.76-6.84-.72-3.36s-15.36-4.68-15.36-4.68-7.08-4.32-11.52-2.4-4.56,2.4-4.56,2.4a17.58,17.58,0,0,0,6.12-4.68c2.28-3,9.72-15.6,9.72-15.6s5.88-10.68,5.88-16.68v-6s3.48,1,1.68,9.84,5-2.76,9.72-19.2.84-16.56,7-18.84l6.12-2.28s-9.72,5.76-12.12,22c0,0-1.92,16.44-8.4,22.8,0,0,1.8,4.08,6.36-1.92s6.12-5.16,7-13.68-1.56-11.52,4.08-15.84l5.64-4.32s-9,6.6-8.88,20.88c0,0,1.2,10.2-2.76,14.28l-4,4.08s6-1.44,9.24-3.72-.84.72,6-6.12,12.24-8,12.24-8S403.8,90,401.4,92.68s-6.12,7.2-6.12,7.2A8.87,8.87,0,0,0,405,95.44l3.72-6.12s.84,4.44-4.92,10.08L398,105s4.56-7.32,9.6-7.32h5s-6.36,1.56-10.44,6l-4.08,4.44s8-5.76,12.48-5.4,4.81.61,4.81.61a17.68,17.68,0,0,0-12,3.59l-6,4.44S410.28,103.24,412.68,106Z"/>
<path class="cls-44" d="M311.07,130.93l-8.14,14.82-.86,1.56V150l1.62-2.16a11.16,11.16,0,0,0-.72,3.6v1.8l1.62-3.6s-2,4-1.26,7.2l.72,3.24,1.08-6.66-.27,6.82-.09,2.18.54,4.32,1.44-3.42v5.4l.9-3.24-.72,7.2,1.8-3.24-.72,5.22,1.26-2-1,4.24,2.1-2.8a29.51,29.51,0,0,0-.72,4.32,3.57,3.57,0,0,0,1.08,2.34c.36.54.36,3.78.36,3.78l.9-1.26v3.06l1.44-1.26-.18,3.78a2.12,2.12,0,0,1,2.16-2.16c2.16,0,8.82,0,13.86-3.24a31.58,31.58,0,0,0,10.44-12.06c1.62-3.42,4.5-7.38,5.22-16s-.9-13.68,2.52-20.16,6.3-8.46,6.3-8.46-7.2,5-8.46,7.92-2.52,2.88-2.52,2.88-2.88-1.62,1.26-6.66l4.14-5s-6.48,4.14-7.92,8.1,1.8,10.62-.36,18.72a98,98,0,0,1-4.68,13.68s3.24-6.3,3.24-10.26,1.26-14.94-1.62-16.92l-2.88-2s6.48,16.38,0,27c0,0,6.48-20.88-9.18-25,0,0,9.18,6.84,3.6,12.42a13.86,13.86,0,0,1-5.58-13.5L324,129s-5,5.22-4.5,9.54-5,9.72-5,9.72-.18-14.22-.18-14.76-1.62,6.84-1.62,6.84Z"/>
<path class="cls-44" d="M457.11,82.51s1.32-1.2,1.56,1.08l.24,2.28.6-3.48s3.36-2,2.76,1.56-.6,2.64-.6,2.64-2.4-.6-1.44,1.68A34.12,34.12,0,0,0,463,93.19a4.2,4.2,0,0,0,1-3.12c-.24-1.8-1.08-5.28-.24-5.28s.48-.48.48-2,1.68-4.2,1.68-4.2,10.44-10.44-1.56-22.8c0,0,10.08,9.72,1.2,22.2,0,0-1.32-1.92-.84-2.76s2.16-.6,2-2.28-1.08-3.72-.6-4.92,1.92-4.68-1.56-9l-3.48-4.32s7.2,9.24,4.2,12.72c0,0,.36,2.64.6,4.2a1.91,1.91,0,0,1-1.68,2.4c-.84,0-3.6,0-3.6.72s-2.16,4.08-1.32-1.56a4.87,4.87,0,0,1,2.88-1.8l2.16-.6s-3.72-.12-6.12,2L455.79,75s1.56-2.64,1.08-3.6-1.44-.24-1.44-.24V66.67s-2.64-1.92-1.08,4.2c0,0-2.88.6-2.28-3.48a11.29,11.29,0,0,0,.84,6.24,9.74,9.74,0,0,1,1.2,4.92s.12-1.08-2.16-3.6-4.44-3.36-4.32-5.4-.12-2.28-.12-4.44-1.08.72-1.32,3.24-1.2,1.8,1.8,4.56,9.48,10.2,9.48,10.2"/>
<path class="cls-44" d="M441,68.56a73.16,73.16,0,0,0-4.59-11.34c-1.13-2.07-2-3.6-2.48-4.86a6,6,0,0,1-.58-3.78,13,13,0,0,1,4.05-6.75,19.94,19.94,0,0,1,4.05-3.06s-1.35.9-3.69,4.41a8.66,8.66,0,0,0-1.53,6.57s4.14-10.8,8.28-10.17c0,0-6.3,3.51-6.93,9.45,0,0,9.54-19.53,23.58,0,0,0,1.71,2.07,2.43,2.25l.72.18-1.53.27v1.35s-.27-2.07-1.71-2.34-2.43,1.08-4.23-.45-.36-3.33-1.8-4.68a56.7,56.7,0,0,0-4.5-3.51,6.16,6.16,0,0,0,2.34,3.69L455,47.41a46,46,0,0,0-5.76-4.32,9.52,9.52,0,0,0-3.78-.9s-.81,0-.54,1.44a1.15,1.15,0,0,1-1,1.53s-.63,2.16-1.35,1.62c0,0,.54,2.52,1.44,1.44a2.78,2.78,0,0,0,.81-1.89l.81,1.44.45-2.16L447.69,48s-.27-2.25.54-2.25.81,2.07.81,2.07,1.62,1.8.45,2.52,1,1.26-.09,3.33-1.8,2.7-1.8,4.59-1.17,2.61-2.52,7.38a32.67,32.67,0,0,1-1.71,5.31l-1.08-2.7s0,4.23-.9,3.15-2.61-3.6-2.61-3.6-3.33-2.7-2.25-2.7-.36-1.17-.81-2.7.36-10.89.36-10.89"/>
<path class="cls-43" d="M442.58,67.58a41.72,41.72,0,0,1-.74-9.08c.28-5.44,3.38-10.25,9.86-8a10.15,10.15,0,0,1,2.7,1.65c2.7,2.08,5.23,4.4,8.12,6.21-3.49-2.81-7.5-5.83-12.17-6a7,7,0,0,0-4.12,1,7.49,7.49,0,0,0-2.75,3.86C442.28,60.59,442.47,64.11,442.58,67.58Z"/>
<path class="cls-43" d="M440,68.35s-5.76-11.76-1.44-18.48S450.27,41,457,47.71l6.72,6.72s-15.84-19-23.52-4.08C440.19,50.35,436.35,55.87,440,68.35Z"/>
<path class="cls-45" d="M459.86,189.8l.84-.6a2.1,2.1,0,0,0,1.68-1.92v-1.56l1.32,1.08s.72.24.72-.84v-1.08l.72.48s.24-.84.6-.84,1,1.32,1,1.32l.12,1a15.84,15.84,0,0,1,.36-1.56c.16-.59.33-1.47.42-1.94,0,.34.23.94,1.26,1.82,1.68,1.44,2.28.84,2.28.84a9.65,9.65,0,0,0-2.76-5.4,8.81,8.81,0,0,0-4.36-2,1.19,1.19,0,0,1,1,1.42c-.12,1.44-2-.72-2-.72v1.32l-1.8-.36V181H458.9l-.84.12-.24,4.32H457s1,1.2.6,2.16a33.84,33.84,0,0,1-2.52,4s-.84-.6-1.32,1.44-1,5.28-2.16,5.28a5.66,5.66,0,0,1-1.08,5.76,14.85,14.85,0,0,0-3.72,5.76,6.7,6.7,0,0,1-1.32,2.52,3.11,3.11,0,0,1-.6-3.12c.07-.17.15-.34.24-.52a2.43,2.43,0,0,1-1.44.64c-2.28.12-3-1.44-4.44-1.44a8.79,8.79,0,0,1-2.52-.36s-1.2-.12,0-2.16c.75-1.28,1.7-2.71,2.29-3.59-.56.63-1.44,1.07-2.17-.85-1.2-3.12-1.56.72-3.24-2.4a10.49,10.49,0,0,0-4.2-4.32l.12-4.56s-4.08-1.32-4.68-3.36,3.84-1.8-3.12-10.56c0,0-7.8-3.84-8-5.88s.12-5.4-1-8.16L411.62,159l-1.56,1.2s.36-4-.36-4.08L409,156l-.36,2.52-1.56-1.92s.84,4.08,0,3.36-1.08,1.44-1.32-1.2-6.24-3.44-7.92-5.12h0c-.1.45.16-.43,0,0-.11.28.11-.27,0,0s.05-.11,0,0h0c-.19.45.14-.47,0,0-.08.26,0-.26,0,0h0c0-.09,0-.12,0,0s0-.14,0,0c0,.53.54,0,0,0s.37.25,0,0,.23.24,0,0-.23.38,0,0c-.4-.28.18.45,0,0h0s-4.2,2.84-2.88,6,1.44,3.12,1.44,5.16-.36,2,1.32,4.44,2.76,4.2,1.08,5.28,1,1.2-2,4-5,3.84-9.24,4.08-3.48.36-3.48.36,5,1.56,5.4,4-.48,3.48-1.56,3.48,1.92,1.08,1.32,3.48,1.32,3.48.36,5.4c0,0,2.4,1.56,2.76,3.72s.72,3.48,3,6.6,2.28,1.92,2.28,1.92,1.56,5.4,3.72,6.6,4.44,2.64,5.76,2.64-1.8.36-1.8.36l5.52,2.76-4,.72,7.08,2.76-3.72-.48,3.84,2-3.12-.6,6.48,3.48-3.12-.48s2.76.48,3,2a10.09,10.09,0,0,0,2.76,5c1.44,1.44,2,.36,1.44,1.44l-.6,1.08,2.52.48s.84,0,1.68,1.2.84,1.56.84,1.56,1.32-1.44,1-2.28l-.36-.84s1.92.24,1.92,1.92v1.68s.6-1.32,2.88-1.32h4.2c2.16,0,2.76.48,2.76.48s.84-.6,1.2-.36a4.82,4.82,0,0,0,1.8.36c.36,0,.84,1.2.84,1.2s1.8-1.92,3-1.44-.6,1.68-.6,1.68a3.59,3.59,0,0,0,1.92-.36c.84-.48,1.32-1.08,2.28-1.2s2.76-.12,2.76-.12-.29.34-.68.74c.7-.31,1.39-.62,1.88-.86,1.44-.72,4.08-1.8,4.08-1.8l.72-.12-1,1.2s1.44,0,2-1.92l2-.84-.84,1.32a9.58,9.58,0,0,0,2.88-3.36c.72-1.8,1.32-2.76,1.32-1.92s.12,2.4,1.2-.6,1-2.52,1-2.52v1.44s.48-.12.6-1.8.24-4.8.24-4.8l.48.72a19.14,19.14,0,0,1-.6-3.48,24.75,24.75,0,0,0-.36-3.24l1.2,1.08a7.24,7.24,0,0,1-1.68-2.52c-.24-1.08-.84-4.32-.84-4.32l.84-1.44.24,1.56.36-2.64.6,1.2.72-3.24.72-1.2.36,1.08a25.27,25.27,0,0,0,.24-2.88v-3A34.93,34.93,0,0,0,464.9,209c-1.08,1.32-3.24,4.32-3.36,5.76s-1,2.16-1.56,1a19,19,0,0,1-1.32-4.44,4.29,4.29,0,0,0-1-2.16,9.17,9.17,0,0,1-2-4.92,5.38,5.38,0,0,1,1.68-3.24v-3.12l.72-2.4s.48-1.56.84-1.56.48-.84.48-.84l-.6-.84.81-1.8Z"/>
<path class="cls-46" d="M446.91,205.51a32.68,32.68,0,0,0-2,3.44A8.62,8.62,0,0,0,446.91,205.51Z"/>
<path class="cls-47" d="M434.67,70.15s-8.88-3.24-14.28,1.32-6.6,7.2-13.08,7.8l-6.48.6s13.08.12,18.72-10.2c0,0,9.48-6.6,16.8-1.44s3.24,2.16,3.24,2.16l-2.16-.84,1.32,1.32-2.28-1.44.72,1.56L435,69.43l.72,1.56Z"/>
<path class="cls-47" d="M441.39,71.35s-.72-1.44-3.87-4-3.33-12.69-.81-16L439.23,48S436,51.55,436.53,58s5.76,9.36,7.2,11.25a5.7,5.7,0,0,1,1.44,3l-1.08-1.71.09,1.62-.9-1.71v1.44l-.63-1.26-.36.9L441.66,70Z"/>
<path class="cls-48" d="M401.07,158.74a5.79,5.79,0,0,1,1.27,2.72,11,11,0,0,1,.16,3,23.81,23.81,0,0,1-.45,2.93,12.64,12.64,0,0,1-.89,2.84c0-1,.06-2,.12-2.95s.15-1.95.22-2.9a20.76,20.76,0,0,0,.07-2.84A10.8,10.8,0,0,0,401.07,158.74Z"/>
<path class="cls-48" d="M403.41,161.62c.68,0,1.2.66,1.42,1.25a4.63,4.63,0,0,1,.28,1.9,7.14,7.14,0,0,1-1.07,3.51,12.32,12.32,0,0,1,0-1.82c0-.59.07-1.16.08-1.73a9.17,9.17,0,0,0,0-1.66A2.05,2.05,0,0,0,403.41,161.62Z"/>
<path class="cls-48" d="M405.84,168.64A5.07,5.07,0,0,1,407,170a7.43,7.43,0,0,1,.74,1.65,5.08,5.08,0,0,1-.12,3.62l-.38-1.71c-.15-.54-.28-1.08-.45-1.62C406.49,170.89,406.12,169.83,405.84,168.64Z"/>
<path class="cls-48" d="M407,161.53a23.22,23.22,0,0,1,4.35,6.37,18.29,18.29,0,0,1,1.27,3.69,10,10,0,0,1,.14,3.89,20.17,20.17,0,0,0-.89-3.68,36.32,36.32,0,0,0-1.43-3.48c-.51-1.15-1.1-2.26-1.67-3.39Z"/>
<path class="cls-48" d="M408,168.37a21.92,21.92,0,0,1,1.94,5.55,20.42,20.42,0,0,1,.38,2.93,6.32,6.32,0,0,1-.43,3,14.33,14.33,0,0,0-.34-2.86l-.59-2.82A51.46,51.46,0,0,1,408,168.37Z"/>
<path class="cls-48" d="M402.51,172.6a3.34,3.34,0,0,1,1.28,1.45,4.6,4.6,0,0,1,.49,1.93,5.33,5.33,0,0,1-.35,1.94,4.7,4.7,0,0,1-1.06,1.61c.09-.65.23-1.23.3-1.82a9.89,9.89,0,0,0,.11-1.71,8.77,8.77,0,0,0-.21-1.68A11.45,11.45,0,0,0,402.51,172.6Z"/>
<path class="cls-48" d="M401.16,174.58a6.32,6.32,0,0,1,.78,1.69,9.08,9.08,0,0,1,.37,1.81,6.92,6.92,0,0,1-.06,1.87,3.54,3.54,0,0,1-.73,1.74,14.92,14.92,0,0,0,0-1.79c0-.57-.09-1.15-.16-1.73A24.81,24.81,0,0,1,401.16,174.58Z"/>
<path class="cls-48" d="M405.3,173.41a5.48,5.48,0,0,1,1.49,1.82,6.09,6.09,0,0,1,.7,2.31,4.73,4.73,0,0,1-.4,2.41,4.4,4.4,0,0,1-1.52,1.83,10.43,10.43,0,0,0,.78-2.08,6.34,6.34,0,0,0,.15-2.08A14.56,14.56,0,0,0,405.3,173.41Z"/>
<path class="cls-48" d="M412.32,180.07a5.55,5.55,0,0,1,1.43,1.62,6.54,6.54,0,0,1,.83,2,5,5,0,0,1-.06,2.25,3.61,3.61,0,0,1-1.21,1.83,8.42,8.42,0,0,0,.45-2,8.13,8.13,0,0,0-.16-1.91,15.24,15.24,0,0,0-.55-1.91Z"/>
<path class="cls-48" d="M419.43,178.45a5.09,5.09,0,0,1,1.49,1.2,7.54,7.54,0,0,1,1.06,1.6,5.25,5.25,0,0,1,.42,3.77c-.23-.62-.39-1.18-.62-1.73s-.43-1.09-.7-1.61C420.58,180.61,420,179.6,419.43,178.45Z"/>
<path class="cls-48" d="M414.21,174.49a3.46,3.46,0,0,1,1.43,1,4.53,4.53,0,0,1,.89,1.57,4.44,4.44,0,0,1,.21,1.81,3.75,3.75,0,0,1-.55,1.69c-.1-.6-.12-1.14-.23-1.67a8.35,8.35,0,0,0-.38-1.51A15.14,15.14,0,0,0,414.21,174.49Z"/>
<path class="cls-48" d="M416.64,183.76a12.79,12.79,0,0,1,1,2.22c.11.37.25.72.36,1.1s.25.73.37,1.18a3.15,3.15,0,0,1-1.68-1.95A3.84,3.84,0,0,1,416.64,183.76Z"/>
<path class="cls-48" d="M419.16,185.38a6.72,6.72,0,0,1,1.53,1.38,9.16,9.16,0,0,1,1.14,1.74,5.74,5.74,0,0,1,.57,2.06,2.61,2.61,0,0,1-.63,2,4.13,4.13,0,0,0-.14-1.9,12.28,12.28,0,0,0-.7-1.75C420.38,187.77,419.72,186.65,419.16,185.38Z"/>
<path class="cls-48" d="M398.37,182.32a3.28,3.28,0,0,1,2.41,2.55,3.85,3.85,0,0,1-.08,1.85,5,5,0,0,1-.35.83,6.32,6.32,0,0,1-.54.71,7.49,7.49,0,0,1,.07-.86c0-.28.05-.55.05-.81a6.75,6.75,0,0,0-.12-1.51,5.4,5.4,0,0,0-.52-1.4A8.36,8.36,0,0,0,398.37,182.32Z"/>
<path class="cls-48" d="M396.12,185.38a8,8,0,0,1-.68,2,10.43,10.43,0,0,1-1.08,1.78,6.61,6.61,0,0,1-1.54,1.49,3.22,3.22,0,0,1-1,.47,2.19,2.19,0,0,1-.57,0,1.68,1.68,0,0,1-.52-.18,2.53,2.53,0,0,0,1.61-.93,18.29,18.29,0,0,0,1.24-1.5c.41-.51.79-1.06,1.21-1.58A19.25,19.25,0,0,1,396.12,185.38Z"/>
<path class="cls-48" d="M395.13,182.59a4.15,4.15,0,0,1-.22,1.57,6.52,6.52,0,0,1-.67,1.41,5.18,5.18,0,0,1-2.35,2.06,11.35,11.35,0,0,1,.73-1.35l.78-1.25A23.92,23.92,0,0,1,395.13,182.59Z"/>
<path class="cls-43" d="M397.11,188.62a4.65,4.65,0,0,1-.25,2.12,6,6,0,0,1-1,1.82,4.76,4.76,0,0,1-1.71,1.35,2.66,2.66,0,0,1-2.24.11,9.2,9.2,0,0,0,1.32-1.38l1.08-1.35c.38-.46.78-.91,1.23-1.36A9.34,9.34,0,0,1,397.11,188.62Z"/>
<path class="cls-48" d="M401.61,186.28a3.75,3.75,0,0,1,1.8,1.59,4.86,4.86,0,0,1,.68,2.38,6.25,6.25,0,0,1-.46,2.4c-.16.37-.37.72-.56,1.07a11.18,11.18,0,0,1-.74.93,11.63,11.63,0,0,1,.29-1.13l.26-1.1a10.51,10.51,0,0,0,.22-2.14A6.63,6.63,0,0,0,401.61,186.28Z"/>
<path class="cls-48" d="M425.91,190.15a7.23,7.23,0,0,1,1.15,2.09,9.79,9.79,0,0,1,.54,2.35,7.67,7.67,0,0,1-.19,2.43,5,5,0,0,1-1.14,2.13,14.56,14.56,0,0,0,.37-2.26,18.28,18.28,0,0,0,0-2.22C426.47,193.19,426.18,191.72,425.91,190.15Z"/>
<path class="cls-48" d="M429.33,195.73a6.28,6.28,0,0,1,1.5,1.5,7.34,7.34,0,0,1,1,1.89,5.33,5.33,0,0,1,.33,2.18,3.13,3.13,0,0,1-.87,2,6.09,6.09,0,0,0,.09-2,8.88,8.88,0,0,0-.49-1.85C430.48,198.23,429.87,197.05,429.33,195.73Z"/>
<path class="cls-48" d="M433.65,202.21a2.72,2.72,0,0,1,.89,1.29,3.83,3.83,0,0,1,.21,1.58,3.69,3.69,0,0,1-1.46,2.71c.08-.53.2-1,.28-1.45a10.54,10.54,0,0,0,.19-1.34,9.94,9.94,0,0,0,0-1.34C433.76,203.2,433.71,202.73,433.65,202.21Z"/>
<path class="cls-48" d="M461.55,219a3.59,3.59,0,0,1,1.6.63,4.68,4.68,0,0,1,1.25,1.22,4.11,4.11,0,0,1,.69,1.64,3.39,3.39,0,0,1-.12,1.73c-.24-.55-.39-1-.63-1.5a8,8,0,0,0-.76-1.3A22.47,22.47,0,0,0,461.55,219Z"/>
<path class="cls-48" d="M462.45,223.63a5.78,5.78,0,0,1,1.46,1.5,8.23,8.23,0,0,1,1,1.89,6.76,6.76,0,0,1,.36,2.1,4.77,4.77,0,0,1-.45,2.07c-.11-.71-.18-1.35-.33-2a15.14,15.14,0,0,0-.53-1.86C463.52,226.11,463,224.93,462.45,223.63Z"/>
<path class="cls-48" d="M462.27,226.87a8.45,8.45,0,0,1,1.33,2.24,10.37,10.37,0,0,1,.69,2.54,7.51,7.51,0,0,1-.13,2.67,4.54,4.54,0,0,1-1.35,2.27,8.93,8.93,0,0,0,.58-2.4,12.26,12.26,0,0,0-.09-2.42c-.09-.8-.27-1.61-.44-2.42Z"/>
<path class="cls-48" d="M459.39,226.15a13.88,13.88,0,0,1,2.62,4.93,9.5,9.5,0,0,1,.44,2.82,3.84,3.84,0,0,1-.9,2.69,5.39,5.39,0,0,0,.12-2.64,21.6,21.6,0,0,0-.61-2.59C460.55,229.64,459.91,228,459.39,226.15Z"/>
<path class="cls-43" d="M456.15,214.27a1.46,1.46,0,0,1,1.18.52,3.44,3.44,0,0,1,.7,1.09,6,6,0,0,1,.4,2.36,7.46,7.46,0,0,1-.41,2.26,6.16,6.16,0,0,1-1.15,2.05,9.17,9.17,0,0,1-.41-2.26c0-.72,0-1.42,0-2.09l.07-2a6.12,6.12,0,0,0,0-1A1.76,1.76,0,0,0,456.15,214.27Z"/>
<path class="cls-43" d="M452.73,206.17a9.54,9.54,0,0,1,2.19,3.28,13,13,0,0,1,1,3.83,12.3,12.3,0,0,1-.15,4,10,10,0,0,1-1.44,3.68c-.09-1.34,0-2.57-.11-3.8s-.15-2.42-.29-3.62C453.71,211.1,453.22,208.75,452.73,206.17Z"/>
<path class="cls-43" d="M456.51,226a6,6,0,0,1,2.36,1.33,7.26,7.26,0,0,1,1.68,2.15,5.89,5.89,0,0,1,.66,2.76,3.74,3.74,0,0,1-1.1,2.58,10.89,10.89,0,0,0-.46-2.4,15.76,15.76,0,0,0-.88-2C458.09,229,457.23,227.67,456.51,226Z"/>
<path class="cls-48" d="M454,229.39a10.45,10.45,0,0,1,.81,2.69,12.11,12.11,0,0,1,.17,2.83,6.47,6.47,0,0,1-.85,2.8,2.79,2.79,0,0,1-2.47,1.4,3.17,3.17,0,0,0,1.78-1.78,8.26,8.26,0,0,0,.54-2.5C454.1,233.07,454,231.26,454,229.39Z"/>
<path class="cls-43" d="M455.43,224.71a6.34,6.34,0,0,1,1.79,2.55,8.49,8.49,0,0,1,.61,3.08,7.64,7.64,0,0,1-2.22,5.71c0-1.08.14-2,.17-3s.06-1.82.05-2.73C455.82,228.56,455.61,226.79,455.43,224.71Z"/>
<path class="cls-48" d="M457.77,235.33a7.39,7.39,0,0,1-.14,2.1,9.13,9.13,0,0,1-.67,2,6.07,6.07,0,0,1-1.22,1.78,3,3,0,0,1-1.93.95,5.5,5.5,0,0,0,1.33-1.45,14,14,0,0,0,.92-1.71C456.63,237.83,457.11,236.58,457.77,235.33Z"/>
<path class="cls-43" d="M451.11,216.25a8.59,8.59,0,0,1,1.75,2.62,10.82,10.82,0,0,1,.88,3,8,8,0,0,1-.17,3.25,4.12,4.12,0,0,1-1.92,2.63,8.12,8.12,0,0,0,.36-2.85,23.78,23.78,0,0,0-.25-2.76A51.85,51.85,0,0,1,451.11,216.25Z"/>
<path class="cls-48" d="M450.93,230.83a9.92,9.92,0,0,1,1,2.45,12.24,12.24,0,0,1,.43,2.63,7.36,7.36,0,0,1-.32,2.71,3.42,3.42,0,0,1-1.67,2.11,4.69,4.69,0,0,0,.91-2.3,12.68,12.68,0,0,0,.09-2.47C451.32,234.28,451.07,232.6,450.93,230.83Z"/>
<path class="cls-48" d="M446.43,230.47a4,4,0,0,1,.69,1.67,5.3,5.3,0,0,1,0,1.82,4.63,4.63,0,0,1-.66,1.72,3.65,3.65,0,0,1-1.29,1.27c.2-.59.43-1.08.59-1.61a10.62,10.62,0,0,0,.38-1.55A22.79,22.79,0,0,0,446.43,230.47Z"/>
<path class="cls-43" d="M448.77,232.81a5.3,5.3,0,0,1,.92,2.15,6.76,6.76,0,0,1,.09,2.29,5.35,5.35,0,0,1-.8,2.26,2.85,2.85,0,0,1-2,1.4,7.3,7.3,0,0,0,.56-2c.11-.62.18-1.26.27-1.91s.19-1.33.33-2A11.83,11.83,0,0,1,448.77,232.81Z"/>
<path class="cls-48" d="M444.45,224.89a16.18,16.18,0,0,1,.74,4,15.22,15.22,0,0,1-.29,4.14,8.45,8.45,0,0,1-1.81,3.82,5.53,5.53,0,0,1-1.68,1.32,6,6,0,0,1-2,.54,6.43,6.43,0,0,0,3.07-2.35,9.61,9.61,0,0,0,1.45-3.54,24.4,24.4,0,0,0,.48-3.93C444.46,227.6,444.49,226.25,444.45,224.89Z"/>
<path class="cls-48" d="M434.19,220.63a3.1,3.1,0,0,1-.35,1.58,3.93,3.93,0,0,1-1,1.3,3.4,3.4,0,0,1-1.49.75,3,3,0,0,1-1.63,0c.49-.27.94-.45,1.35-.7a6,6,0,0,0,1.13-.79A15.19,15.19,0,0,0,434.19,220.63Z"/>
<path class="cls-43" d="M437.49,225.61a11.33,11.33,0,0,1-1.79,3.23,13.66,13.66,0,0,1-2.65,2.61,9,9,0,0,1-3.47,1.64,4.21,4.21,0,0,1-3.73-.82,6,6,0,0,0,3.24-.68,18.39,18.39,0,0,0,2.78-1.75C433.69,228.51,435.41,227,437.49,225.61Z"/>
<path class="cls-43" d="M441.33,222.07a8.66,8.66,0,0,1,.48,3.14,10.89,10.89,0,0,1-.5,3.13,8.5,8.5,0,0,1-1.52,2.88,4.66,4.66,0,0,1-2.78,1.71,11.87,11.87,0,0,0,1.45-2.55,27.62,27.62,0,0,0,.94-2.65A58.44,58.44,0,0,1,441.33,222.07Z"/>
<path class="cls-48" d="M435.33,235.09a5,5,0,0,1-.46,2.07,5.85,5.85,0,0,1-1.22,1.8,4.43,4.43,0,0,1-1.93,1.09,3.57,3.57,0,0,1-2.15-.1,8.82,8.82,0,0,0,1.88-.63,6.49,6.49,0,0,0,1.51-1.08A17.41,17.41,0,0,0,435.33,235.09Z"/>
<path class="cls-48" d="M426.93,227.17a3.84,3.84,0,0,1-.89,1.57,5,5,0,0,1-1.47,1.11,4.26,4.26,0,0,1-1.81.43,3.47,3.47,0,0,1-1.77-.41c.6-.14,1.14-.2,1.66-.36a7.94,7.94,0,0,0,1.48-.56A17.16,17.16,0,0,0,426.93,227.17Z"/>
<path class="cls-43" d="M420.93,223.45a4.79,4.79,0,0,1-.78,1.81,6.06,6.06,0,0,1-1.28,1.35,5.26,5.26,0,0,1-1.71.9,3.58,3.58,0,0,1-1.06.13c-.36,0-.86-.15-1-.53a1.1,1.1,0,0,0,.72-.41c.2-.18.38-.39.58-.57a10.94,10.94,0,0,1,1.24-1.1,9.11,9.11,0,0,1,1.46-.94A6.19,6.19,0,0,1,420.93,223.45Z"/>
<path class="cls-48" d="M420.87,218.53a13,13,0,0,1-3.23,3.68,9.45,9.45,0,0,1-2.14,1.29,2.94,2.94,0,0,1-2.49.13,4.08,4.08,0,0,0,2.13-.82c.64-.43,1.27-.9,1.88-1.39C418.27,220.46,419.48,219.43,420.87,218.53Z"/>
<path class="cls-48" d="M430.17,214.75a10.62,10.62,0,0,1-1,4.43,8,8,0,0,1-1.27,2,3,3,0,0,1-2,1.11,4.61,4.61,0,0,0,1.43-1.59c.35-.61.68-1.24,1-1.9C428.88,217.45,429.43,216.1,430.17,214.75Z"/>
<path class="cls-43" d="M426.09,206.41a6.78,6.78,0,0,1-.21,2.84,8,8,0,0,1-1.26,2.59,5.66,5.66,0,0,1-2.34,1.91,3.46,3.46,0,0,1-3-.08,6.7,6.7,0,0,0,2.17-1.28,10.38,10.38,0,0,0,1.53-1.75C424,209.36,424.84,207.89,426.09,206.41Z"/>
<path class="cls-48" d="M418,210.25a3.17,3.17,0,0,1,.52,2.66,3.75,3.75,0,0,1-1.77,2.23,8,8,0,0,1-1.25.6,9.05,9.05,0,0,1-1.32.32,9.49,9.49,0,0,1-2.66.07c.84-.32,1.67-.54,2.46-.82a11.15,11.15,0,0,0,2.24-1,3.68,3.68,0,0,0,1.56-1.64A4.12,4.12,0,0,0,418,210.25Z"/>
<path class="cls-48" d="M417.93,216a10.23,10.23,0,0,1-1.16,2.4,11.63,11.63,0,0,1-1.7,2.08,6.19,6.19,0,0,1-2.38,1.43,2.93,2.93,0,0,1-1.44.07,3.42,3.42,0,0,1-.65-.27c-.19-.14-.37-.29-.53-.43a2.8,2.8,0,0,0,2.36-.1,8.8,8.8,0,0,0,1.95-1.43C415.6,218.55,416.7,217.23,417.93,216Z"/>
<path class="cls-48" d="M423.87,196a19.76,19.76,0,0,1-1,7.61,9.74,9.74,0,0,1-2,3.43,4.31,4.31,0,0,1-1.68,1.13,3.2,3.2,0,0,1-2,0,3.69,3.69,0,0,0,3.05-1.65,12.33,12.33,0,0,0,1.61-3.25c.42-1.16.74-2.37,1.05-3.59Z"/>
<path class="cls-48" d="M420.15,198.61a3.21,3.21,0,0,1,.52,1.46,3.5,3.5,0,0,1-.14,1.6,2.68,2.68,0,0,1-1,1.36,2.17,2.17,0,0,1-1.56.38,5.34,5.34,0,0,0,1-.95,3.84,3.84,0,0,0,.57-1.1,9.52,9.52,0,0,0,.31-1.3Z"/>
<path class="cls-48" d="M414.15,206.11a4.7,4.7,0,0,1,.88,1.81,4.5,4.5,0,0,1,.07,2.1,3,3,0,0,1-1.22,1.81,2.93,2.93,0,0,1-2,.46,6.11,6.11,0,0,0,1.51-1.06,3,3,0,0,0,.74-1.44,6.69,6.69,0,0,0,.14-1.76C414.24,207.41,414.19,206.78,414.15,206.11Z"/>
<path class="cls-48" d="M409.89,208.15a2.37,2.37,0,0,1,.88,1.64,2.12,2.12,0,0,1-.84,1.86,3.53,3.53,0,0,1-.86.49,5,5,0,0,1-.92.2,5,5,0,0,1-1.8-.11c.56-.27,1.1-.43,1.61-.64a5.06,5.06,0,0,0,1.35-.72,1.71,1.71,0,0,0,.68-1.1A4.36,4.36,0,0,0,409.89,208.15Z"/>
<path class="cls-48" d="M401.31,204.61a2.89,2.89,0,0,1-.15,1.37,3.11,3.11,0,0,1-.74,1.22,2.17,2.17,0,0,1-1.41.63,1.68,1.68,0,0,1-1.3-.64,3.47,3.47,0,0,0,1.19-.14,2.38,2.38,0,0,0,.82-.57C400.24,206,400.68,205.3,401.31,204.61Z"/>
<path class="cls-48" d="M406.11,204.67a6.64,6.64,0,0,1,.28,2.17A7.36,7.36,0,0,1,406,209a3.73,3.73,0,0,1-1.38,1.9,2.24,2.24,0,0,1-2.25.09,2.71,2.71,0,0,0,1.77-.71,4.16,4.16,0,0,0,.92-1.62C405.51,207.45,405.74,206.08,406.11,204.67Z"/>
<path class="cls-43" d="M411.69,190.15a5.49,5.49,0,0,1,1.19,2.31,5.6,5.6,0,0,1,0,2.7,3.52,3.52,0,0,1-1.81,2.38,3,3,0,0,1-2.75-.13,6.22,6.22,0,0,0,1.88-1.18,3.76,3.76,0,0,0,.75-1.57,16.36,16.36,0,0,0,.35-2.08C411.42,191.82,411.49,191,411.69,190.15Z"/>
<path class="cls-48" d="M414.33,197.35a5.45,5.45,0,0,1,.57,2.33,4.27,4.27,0,0,1-.64,2.46,3.44,3.44,0,0,1-1,.93l-.61.28a3.36,3.36,0,0,1-.63.13,4.35,4.35,0,0,1-1.25,0,8.52,8.52,0,0,1-1.15-.35c.4-.08.79-.09,1.16-.14l.55-.11a2.13,2.13,0,0,0,.51-.14,2.66,2.66,0,0,0,1.56-1.14,5,5,0,0,0,.69-2A20.09,20.09,0,0,0,414.33,197.35Z"/>
<path class="cls-43" d="M403.89,195.19a4.64,4.64,0,0,1,1.35,2.75,4.94,4.94,0,0,1,0,.86,4.1,4.1,0,0,1-.23.9,3.44,3.44,0,0,1-.53.83,3.09,3.09,0,0,1-.75.62,4.47,4.47,0,0,1-.85.37c-.29.06-.57.12-.85.16a6.82,6.82,0,0,1-1.58-.1,7.59,7.59,0,0,1-1.44-.47,8,8,0,0,1-1.3-.76,9.81,9.81,0,0,1,1.46-.2c.47,0,.92-.13,1.35-.14s.83-.14,1.22-.2c.18-.07.35-.11.52-.16s.28-.16.43-.21a2,2,0,0,0,1-1.54A15.55,15.55,0,0,0,403.89,195.19Z"/>
<path class="cls-48" d="M397.83,195.61a6.44,6.44,0,0,1-1.72,3,4.68,4.68,0,0,1-1.51,1,1.87,1.87,0,0,1-1.81-.09,2.68,2.68,0,0,0,1.45-.6,14.06,14.06,0,0,0,1.17-1A30,30,0,0,1,397.83,195.61Z"/>
<path class="cls-48" d="M435.81,209.59a3.27,3.27,0,0,1,1.2,1.82,4.63,4.63,0,0,1,0,2.25,5.56,5.56,0,0,1-.93,2c-.22.29-.47.56-.71.82a8.92,8.92,0,0,1-.85.67c.13-.35.3-.65.45-1s.29-.62.44-.92a10.82,10.82,0,0,0,.63-1.84A6.31,6.31,0,0,0,435.81,209.59Z"/>
<path class="cls-48" d="M438.69,212.47A5.09,5.09,0,0,1,440,214a6.37,6.37,0,0,1,.7,2,4.9,4.9,0,0,1-.13,2.12,3.53,3.53,0,0,1-1.16,1.73,9.19,9.19,0,0,0,.4-1.88,7.86,7.86,0,0,0-.1-1.81A27.39,27.39,0,0,0,438.69,212.47Z"/>
<path class="cls-48" d="M446.25,215.35a2.84,2.84,0,0,1,1.45,1.16,4.58,4.58,0,0,1,.71,1.74,5.48,5.48,0,0,1,0,1.85,5.13,5.13,0,0,1-.58,1.73c-.11-.62-.15-1.19-.2-1.75s-.12-1.12-.24-1.64A8.4,8.4,0,0,0,446.25,215.35Z"/>
<path class="cls-48" d="M466.41,210a2.68,2.68,0,0,0-1.08.1.93.93,0,0,0-.49.52,6.39,6.39,0,0,0-.35,1,7.23,7.23,0,0,1-.42,1.13,3,3,0,0,1-.36-1.22,2.75,2.75,0,0,1,.24-1.32,1.9,1.9,0,0,1,.51-.6,1.27,1.27,0,0,1,.78-.23A1.41,1.41,0,0,1,466.41,210Z"/>
<path class="cls-43" d="M437.79,123s7.11-4.14,8.91-4.86a8.24,8.24,0,0,1,2.34-.72l-.72-1.53,2.25.9-.72-1.26a6.91,6.91,0,0,0,2.88,1.17,45.16,45.16,0,0,1,5.49,1.08l5.4,2.43,2.25,1.44.54-.09.18,3.06.72-.18.27,3.06-4.68-.36-.54.81-4.77-2.16s-2.7-1.8-4.32-2-4.59-.18-4.59-.18l-4,1.44-1.08.27L442,124.18H438.6a10.86,10.86,0,0,0-2.25,1.17Z"/>
</g>
</g>
</g>
</svg>