<svg xmlns="http://www.w3.org/2000/svg" viewBox="0 0 414.62 482.3"><defs><style>.cls-1,.cls-8{fill:#203459;}.cls-1{stroke:#231f20;stroke-miterlimit:10;stroke-width:0.98px;}.cls-2{fill:#fff;}.cls-3{fill:#231f20;}.cls-4{fill:#ebeef1;}.cls-5{fill:none;}.cls-6{fill:#dadce0;}.cls-7{fill:#c3271b;}.cls-9{fill:#18253a;}</style></defs><title>ghosts</title><g id="Layer_2" data-name="Layer 2"><g id="ghosts"><g id="Layer_2-2" data-name="Layer 2"><rect class="cls-1" x="0.49" y="0.49" width="413.64" height="481.32"/></g><g id="Layer_1-2" data-name="Layer 1"><path class="cls-2" d="M263.11,108v83.7h-1.84c-6-2.4-7.06-11.4-14.9-11.4s-8.88,9-14.89,11.4H225.1c-6-2.4-7.07-11.4-14.9-11.4s-8.89,9-14.9,11.4h-6.38c-6-2.4-7.07-11.4-14.91-11.4s-8.88,9-14.89,11.4H154V108a54.54,54.54,0,0,1,109.08,0Z"/><path class="cls-3" d="M263.61,192.15l-2.53,0c-2.67-1.06-4.39-3.35-6.06-5.56-2.25-3-4.37-5.8-8.65-5.8s-6.39,2.82-8.64,5.8c-1.67,2.21-3.39,4.5-6.07,5.56l-.18,0-6.57,0c-2.67-1.06-4.4-3.35-6.07-5.57-2.25-3-4.37-5.79-8.64-5.79s-6.4,2.82-8.65,5.8c-1.67,2.21-3.4,4.5-6.07,5.56l-.18,0-6.57,0c-2.67-1.06-4.4-3.35-6.07-5.56-2.25-3-4.37-5.8-8.65-5.8s-6.4,2.81-8.64,5.8c-1.67,2.21-3.4,4.49-6.06,5.56l-.19,0h-5.59V108a55,55,0,0,1,110.08,0Zm-2.24-1h1.24V108a54,54,0,0,0-108.08,0v83.2H159c2.36-1,3.91-3,5.55-5.21,2.29-3,4.67-6.19,9.44-6.19s7.15,3.15,9.45,6.19c1.64,2.18,3.19,4.23,5.56,5.21h6.18c2.36-1,3.91-3,5.55-5.2,2.3-3,4.67-6.2,9.45-6.2s7.14,3.15,9.44,6.19c1.64,2.17,3.19,4.23,5.56,5.21h6.18c2.36-1,3.91-3,5.55-5.21,2.3-3,4.67-6.19,9.44-6.19s7.15,3.15,9.45,6.2C257.46,188.12,259,190.17,261.37,191.15Z"/><circle class="cls-3" cx="189.13" cy="93.55" r="11.34"/><path class="cls-3" d="M189.13,105.39A11.84,11.84,0,1,1,201,93.55,11.85,11.85,0,0,1,189.13,105.39Zm0-22.68A10.84,10.84,0,1,0,200,93.55,10.85,10.85,0,0,0,189.13,82.71Z"/><circle class="cls-3" cx="229.09" cy="93.55" r="11.34"/><path class="cls-3" d="M229.09,105.39a11.84,11.84,0,1,1,11.84-11.84A11.85,11.85,0,0,1,229.09,105.39Zm0-22.68a10.84,10.84,0,1,0,10.84,10.84A10.85,10.85,0,0,0,229.09,82.71Z"/><path class="cls-3" d="M208,130c-8.43,0-14.47-9.91-14.73-10.33l2.57-1.54c.06.09,5.43,8.87,12.16,8.87h0c3.89,0,7.65-3,11.18-8.87l2.58,1.54C217.62,126.55,213,130,208,130Z"/><path class="cls-4" d="M188.41,57.85S151,119.77,174,150s28.56,32.64,28.56,32.64L198,188.41s-1.2,5.28-11,.72a13.42,13.42,0,0,0-6.72-8.16,13,13,0,0,0-16.32,2.88s-1.68,8.16-7.92,5.52l-.48-55.44V106.81S153.85,73,188.41,57.85Z"/><circle class="cls-4" cx="191.11" cy="93.91" r="3.78"/><circle class="cls-4" cx="231.97" cy="95.71" r="3.78"/><path class="cls-4" d="M218.41,66s18-2.16,25.2,16.08C243.61,82.09,234.25,66.73,218.41,66Z"/><path class="cls-5" d="M247.56,442.43a8.15,8.15,0,0,1-3.2.62"/><path class="cls-5" d="M313.54,442.43a8.52,8.52,0,0,0,6.38,0"/><path class="cls-5" d="M352.9,443.05a8.13,8.13,0,0,1-3.19-.62"/><path class="cls-5" d="M277.36,442.43a8.52,8.52,0,0,0,6.38,0"/><path class="cls-5" d="M277.36,442.43h-29.8c6-2.51,7.06-11.86,14.89-11.86S271.34,439.93,277.36,442.43Z"/><path class="cls-5" d="M247.56,442.43a8.15,8.15,0,0,1-3.2.62"/><path class="cls-5" d="M313.54,442.43h-29.8c6-2.5,7.06-11.86,14.9-11.86S307.52,439.93,313.54,442.43Z"/><path class="cls-5" d="M349.71,442.43H319.92c6-2.5,7.06-11.86,14.89-11.86S343.7,439.93,349.71,442.43Z"/><path class="cls-5" d="M313.54,442.43a8.52,8.52,0,0,0,6.38,0"/><path class="cls-5" d="M352.9,443.05a8.13,8.13,0,0,1-3.19-.62"/><path class="cls-5" d="M277.36,442.43a8.52,8.52,0,0,0,6.38,0"/><path class="cls-4" d="M319.57,284.25c.29.32.44.52.44.52Z"/><path class="cls-2" d="M194.29,200.11v83.7h-1.84c-6-2.4-7.06-11.4-14.9-11.4s-8.88,9-14.89,11.4h-6.38c-6-2.4-7.07-11.4-14.9-11.4s-8.89,9-14.9,11.4H120.1c-6-2.4-7.07-11.4-14.91-11.4s-8.88,9-14.89,11.4H85.21v-83.7a54.54,54.54,0,0,1,109.08,0Z"/><path class="cls-3" d="M194.79,284.31l-2.53,0c-2.67-1.06-4.39-3.35-6.06-5.56-2.25-3-4.37-5.8-8.65-5.8s-6.39,2.81-8.64,5.8c-1.67,2.21-3.39,4.5-6.07,5.56l-.18,0-6.57,0c-2.67-1.06-4.4-3.35-6.07-5.57-2.25-3-4.37-5.79-8.64-5.79s-6.4,2.82-8.65,5.8c-1.67,2.21-3.4,4.5-6.07,5.56l-.18,0-6.57,0c-2.67-1.06-4.4-3.35-6.07-5.56-2.25-3-4.37-5.8-8.65-5.8s-6.4,2.81-8.64,5.8c-1.67,2.21-3.4,4.49-6.06,5.56l-.19,0H84.71v-84.2a55,55,0,0,1,110.08,0Zm-2.24-1h1.24v-83.2a54,54,0,1,0-108.08,0v83.2H90.2c2.36-1,3.91-3,5.55-5.21,2.29-3,4.67-6.19,9.44-6.19s7.15,3.15,9.45,6.19c1.64,2.18,3.19,4.23,5.56,5.21h6.18c2.36-1,3.91-3,5.55-5.2,2.3-3.05,4.67-6.2,9.45-6.2s7.14,3.15,9.44,6.19c1.64,2.18,3.19,4.23,5.56,5.21h6.18c2.36-1,3.91-3,5.55-5.21,2.3-3,4.67-6.19,9.44-6.19s7.15,3.15,9.45,6.2C188.64,280.28,190.19,282.33,192.55,283.31Z"/><circle class="cls-3" cx="158.47" cy="192.67" r="11.34"/><path class="cls-3" d="M158.47,204.51a11.84,11.84,0,1,1,11.84-11.84A11.85,11.85,0,0,1,158.47,204.51Zm0-22.68a10.84,10.84,0,1,0,10.84,10.84A10.85,10.85,0,0,0,158.47,181.83Z"/><circle class="cls-3" cx="124.09" cy="193.03" r="11.34"/><path class="cls-3" d="M124.09,204.87A11.84,11.84,0,1,1,135.93,193,11.85,11.85,0,0,1,124.09,204.87Zm0-22.68A10.84,10.84,0,1,0,134.93,193,10.85,10.85,0,0,0,124.09,182.19Z"/><path class="cls-3" d="M131.82,225.72l-2.5-1.66c.22-.32,5.33-7.87,12.45-7.87,4.25,0,8.17,2.65,11.65,7.87l-2.5,1.66c-2.89-4.33-6-6.53-9.14-6.53h0C136.26,219.19,131.86,225.66,131.82,225.72Z"/><path class="cls-6" d="M183.45,171.61s0,25.55-12.07,55.44-20.89,48.68-20.89,48.68S156.06,296,170,273.81c0,0,7-10.13,19,6.26l3.48,3.38.23-64.12V190.89S189.48,172.09,183.45,171.61Z"/><circle class="cls-4" cx="125.41" cy="195.07" r="3.78"/><circle class="cls-4" cx="156.73" cy="194.71" r="3.78"/><path class="cls-4" d="M96.25,182.41s13.2-25.2,36.24-19.92C132.49,162.49,115,163.93,96.25,182.41Z"/><path class="cls-2" d="M341.77,199.93v83.7h-1.84c-6-2.4-7.06-11.4-14.9-11.4s-8.88,9-14.89,11.4h-6.38c-6-2.4-7.07-11.4-14.9-11.4s-8.89,9-14.9,11.4h-6.38c-6-2.4-7.07-11.4-14.91-11.4s-8.88,9-14.89,11.4h-5.09v-83.7a54.54,54.54,0,0,1,109.08,0Z"/><path class="cls-3" d="M342.27,284.13l-2.53,0c-2.67-1.06-4.39-3.35-6.06-5.56-2.25-3-4.37-5.8-8.65-5.8s-6.39,2.82-8.64,5.8c-1.67,2.21-3.39,4.5-6.06,5.56l-.19,0-6.57,0c-2.67-1.06-4.4-3.35-6.07-5.57-2.25-3-4.37-5.79-8.64-5.79s-6.4,2.82-8.65,5.8c-1.67,2.21-3.4,4.5-6.07,5.56l-.18,0-6.57,0c-2.67-1.06-4.4-3.35-6.07-5.56-2.25-3-4.37-5.8-8.65-5.8s-6.4,2.81-8.64,5.8c-1.67,2.21-3.4,4.49-6.06,5.56l-.19,0h-5.59v-84.2a55,55,0,0,1,110.08,0Zm-2.24-1h1.24v-83.2a54,54,0,1,0-108.08,0v83.2h4.49c2.36-1,3.91-3,5.55-5.21,2.29-3,4.67-6.19,9.44-6.19s7.15,3.15,9.45,6.19c1.64,2.18,3.19,4.23,5.56,5.21h6.18c2.36-1,3.91-3,5.55-5.2,2.3-3.05,4.67-6.2,9.45-6.2s7.14,3.15,9.44,6.19c1.64,2.17,3.19,4.23,5.56,5.21H310c2.36-1,3.91-3,5.55-5.21,2.3-3,4.67-6.19,9.44-6.19s7.15,3.15,9.45,6.2C336.12,280.1,337.67,282.15,340,283.13Z"/><circle class="cls-3" cx="264.55" cy="195.61" r="11.34"/><path class="cls-3" d="M264.55,207.45a11.84,11.84,0,1,1,11.84-11.84A11.85,11.85,0,0,1,264.55,207.45Zm0-22.68a10.84,10.84,0,1,0,10.84,10.84A10.85,10.85,0,0,0,264.55,184.77Z"/><circle class="cls-3" cx="303.43" cy="193.45" r="11.34"/><path class="cls-3" d="M303.43,205.29a11.84,11.84,0,1,1,11.84-11.84A11.85,11.85,0,0,1,303.43,205.29Zm0-22.68a10.84,10.84,0,1,0,10.84,10.84A10.85,10.85,0,0,0,303.43,182.61Z"/><ellipse class="cls-7" cx="284.8" cy="232.33" rx="12.15" ry="16.74"/><path class="cls-3" d="M284.8,249.7c-7.05,0-12.78-7.79-12.78-17.37S277.75,215,284.8,215s12.78,7.79,12.78,17.37S291.85,249.7,284.8,249.7Zm0-33.48c-6.35,0-11.52,7.23-11.52,16.11s5.17,16.11,11.52,16.11,11.52-7.23,11.52-16.11S291.15,216.22,284.8,216.22Z"/><path class="cls-3" d="M293.71,221.89s-11,22.14-20.52,13.5c0,0-2.88-10.8,5.76-17.64C279,217.75,286.69,212.35,293.71,221.89Z"/><path class="cls-3" d="M277.92,237.89a7.46,7.46,0,0,1-5.07-2.13l-.11-.1,0-.14c0-.11-2.87-11.2,5.93-18.16.11-.08,8.25-5.59,15.47,4.23l.18.25-.13.27c-.29.58-7.11,14.18-14.89,15.65A6.86,6.86,0,0,1,277.92,237.89Zm-4.28-2.77a6.21,6.21,0,0,0,5.44,1.66c6.72-1.27,13-12.91,14-14.84-6.6-8.71-13.59-4-13.88-3.78C271.51,224.28,273.35,233.85,273.64,235.12Z"/><path class="cls-4" d="M341.53,228.88c-.1-11,1.13-22.59-.53-33.39-2.18-14.16-11.64-36.59-27.12-40.76,1.27.34,2.22,5.49,2.67,6.64,2.65,6.78,8.17,11.85,11.08,18.47,5.33,12.12,2.7,24.68.25,37.06-2.25,11.34-7.38,19.57-12.93,29.38a48.22,48.22,0,0,1-7.29,9.92A69.69,69.69,0,0,1,293.85,267c-1.1.67-6,2.4-6.56,3.53,0,0-1.89,4,.55.86s8.16-.3,8.16-.3l8,9.44c.28.16.56.31.84.44,9.74,4.75,16.09-8,16.09-8,4.92-4.83,9.52-2.33,11.94-.27.43.55,1.05,1.36,1.95,2.49,6,7.56,8.44,6.13,8.44,6.13Z"/><circle class="cls-4" cx="263.11" cy="199.93" r="3.78"/><circle class="cls-4" cx="299.47" cy="198.49" r="3.78"/><path class="cls-4" d="M243.31,190.15s9.6-31.44,41.28-26.16C284.59,164,260.83,160.87,243.31,190.15Z"/><path class="cls-4" d="M211.45,229.69V229"/><path class="cls-2" d="M157,334.33V252a54.54,54.54,0,0,1,109.08,0v83.7h-5.2c-6-2.4-7.06-11.4-14.9-11.4s-8.88,9-14.89,11.4h-6.38c-6-2.4-7.07-11.4-14.9-11.4s-8.89,9-14.9,11.4h-6.38c-6-2.4-7.07-11.4-14.91-11.4s-8.88,9-14.89,11.4H157v-1.32"/><path class="cls-3" d="M266.61,336.15l-5.89,0c-2.67-1.06-4.39-3.35-6.06-5.56-2.25-3-4.37-5.8-8.65-5.8s-6.39,2.81-8.64,5.8c-1.67,2.21-3.39,4.5-6.07,5.56l-.18,0-6.57,0c-2.67-1.06-4.4-3.35-6.07-5.57-2.25-3-4.37-5.79-8.64-5.79s-6.4,2.82-8.65,5.8c-1.67,2.21-3.4,4.5-6.07,5.56l-.18,0-6.57,0c-2.67-1.06-4.4-3.35-6.07-5.56-2.25-3-4.37-5.8-8.65-5.8s-6.4,2.81-8.64,5.8c-1.67,2.21-3.4,4.49-6.06,5.56l-.19,0h-2.23V252a55,55,0,0,1,110.08,0Zm-5.6-1h4.6V252a54,54,0,0,0-108.08,0v83.2h1.13c2.36-1,3.91-3,5.55-5.21,2.29-3,4.67-6.19,9.44-6.19s7.15,3.15,9.45,6.19c1.64,2.18,3.19,4.23,5.56,5.21h6.18c2.36-1,3.91-3,5.55-5.2,2.3-3.05,4.67-6.2,9.45-6.2s7.14,3.15,9.44,6.19c1.64,2.17,3.19,4.23,5.56,5.21H231c2.36-1,3.91-3,5.55-5.21,2.3-3,4.67-6.19,9.44-6.19s7.15,3.15,9.45,6.2C257.1,332.12,258.65,334.17,261,335.15Z"/><circle class="cls-3" cx="192.37" cy="242.23" r="11.34"/><path class="cls-3" d="M192.37,254.07a11.84,11.84,0,1,1,11.84-11.84A11.85,11.85,0,0,1,192.37,254.07Zm0-22.68a10.84,10.84,0,1,0,10.84,10.84A10.85,10.85,0,0,0,192.37,231.39Z"/><circle class="cls-3" cx="229.09" cy="243.31" r="11.34"/><path class="cls-3" d="M229.09,255.15a11.84,11.84,0,1,1,11.84-11.84A11.85,11.85,0,0,1,229.09,255.15Zm0-22.68a10.84,10.84,0,1,0,10.84,10.84A10.85,10.85,0,0,0,229.09,232.47Z"/><line class="cls-8" x1="197.77" y1="276.25" x2="220.45" y2="276.25"/><rect class="cls-3" x="197.77" y="274.75" width="22.68" height="3"/><path class="cls-4" d="M234.49,203.77s11,6.24,12,34.08-4.8,53.28-8.64,60-20.64,28.32-20.64,28.32,8.64,18.72,21.12,1.92c0,0,7.2-13.44,15.36,0,0,0,7.56,9.36,12.42,7.56l-1.86-82.92S266.65,218.65,234.49,203.77Z"/><circle class="cls-4" cx="228.37" cy="242.59" r="3.78"/><path class="cls-4" d="M162.49,248.17s-2.4-34.8,35.52-32.64C198,215.53,172.09,219.61,162.49,248.17Z"/><circle class="cls-4" cx="192.01" cy="242.41" r="3.78"/><ellipse class="cls-9" cx="204.01" cy="396.49" rx="129.12" ry="14.88"/></g></g></g></svg>