<?xml version="1.0" encoding="utf-8"?>
<!-- Generator: Adobe Illustrator 24.0.0, SVG Export Plug-In . SVG Version: 6.00 Build 0)  -->
<svg version="1.1" id="Layer_1" xmlns="http://www.w3.org/2000/svg" xmlns:xlink="http://www.w3.org/1999/xlink" x="0px" y="0px"
	 viewBox="0 0 748.6 1000.1" style="enable-background:new 0 0 748.6 1000.1;" xml:space="preserve">
<style type="text/css">
	.st0{fill:#BE7429;}
	.st1{fill:#F0C0B7;}
	.st2{fill:#D49E84;}
	.st3{fill:#EAB3A0;}
	.st4{fill:#D45C61;}
	.st5{fill:#C16B63;}
	.st6{fill:#F0858D;}
	.st7{fill:#EEC3B1;}
	.st8{fill:#DCB5A8;}
	.st9{fill:#DDB6A8;}
	.st10{fill:#484030;}
	.st11{fill:#EDC6CD;}
	.st12{fill:#475053;}
	.st13{fill:#232221;}
	.st14{fill:#6B6A6A;}
	.st15{fill:#FAFCFD;}
	.st16{fill:#5B5555;}
	.st17{fill:#6C6364;}
	.st18{fill:#D3C1C1;}
	.st19{fill:#EAE4E4;}
	.st20{fill:#332F29;}
	.st21{fill:#5D6363;}
	.st22{fill:#020202;}
	.st23{fill:#231F20;}
	.st24{fill:#D5B49E;}
	.st25{fill:#3B331F;}
	.st26{fill:#3B362E;}
	.st27{fill:#48352D;}
	.st28{fill:#8D4E3F;}
	.st29{fill:#3D3629;}
	.st30{fill:#5F2725;}
	.st31{fill:#FFFFFF;}
	.st32{fill:#E8E3DD;}
	.st33{fill:#F9F8F7;}
	.st34{fill:#916327;}
	.st35{fill:#070808;}
	.st36{fill:#171616;}
	.st37{fill:#22100E;}
	.st38{fill:#53411B;}
	.st39{fill:#3F1C13;}
	.st40{fill:#342B16;}
	.st41{fill:#8C703E;}
	.st42{fill:#6E5524;}
	.st43{fill:#2F3335;}
	.st44{fill:#4D5051;}
</style>
<title>Layer 3</title>
<rect x="5.6" y="0" class="st0" width="743" height="997.9"/>
<path class="st1" d="M362.4,567c0,0,14.4,8.9,36.5,9.7s39.4,0,39.4,0l32.1-20.3c0,0-15.8,17.3-22.5,20.7s-14.7,9.1-22,9.1
	c-5,0.1-10,0.8-14.8,2.1l-16.5-4l-20.1-5.1L362.4,567z"/>
<path class="st1" d="M512.2,518.3c0,0-3.8,8.6-2.4,16c1.2,5.1,3.1,10,5.8,14.6c0,0-1.9,32.1-10.1,43.6S486.2,618,486.2,618l-20.2,21
	l-17.3,15.9l-26.4,3.4c0,0-18.7-8.6-22.1-8.2s-16.3-7.7-16.3-7.7l-15.4-9.1l-37.4-31.7c0,0-7.7-9.6-9.1-17.3s-3.4-15.3-3.4-15.3
	v-22.1l-2.4-7.7V532l-15.3-6.7l-13.4-31.2L242,425.9l22-137.4L381.6,268l157,12.6l10.6,48.7v61l6.7,15.8L541,456.6L512.2,518.3"/>
<path class="st2" d="M464.9,461.8c0,0,0.5,2.7,8.9,8.5l8.4,5.9c0,0,5,5.8,4,12.2s0.1,14.8,0.1,14.8l-3.4,9.4l-4.7-21.6l-4.4-15.1
	C473.8,475.9,459.8,461.8,464.9,461.8z"/>
<path class="st2" d="M366.2,474.1c0,0-3.8,3.5-7.8,8.1c-1.4,1.6-2.8,3.3-4.1,5c-5,6.7-10.4,8.5-7.9,15.3s9.6,14,9.6,14l-4.9-13.7
	l0.7-7.5L366.2,474.1z"/>
<path class="st3" d="M425.9,420.9c-4.4,6.1,4.2,15.8,4.2,15.8l9.5,6.8l4,1.4l7.2,11.2l-2.9,12.1l7.6-8.5l-1.8-8.3l-7.6-9.4
	c-3.4-5.2-7.2-10.1-11.4-14.8c-6-6.5-4.5-12.6-4.5-12.6L425.9,420.9z"/>
<path class="st4" d="M362.4,504.2c0,0-0.2,0.6,8.2,0s15-1.7,15-1.7c3-0.6,6.1-1,9.2-1.2c5.2,0.2,10.4,0.7,15.6,1.4
	c4.8,0.7,8.9-2.2,16.6-2.9s7.8-3.4,13.1-2.6s15.4-0.1,15.4-0.1l17.3-3.5c0,0-7.4,11.3-13.7,14.2s-16,4.8-16,4.8l-13.6,4
	c0,0-16.1,4.2-22.3,2.8s-9.1-0.7-14.4-2.8s-10.2-4-10.2-4l-7.8-2.9l-5-1.9L362.4,504.2z"/>
<path class="st5" d="M373.7,504.9c0,0,11.9-1,16.7,0s14.4,1.7,14.4,1.7s2.6,1.4,8.3,1.2c2.3-0.1,4.5-0.4,6.8-0.9
	c0.5-0.1,1-0.2,1.5-0.3c4.6-1.1,9.2-2.5,13.6-4.1c2.2-0.7,3.7-1.1,5-0.8c3.2,0.7,10.9-2.4,10.9-2.4l10.8-2.2l8.6-3.1
	c0,0-4.3,4.5-9.8,5.5s-12.2,2.9-12.2,2.9l-18,3.1l-33.6,2.2l-9.8-1.2L373.7,504.9z"/>
<path class="st6" d="M385.6,510.2c0,0,29.9,4.1,32,2.4s23.5-1.2,25.6-2.4s-23.1,4.1-23.1,4.1h-15.4l-15.8-1.7L385.6,510.2z"/>
<path class="st7" d="M332.1,571.8c0.6-5.8,0.5-11.7-0.2-17.5l-15.6-15.1l2.4,23l5.4,28c0,0,5.2-3,7.4-14.5
	C331.2,574.4,331.4,573,332.1,571.8z"/>
<path class="st8" d="M357.9,567.5c5.4,4,11.8,7,16.5,11.8c7.8,7.8,15.7,22.8,27.7,24.2c11.7,1.3,22.6-7.3,31.4-13.7l0.7-0.5
	c-11.8,1.8-27.8,0.3-48.7-9.6l-30.8-14.5C355.8,565.9,356.8,566.7,357.9,567.5z"/>
<path class="st9" d="M331.9,576.8L331.9,576.8v19.1l11.6,6.1C339.3,593.8,336,585,331.9,576.8z"/>
<path class="st10" d="M287.8,178.1c0,0-35.8,66.4-36.5,93s-26.6,108,0,20.9S287.8,178.1,287.8,178.1z"/>
<path class="st11" d="M444.5,404c0,0,8.5,8.3,17.8,8.7s28.6-2.2,35.5-15.5C498.5,402.9,445.2,409.6,444.5,404z"/>
<path class="st11" d="M324.4,412.8c0,0,23.3,20,50.4,0c0,0-43,7.6-46.2,0.7"/>
<ellipse class="st12" cx="464" cy="385.6" rx="10.8" ry="9.7"/>
<path class="st13" d="M352.4,447.2c-21.7,0-39.3-17-39.3-37.9s17.6-37.9,39.3-37.9s39.3,17,39.3,37.9S374.1,447.2,352.4,447.2z
	 M352.4,374.5c-20,0-36.3,15.6-36.3,34.9s16.3,34.9,36.3,34.9s36.3-15.6,36.3-34.9S372.5,374.5,352.4,374.5z"/>
<path class="st14" d="M390.2,400.7l6.1-3.8l5.7-4.1c1.5-1.5,3.4-2.4,5.5-2.5h11.7l5.1,2.9l4.2,2.3h2.4v3.8h-2.5c0,0-2.3,1.8-5.4-0.4
	s-10.7-3.4-10.7-3.4h-6.2l-3.8,1.4l-6.1,5.2l-3.2,1.4L390.2,400.7z"/>
<path class="st13" d="M468.7,434.8c-21.7,0-39.3-17-39.3-37.9s17.6-37.9,39.3-37.9s39.3,17,39.3,37.9S490.4,434.8,468.7,434.8z
	 M468.7,362.1c-20,0-36.3,15.6-36.3,34.9s16.3,34.9,36.3,34.9s36.3-15.6,36.3-34.9S488.7,362.1,468.7,362.1z"/>
<path class="st15" d="M402.5,394.6v-1.8c0,0,1.8-2.2,3.6-2.2h13c0,0,2.2,1.1-1.8,2c-2.6,0.5-5.3,0.5-7.9,0h-3.2L402.5,394.6z"/>
<path class="st15" d="M402.5,396.9l3.6,2.3l5-2.3h5.1c0,0-4-2.7-6.8-2.3C407,395.1,404.7,395.9,402.5,396.9z"/>
<path class="st16" d="M516.6,388.1c1.8,0,3.6-9.7,3.6-9.7l4.8-8.2l9.2-9.7l0.7,4.1c0,0-7.9,9.4-9.1,11.2s-7.3,12.2-7.3,12.2
	L516.6,388.1z"/>
<path class="st17" d="M506.5,390.3c1.6,0.2,3.1,0.2,4.7,0c1-0.2,1.6-1.2,1.4-2.2h4l3.2,2.5l-0.7,2l-3,2h-3.5h-4.8L506.5,390.3z"/>
<ellipse class="st18" cx="512.5" cy="392" rx="2.5" ry="0.6"/>
<ellipse class="st18" cx="308.6" cy="414.2" rx="4.6" ry="1.4"/>
<path class="st17" d="M313.2,411.3l-10.1-0.5c0,0-5,0-4.4,1.9s0.3,5,2,4.6s6.7,0,6.7,0h5.8v-4.6"/>
<circle class="st18" cx="303.6" cy="410.8" r="0.5"/>
<ellipse class="st19" cx="308.2" cy="413.4" rx="5" ry="0.7"/>
<path class="st16" d="M272.5,387.3l10.7,5.3c0,0,10.3,6.4,10.6,7.9s7.9,8.9,7.9,8.9l1.4,1.4l-3.3,0.5l-5.3-5.5c0,0-6.5-4.3-9.1-6.5
	s-6.2-4.7-6.2-4.7l-6.2-3.9l-0.2-2.1"/>
<path class="st10" d="M325.8,396.8c1.7,0,2.2-2.2,0.2-2.2C324.4,394.7,323.8,396.8,325.8,396.8z"/>
<path class="st10" d="M348.8,404.1h-0.4c-5-0.1-12.2-0.9-15.8-2.6s-9.4-4.1-9.5-4.1l-0.6-0.3l0.5-0.5c0.1-0.2,3.9-4.4,6.1-5.9
	s7.5-4.9,7.6-4.9s4.3-2.8,7.5-3.3c0.8-0.1,1.5-0.3,2.2-0.5c2.4-0.7,4.9-0.8,7.3-0.3c3,0.6,6,1.4,8.9,2.4l0.1,0l7.9,4.8l8,4.4
	l4.6,4.9H382c-0.1,0-9.4-0.3-14.6,1.5C361.9,401.8,353.8,404.1,348.8,404.1z M324.2,396.7c1.6,0.7,6,2.5,8.9,3.9
	c3.5,1.6,10.5,2.4,15.4,2.5c4.4,0.1,12.6-2.1,18.7-4.3c4.3-1.5,11-1.6,13.8-1.6l-2.9-3l-7.9-4.3l-7.9-4.8c-2.9-1-5.8-1.8-8.8-2.4
	c-2.3-0.5-4.6-0.4-6.9,0.3c-0.7,0.2-1.5,0.3-2.3,0.5c-3,0.5-7.1,3.1-7.1,3.2s-5.4,3.5-7.5,4.9C327.7,393.1,325.9,394.9,324.2,396.7z
	"/>
<path class="st10" d="M365.8,387.3c0,0,5.2,3.9,5,5.3s-0.9,5.8-3.5,6.7s14.2-3.1,14.8-2.3S365.8,387.3,365.8,387.3z"/>
<path class="st10" d="M367,399.9c-0.4,0-0.4-0.1-0.5-0.4c-0.1-0.5,0.4-0.6,0.6-0.7c2.1-0.7,3-4.4,3.1-6.2c0-0.6-2.2-2.8-4.8-4.9
	l0.6-0.8c5.6,3.5,14,8.6,15.9,9.5c0.2,0,0.5,0.1,0.6,0.3l0.3,0.3l-0.3,0.4c-0.1,0.1-0.2,0.2-0.7,0c-1-0.2-7.5,1.2-10.7,1.8
	C369.7,399.5,368.4,399.7,367,399.9z M370.2,390.6c0.6,0.5,1,1.3,1.1,2c0,0.5-0.4,3.9-2.1,5.9l1.7-0.3c4.8-1,7.5-1.5,9.1-1.7
	C378.3,395.5,375.4,393.8,370.2,390.6L370.2,390.6z"/>
<path class="st10" d="M364.8,387.3c0,0-4.6-2.8-8.3-3.3s-5.9-1-8.8,0c-3.3,1-6.5,2.4-9.6,4c-3.7,2-9.6,6-9.6,6l-2,1.7l3.6,2.8
	l5.5,1.4l5.1,2.7c-0.1,2,10.5,1.7,10.6-0.3h5.6l-22.7-0.8l-5.4-2.4l-5.5-2.4l13.6-10.8l7.3-3.2l8.2-1L364.8,387.3z"/>
<path class="st10" d="M345.4,404.5c-0.5,0-1,0-1.4,0c-0.8,0-1.7-0.2-2.5-0.5c-0.8-0.3-1.1-0.7-1.2-1l-1.4-0.7l-4.9-0.2l-11.6-5
	l14.3-11.3l7.5-3.3l8.3-1l5.6,2.4c2.5,0.7,4.8,1.7,7,3l-0.5,0.9l-6.8-3c-0.4-0.1-0.9-0.2-1.3-0.3l-1.3-0.2c-2.9-0.4-4.8-0.7-7.2,0.1
	l-0.4,0.1c-3.2,1-6.2,2.2-9.1,3.8c-3.7,2-9.5,5.9-9.6,6l-1.5,1.3l3,2.4l5.5,1.5l3.3,1.7l17.8,0.6v1h-5.2
	C351,404.2,347.7,404.5,345.4,404.5z M341.2,402.4L341.2,402.4l0,0.3c0,0,0.1,0.2,0.6,0.4c0.7,0.2,1.5,0.4,2.2,0.4
	c2.2,0.2,4.4,0,6.5-0.8L341.2,402.4z M334.4,401.1l2.5,0.1l-1.4-0.8l-5.6-1.5l-4.1-3.2l0.6-0.5l-2,1.6L334.4,401.1z M337.2,386.6
	l-8,6.4c1.8-1.2,5.9-3.9,8.7-5.4c3-1.6,6.1-2.9,9.3-3.9l0.4-0.1c2.1-0.7,4.4-0.8,6.6-0.4l-1.8-0.8l-8,1L337.2,386.6z"/>
<path class="st10" d="M325.8,397.1c0.5,0,0.8,0.6,1.2,1c0.5,0.4,1,0.7,1.5,1c1.1,0.6,2.4,1,3.5,1.5c1.2,0.7,2.4,1.3,3.7,1.7
	c1.4,0.6,2.9,0.8,4.4,0.7c0.5-0.1,1.5-0.3,1.7-0.9s-0.9-0.6-1.2-0.5c-0.6,0-1.1-0.1-1.7-0.3c-0.7-0.2-1.3-0.4-2-0.6
	c-1.2-0.5-2.3-1.2-3.5-1.8c-1.1-0.4-2.2-0.9-3.2-1.4c-0.9-0.6-1.4-1.7-2.6-1.8c-0.7-0.1-1.5,0.1-2,0.5
	C325.1,396.5,325.1,397,325.8,397.1L325.8,397.1z"/>
<path class="st10" d="M337.4,402.7c2.4,1.4,5.2,1.9,8,1.6c0.5-0.1,1.5-0.4,1.6-1s-0.9-0.7-1.3-0.6l-0.5,0c-0.3,0,0.2,0-0.1,0h-0.9
	h-0.5c-0.3,0,0.1,0-0.2,0s-0.6-0.1-0.9-0.1c-1.1-0.2-2.1-0.6-3.1-1.2c-0.7-0.2-1.5-0.1-2.1,0.3C337.2,401.9,336.8,402.4,337.4,402.7
	L337.4,402.7z"/>
<path class="st10" d="M374.7,393.9c1,0.7,2,1.5,3,2.3l-0.2-0.2c0.6,0.6,1.2,1.2,1.8,1.9c0.6,0.5,1.4,0.5,2,0.2
	c0.4-0.2,1.2-0.9,0.7-1.4c-0.7-0.9-1.6-1.7-2.4-2.4c-0.8-0.7-1.7-1.3-2.6-1.9c-0.7-0.3-1.5-0.2-2.1,0.2
	C374.4,392.9,374.1,393.5,374.7,393.9L374.7,393.9z"/>
<path class="st10" d="M362.7,386.5c1.1,0.7,2.1,1.4,3,2.3c0.9,0.8,1.8,1.7,2.5,2.7c0.7,0.9,1.3,1.9,1.5,3c0.3,0.9,0.1,1.9-0.6,2.5
	c-0.5,0.4-0.3,0.8,0.2,0.9c0.7,0.1,1.5-0.1,2-0.5c2.1-1.7,1.2-4.6-0.2-6.5c-0.8-1.1-1.7-2.1-2.8-3c-1.1-1-2.2-1.9-3.5-2.7
	c-0.7-0.2-1.4-0.1-2,0.3C362.6,385.8,362.1,386.2,362.7,386.5L362.7,386.5z"/>
<ellipse class="st12" cx="350.4" cy="392.8" rx="10.9" ry="9.2"/>
<circle class="st20" cx="350.9" cy="392.2" r="4.2"/>
<path class="st21" d="M344.5,385.9c0.3,0.5,0.7,1,1.1,1.4l-2.8-0.7l2.8,2l-3.5-0.6l2,1.5h-2l2.7,2.1h-4l3.3,0.6l-3.3,1l-0.5,0.2
	l3.8-0.4v1.6l-2.8,1.8l2.8-1.1l-2,2.1l2.7-0.9l-1.3,1.7l2.1-1.1l-1.5,2.4l2.6-2v3l1.2-3c-0.3,0.1,0.3,3.8,0.6,3.7
	c0.4-0.9,0.7-2,0.7-3l1.6,3v-2.9l1.9,1.3v-2.5l1.9,2.3l1.1-4.1l2.9,1.1l-2.5-2.3h3.4l-2.3-1.8l3.8-0.6l-3.2-2l1.8-1.6l-2.5,0.9
	l0.7-2.7l-1.6,1.9v-2.1l2.5,2.1l1.7,1.1l0.6,4.3l-1,2.9l-2,3.1l-1.9,0.8c0.2,1.2-4.1,1.9-4.3,0.7c-0.5,1.9-7.2,0.8-6.7-1.1
	c-0.3,0.6-2.6-1.2-2.3-1.8c-0.7,0.4-2.5-3.1-1.8-3.5c-1.6-0.2-0.6-7.5,1-7.3C341.6,386.5,344,385,344.5,385.9z"/>
<path class="st22" d="M345.4,401.3c-3.1-1.8-5-4-5.5-6.7c-0.9-4.6,2.3-8.8,2.5-9l0.6,0.5c0,0-3.2,4.1-2.3,8.3
	c0.5,2.5,2.2,4.5,5.2,6.2L345.4,401.3z"/>
<path class="st22" d="M357,401.2l-0.6-0.5c3.3-3.6,4.7-6.9,4.1-9.8c-0.8-3.7-4.5-5.4-4.6-5.4l0.3-0.7c0.2,0.1,4.2,1.9,5,6
	C362,393.9,360.5,397.4,357,401.2z"/>
<path class="st10" d="M460,395.9c-2.6,0-4.8-0.1-5.9-0.2l-2.5-0.2c-2.9-0.3-6.6-0.6-11.7-0.7h-2.5v-1h2.5c5.1,0.1,8.8,0.4,11.8,0.7
	l2.5,0.2c4.4,0.3,8.8,0.3,13.2-0.2c11.9-1.4,22.4-6.9,24.2-9.4l0.1-0.1c-1.4-0.4-2.7-1.1-3.8-2c-3-2.4-5.5-3.5-12.6-5.5
	c-3.9-1-8-1.3-12.1-0.9c-2.8,0.2-5.5,0.7-8.2,1.6c-7.5,3.2-13.8,8.6-18,15.6l-0.4,0.7l-0.9-0.5l0.4-0.7c4.3-7.2,10.8-12.8,18.5-16
	c2.7-0.9,5.5-1.5,8.4-1.6c4.2-0.5,8.4-0.1,12.4,0.9c7.2,2,9.8,3.1,13,5.7c1,0.9,2.1,1.5,3.4,1.8l0.1-0.2h0.3c0.5,0,0.7,0.3,0.7,0.5
	l0.1,0.4l-0.3,0.2c-0.1,0.3-0.2,0.6-0.4,0.8c-2.1,3-13.1,8.4-24.9,9.8C465.1,395.7,462.5,395.9,460,395.9z"/>
<path class="st10" d="M436.6,394.9c0.3,0,0.6-0.4,0.5-0.7c0-0.3-0.3-0.5-0.5-0.5c-0.3,0-0.6,0.4-0.5,0.7
	C436.1,394.7,436.3,394.9,436.6,394.9z"/>
<path class="st10" d="M437.3,394.8c0.3,0,0.6-0.4,0.5-0.7c0-0.3-0.3-0.5-0.5-0.5c-0.3,0-0.6,0.4-0.5,0.7
	C436.8,394.5,437.1,394.8,437.3,394.8z"/>
<path class="st10" d="M449.5,380.8c-1.2,0.7-2.1,1.8-2.8,3c-0.8,1.3-1.4,2.8-1.7,4.3c-0.4,1.4,0.1,3,1.2,4c1.4,1,2.8,2,4.3,2.8
	c0.7,0.4,1.3-0.6,0.6-1.1c-1.2-0.8-2.5-1.5-3.6-2.4c-1.1-0.7-1.6-2.2-1.1-3.5c0.6-2.2,1.7-4.9,3.8-6.1c0.3-0.2,0.3-0.6,0.1-0.9
	C450,380.8,449.7,380.7,449.5,380.8L449.5,380.8z"/>
<path class="st10" d="M440.5,392c0.8-1.9,2-3.6,3.6-5l-1-0.8c-0.6,1.3-2.2,1.7-3.2,2.7c-0.6,0.6-0.8,1.4-1.3,2
	c-0.6,0.6-1.1,1.3-1.5,2.1c-0.1,0.3,0.1,0.7,0.4,0.8c0,0,0,0,0,0c1,0,1.9,0,2.9-0.2c1,0,2,0,3,0.1c1,0.1,2,0.1,2.9,0.1
	c0.9,0.1,1.7,0.4,2.5,0.7v-1.2c-1.3,0.3-2.7-0.3-4.1,0c-0.7,0.1-1.4,0.3-2.1,0.4c-0.7,0.1-1.5-0.1-2.1-0.4l0.3,0.7l0.3-1.1
	c0.1-0.3-0.1-0.7-0.5-0.7c-0.3-0.1-0.6,0.1-0.7,0.4l-0.3,1.1c-0.1,0.3,0,0.6,0.3,0.7c0.7,0.3,1.5,0.5,2.3,0.6c0.8,0,1.5-0.1,2.3-0.3
	c1.6-0.3,3.1,0.3,4.7,0c0.3-0.1,0.5-0.4,0.4-0.8c-0.1-0.2-0.2-0.4-0.4-0.4c-0.8-0.3-1.6-0.6-2.5-0.8c-1-0.1-1.9,0-2.9,0
	c-1-0.1-2-0.2-3-0.2c-0.5,0-1,0.1-1.4,0.1c-0.5,0.1-1,0.2-1.5,0.2l0.4,0.8c0.4-0.7,0.9-1.4,1.5-2c0.4-0.7,0.8-1.4,1.3-1.9
	c1-0.9,2.4-1.4,3-2.7c0.2-0.3,0.2-0.7-0.1-0.9s-0.7-0.2-0.9,0.1l0,0c-1.6,1.5-2.9,3.2-3.8,5.2c-0.3,0.7,0.8,1.4,1.1,0.6L440.5,392z"
	/>
<path class="st10" d="M441.9,388.2c-0.9,0.9-1.8,1.8-2.7,2.7c-0.4,0.4-0.7,0.8-0.8,1.4c-0.1,0.5,0.2,1,0.7,1.1
	c0.5,0.1,0.8-0.3,1-0.7s0.5-1.1,0.7-1.6c0.3-1,1.1-1.9,2-2.4l-0.9-0.9l-2,4.4c-0.2,0.4,0.1,1.1,0.7,0.9c0.8-0.3,1-1.3,1.3-2
	c0.3-0.8,0.7-1.6,1.2-2.3l-1-0.6c-0.4,1.2-0.7,2.4-0.8,3.7c0,0.3,0.3,0.6,0.6,0.6c0.1,0,0.2,0,0.3-0.1c0.8-0.5,1-1.6,1.3-2.4
	l1.1-3.4l-1.2-0.2l-0.1,3c0,0.7-0.3,1.8,0.6,2.1c0.3,0.1,0.7-0.1,0.8-0.4c0-0.1,0-0.1,0-0.2c0.1-1.3,0.3-2.6,0.8-3.9h-1.2
	c0.1,0.7,0.1,1.3,0,2h1.2c-0.2-0.6-0.2-1.3-0.1-1.9c0.2-0.6,0.3-1.3,0.5-1.9c0.5-1,1.2-1.9,1.9-2.6l-1-0.8c-0.7,0.9-1.3,1.8-1.9,2.8
	c-0.1,0.3,0,0.7,0.3,0.8c0.3,0.1,0.6,0,0.7-0.2c0.6-1,1.2-1.9,1.9-2.8c0.4-0.6-0.5-1.3-1-0.8c-0.9,0.9-1.7,2-2.3,3.2
	c-0.1,0.4-0.2,0.8-0.3,1.1c-0.1,0.4-0.2,0.7-0.3,1.1c-0.1,0.7-0.1,1.5,0.1,2.2c0.2,0.5,1.1,0.6,1.2,0c0.2-0.9,0.1-1.8,0-2.7
	c-0.1-0.6-1-0.5-1.2,0c-0.5,1.3-0.7,2.8-0.8,4.2l0.8-0.6h-0.1l0.4,0.3c-0.1-0.1,0-0.6,0-0.8l0-1.1l0.1-2.1c0-0.3-0.3-0.6-0.7-0.6
	c-0.3,0-0.5,0.2-0.6,0.4l-0.9,2.8c-0.1,0.5-0.3,0.9-0.5,1.4c-0.1,0.3-0.2,0.7-0.5,0.9l0.9,0.5c0.1-1.1,0.4-2.3,0.8-3.3
	c0.1-0.3-0.2-0.7-0.5-0.7c-0.2,0-0.3,0-0.5,0.1c-0.5,0.6-0.9,1.3-1.2,2c-0.1,0.4-0.3,0.7-0.4,1.1l-0.2,0.5c0,0.1-0.1,0.2-0.1,0.3
	s-0.1,0.1,0.1,0l0.7,0.9l2-4.3c0.2-0.3,0.1-0.7-0.2-0.9c-0.2-0.1-0.4-0.1-0.6,0c-0.9,0.4-1.6,1.1-2,2c-0.2,0.5-0.5,0.9-0.6,1.4
	c-0.1,0.2-0.2,0.5-0.3,0.7s-0.1,0.3-0.2,0.4l-0.1,0.2c-0.1,0.2,0,0.1,0.3-0.1l0.4,0.2c1-1.2,2-2.2,3.1-3.3
	C443.4,388.5,442.5,387.6,441.9,388.2L441.9,388.2z"/>
<path class="st10" d="M445.5,384.2c-0.7,0-1.3,0.3-1.8,0.8c-0.4,0.5-0.8,1.1-1,1.7c0,0.2,0,0.3,0.1,0.5c0.1,0.1,0.2,0.2,0.4,0.3
	c0.2,0,0.3,0,0.5-0.1c0.1-0.1,0.2-0.2,0.3-0.4c0-0.1,0.1-0.1,0.1-0.2c0,0,0.1-0.1,0,0s0,0,0,0c0-0.1,0.1-0.2,0.2-0.3
	c0.1-0.1,0.1-0.2,0.2-0.3l0.1-0.1c0.1-0.1-0.1,0.1,0,0l0.1-0.1c0.1-0.1,0.2-0.2,0.3-0.3h0c-0.1,0.1-0.1,0,0,0l0.1-0.1l0.1-0.1
	c0,0,0.1,0,0.1,0l0,0c0.1,0,0.2-0.1,0.3-0.1h-0.2h0.2c0.3,0,0.6-0.3,0.6-0.6C446.2,384.6,445.9,384.3,445.5,384.2L445.5,384.2z"/>
<path class="st10" d="M443.3,392.3c0.3-0.5,0.6-1,1-1.4l-0.9-0.9c-0.3,0.3-0.5,0.6-0.7,1c-0.3,0.4-0.4,0.9-0.2,1.3
	c0.1,0.3,0.4,0.5,0.7,0.5c0.3,0,0.6-0.2,0.8-0.5c0.2-0.3,0.4-0.7,0.6-1.1l-1.2-0.3v1.5c0,0.3,0.3,0.6,0.7,0.6c0.3,0,0.5-0.2,0.6-0.4
	l0.8-2.3l-1.2-0.2l0,1.6c0,0.5,0,1.1,0.6,1.4c0.3,0.2,0.7,0.1,0.9-0.2c0,0,0-0.1,0.1-0.1c0.1-0.2,0.1-0.4,0.1-0.6c0-0.1,0-0.2,0-0.2
	c0,0,0-0.1,0-0.1l0,0l-0.2,0.3l0,0l-0.3,0.2c-0.1,0-0.3,0-0.3-0.1l0.1,0.1c0,0,0.1,0.1,0,0l0.1,0.2c-0.1-0.1,0,0.1,0,0.1
	c0.1,0.2,0.2,0.4,0.4,0.5c0.1,0.1,0.2,0.1,0.4,0.1h0.1c-0.1,0-0.2-0.1-0.3-0.2l-0.1-0.3l0,0c0,0.3,0.3,0.6,0.6,0.6
	c0.3,0,0.6-0.3,0.6-0.6c0-0.3-0.2-0.5-0.4-0.7c-0.1-0.1-0.3-0.1-0.4-0.1H446c0.3,0.4,0.5,0.5,0.4,0.3c-0.1-0.3-0.3-0.6-0.5-0.9
	c-0.2-0.2-0.4-0.3-0.7-0.3c-0.3,0-0.5,0.1-0.6,0.4c-0.1,0.2-0.1,0.4-0.1,0.7c0,0,0,0.1,0,0.1c0,0,0,0,0,0c0,0.1,0,0.2-0.1,0.3
	l0.9-0.4c-0.1,0,0,0,0,0.1l0,0l0,0c0,0,0,0,0-0.1s0,0.1,0,0s0-0.4,0-0.6V390c0-0.3-0.2-0.6-0.5-0.6c-0.3,0-0.6,0.2-0.7,0.5l-0.8,2.3
	l1.2,0.2v-1.5c0-0.3-0.2-0.5-0.5-0.6c-0.3-0.1-0.6,0-0.7,0.3c-0.1,0.2-0.2,0.5-0.4,0.7c-0.1,0.1-0.1,0.2-0.2,0.3c0,0.1,0,0.1,0,0
	l0.8,0.2c0,0.1,0,0.1,0,0c0,0.1,0,0.1,0,0.1s0.1-0.2,0-0.1s0-0.1,0.1-0.1c0.1-0.2,0.2-0.4,0.4-0.6l0,0l0.1-0.1l0.1-0.2
	c0.2-0.2,0.2-0.6,0-0.9c0,0,0,0,0,0c-0.2-0.2-0.6-0.2-0.9,0c-0.5,0.5-0.9,1.1-1.2,1.7c-0.2,0.3-0.1,0.7,0.2,0.9
	c0.3,0.2,0.7,0.1,0.9-0.2L443.3,392.3z"/>
<path class="st10" d="M436.2,393.5l-0.2,0.1c-0.1,0-0.1,0.1-0.2,0.1c-0.1,0.1-0.1,0.2-0.2,0.2c-0.1,0.1-0.1,0.2-0.1,0.3v0.1v0.2
	c0,0.1,0,0.1,0,0.2c0,0.1,0.1,0.1,0.1,0.2c0,0,0.1,0.1,0.2,0.1c0.1,0,0.1,0,0.2,0c0.1,0,0.3-0.1,0.4-0.1l0.1-0.1
	c0-0.1,0.1-0.2,0.1-0.3l0,0v0.1c0-0.1,0-0.1,0-0.2l0,0.1l0.1-0.2l-0.1,0.1l0.1-0.1l-0.1,0.1c0,0,0.1-0.1,0.1-0.1h-0.1l0,0
	c0.1,0,0.1,0,0.2-0.1c0.1,0,0.1-0.1,0.1-0.1c0-0.1,0.1-0.1,0.1-0.2c0-0.1,0-0.1,0-0.2c0-0.1-0.1-0.2-0.2-0.3l-0.1,0
	C436.4,393.4,436.3,393.4,436.2,393.5L436.2,393.5z"/>
<path class="st10" d="M435.9,395.1c2.1-0.2,4.3-0.2,6.4-0.2c0.3,0,0.5-0.2,0.5-0.5s-0.2-0.5-0.5-0.5c-2.1-0.1-4.3,0-6.4,0.2
	C435.3,394.2,435.3,395.2,435.9,395.1z"/>
<path class="st10" d="M450.7,394.7c0.1,0.1,0.1,0.1,0.2,0.1l0.2,0.1l0.2,0.1c0.1,0,0.1,0,0.2,0c0.1,0,0.1,0,0.2-0.1
	c0.1,0,0.1-0.1,0.1-0.1c0,0,0.1-0.1,0.1-0.2v-0.1c0-0.1,0-0.2-0.1-0.3l-0.1-0.1c-0.1-0.1-0.1-0.1-0.2-0.1l-0.1,0l0.1,0
	c-0.1-0.1-0.2-0.1-0.3-0.2c-0.1,0-0.1-0.1-0.2-0.1c-0.1,0-0.1,0-0.2,0c-0.1,0-0.1,0-0.2,0.1c-0.1,0-0.1,0.1-0.1,0.1l0,0.1
	c0,0.1,0,0.2,0,0.3l0,0.1C450.6,394.6,450.6,394.7,450.7,394.7L450.7,394.7z"/>
<path class="st10" d="M451.2,379.4c-0.5,0.3-0.9,0.6-1.3,1c-0.1,0.1-0.2,0.2-0.1,0.4c0,0.1,0.1,0.3,0.1,0.4c0.1,0.1,0.2,0.1,0.4,0.1
	h0.1c0.1,0,0.2-0.1,0.2-0.1l0.3-0.2l-0.1,0.1c0.3-0.2,0.6-0.5,1-0.7c0.1-0.1,0.2-0.1,0.2-0.3c0-0.1,0-0.3,0-0.4
	C451.8,379.4,451.5,379.3,451.2,379.4L451.2,379.4z"/>
<path class="st10" d="M477.6,392.4c2.5-0.8,5-1.7,7.4-2.7c1.8-0.8,4.4-2.3,3.2-4.6c-1-2-3.6-2.6-5.3-3.9c-0.8-0.7-1.7-1.2-2.6-1.7
	c-0.9-0.4-2-0.9-2.4-1.9c-0.3-0.6-1.2-0.3-1,0.3c0.7,1.7,2.4,2.1,3.9,3c0.9,0.5,1.7,1.3,2.6,1.9s1.8,0.9,2.6,1.5s2,1.9,1.1,3
	c-0.8,0.8-1.8,1.4-2.9,1.8c-2.2,1-4.6,1.7-7,2.5C476.7,391.6,477,392.6,477.6,392.4L477.6,392.4z"/>
<path class="st10" d="M479.5,378.9c1.8,1.5,3.6,2.8,5.6,4c0.2,0.1,0.5,0.1,0.7-0.2c0.1-0.2,0.1-0.4-0.1-0.6l-2.3-2.4l-0.6,0.8
	c2,1.1,3.8,2.7,5,4.6c0.2,0.2,0.5,0.3,0.7,0.2c0.1-0.1,0.2-0.2,0.2-0.4c-0.1-1.1-0.6-2-1.5-2.6c-0.5-0.3-1,0.4-0.6,0.8l2,1.8
	c0.4,0.5,1.1,0.9,1.7,1.1c0.3,0,0.5-0.2,0.5-0.5c0,0,0-0.1,0-0.1c-0.2-0.7-0.7-1.2-1.3-1.6c-0.5-0.3-1,0.4-0.6,0.8
	c0.5,0.6,1.1,1,1.9,1.2l0.1-1c-1.7,0-3,1.3-3.9,2.5c-0.3,0.3,0,1,0.5,0.8c1.3-0.5,2-1.8,1.8-3.1c-0.1-0.4-0.6-0.4-0.8-0.2
	c-0.7,0.6-1.3,1.9-0.2,2.4c0.5,0.3,1,0,1.4-0.4l2-1.4c0.5-0.4,0-1.2-0.5-0.9l-2,1.3c-0.1,0.1-0.5,0.5-0.6,0.3s0.4-0.6,0.5-0.7
	l-0.8-0.2c0.1,0.8-0.3,1.6-1.1,1.9l0.5,0.8c0.8-1,1.8-2.3,3.2-2.2c0.3,0,0.5-0.2,0.6-0.4s-0.2-0.5-0.4-0.6l0,0
	c-0.6-0.2-1.1-0.5-1.4-1l-0.6,0.8c0.4,0.2,0.7,0.6,0.8,1l0.5-0.6c-0.5,0-1.1-0.9-1.5-1.2l-1.5-1.4l-0.6,0.8c0.6,0.4,1,1,1,1.8
	l0.9-0.3c-1.3-2.1-3.2-3.8-5.3-5c-0.5-0.3-1,0.4-0.6,0.8l2.3,2.4l0.6-0.8c-1.9-1.2-3.7-2.5-5.4-3.9
	C479.7,377.8,479,378.5,479.5,378.9L479.5,378.9z"/>
<path class="st10" d="M479.1,378.7c1,0.8,2.3,1.3,3.6,1.3l-0.5-0.5l0,0c-0.2,0.2-0.2,0.5,0,0.7c0,0,0.1,0.1,0.1,0.1
	c1.2,0.7,2.4,1.4,3.7,1.9c0.6,0.2,1.2,0.5,1.6,1c0.5,0.6,1,1.2,1.5,1.8s1.1-0.2,0.7-0.7s-1-1.2-1.5-1.8c-0.4-0.5-1-0.8-1.6-1
	c-1.4-0.6-2.7-1.2-4-2l0.1,0.8c0.2-0.2,0.3-0.4,0.3-0.7c0-0.3-0.2-0.5-0.5-0.5c-1.1,0-2.1-0.3-2.9-1c-0.5-0.4-1.2,0.3-0.7,0.7
	L479.1,378.7z"/>
<path class="st10" d="M475.5,393.5c0.9-0.2,1.7-0.6,2.4-1.2c0.1-0.1,0.2-0.2,0.2-0.3c0.1-0.3-0.1-0.5-0.4-0.6c-0.1,0-0.3,0-0.4,0.1
	c-0.3,0.3-0.7,0.5-1.1,0.7l-0.3,0.1c0,0,0,0,0,0H476l-0.1,0.1c-0.2,0.1-0.4,0.1-0.6,0.2c-0.3,0.1-0.4,0.4-0.3,0.6
	C475,393.4,475.2,393.6,475.5,393.5L475.5,393.5z"/>
<path class="st10" d="M476.5,377.7l1.3,0.7l0.3-0.9l0,0c-0.3,0-0.5-0.1-0.8-0.2l0.1,0h-0.1c-0.1-0.1-0.3-0.1-0.4,0
	c-0.1,0-0.2,0.1-0.3,0.2c-0.1,0.1-0.1,0.3,0,0.4c0,0.1,0.1,0.2,0.2,0.3c0.2,0.1,0.4,0.2,0.6,0.2c0.2,0.1,0.4,0.1,0.6,0.1h0.1
	c0.1,0,0.1,0,0.2-0.1c0.1-0.1,0.2-0.2,0.2-0.3c0.1-0.2,0-0.4-0.2-0.6l-1.3-0.7c-0.1-0.1-0.3-0.1-0.4,0c-0.3,0.1-0.4,0.3-0.4,0.6
	C476.2,377.6,476.3,377.7,476.5,377.7L476.5,377.7z"/>
<path class="st10" d="M479.8,378.9c-0.6-0.5-1.4-0.9-2.1-1c-0.8-0.2-1.4-0.6-1.9-1.3c-0.2-0.2-0.5-0.2-0.7,0c-0.2,0.2-0.2,0.5,0,0.7
	c0,0,0,0,0,0c0.6,0.7,1.3,1.2,2.1,1.4c0.4,0.1,0.7,0.2,1.1,0.3c0.3,0.1,0.6,0.3,0.9,0.5c0.2,0.2,0.5,0.2,0.7,0
	S480,379.1,479.8,378.9L479.8,378.9L479.8,378.9z"/>
<ellipse class="st20" cx="463.8" cy="383.9" rx="4.4" ry="4.1"/>
<path class="st21" d="M455.8,380.7l1.6,1.5h-2.2l2.2,1.7h-2.9l2.9,1l-2.9,1.3h2.4l-1.7,2.1l2.2-0.3l-1.5,2h2.3l-1.2,1.6l1.8-0.5
	l-0.8,2.1l1.6-1.6l0.8,1.9l0.8-1.9l1.2,1.8l0.6-1.8l1.3,1.8l1.3-2.2l0.8,1.6l0.7-1.6l1.9,2.1l-0.6-2.9l2.2,2.3l-0.8-3.1l2.7,1
	l-1.7-1.9h3l-2.1-2.4h2.4l-2-0.8l2-0.6l-2.5-1h0.8l1.8-0.7l-2.6-1l2.3-0.4l-2.4-0.5l1.9-0.8l-2-0.1c0,0,0.3-1.5,0.7-1
	s1.6,0.5,2.6,3.9c0.6,1.9,0.3,4-0.8,5.7l-4,4.1l-6.6,0.8l-5.8-0.6c1.2,0.1-2-1-2.8-3.9c-0.4-2.3-0.4-4.7,0-7l0.8-1.8L455.8,380.7"/>
<path class="st23" d="M459.9,394.9c-4.1-2-6.4-4.5-6.8-7.6c-0.8-4.9,3.6-9.2,3.8-9.3l0.5,0.5c0,0-4.3,4.2-3.6,8.7
	c0.4,2.8,2.6,5.1,6.4,7L459.9,394.9z"/>
<path class="st22" d="M470.1,393.9l-0.5-0.6c3.9-3.1,5.7-6.1,5.3-9c-0.6-5-7.4-8-7.4-8.1l0.3-0.7c0.3,0.1,7.2,3.3,7.9,8.7
	C476.1,387.4,474.2,390.6,470.1,393.9z"/>
<path class="st10" d="M439.1,383.2c0,0,9.1-9,14.1-10.6s14.5-2.3,14.5-2.3l12.2,1.1l10.5,3.2c0,0,9.5,7.2,9.1,7.6s-8.8-6.3-8.8-6.3
	l-10-3.5c0,0-6.3-0.7-13.1-1.1s-12,2.6-13.5,2.2S439.1,383.2,439.1,383.2z"/>
<path class="st10" d="M439.2,383.3l-0.2-0.2c0.1-0.1,9.1-9,14.2-10.7s14.4-2.3,14.5-2.3l12.2,1.1l10.6,3.3c1.5,1.2,9.1,7,9.2,7.6
	c0,0,0,0.1,0,0.1c-0.1,0.1-0.3,0.3-4.7-3c-2-1.5-4-3.1-4.2-3.3l-9.9-3.5c0,0-6.3-0.7-13.1-1.1c-3.5-0.1-7,0.5-10.3,1.6
	c-1.5,0.5-2.7,0.8-3.3,0.6H454C452.6,373.6,444.5,379.3,439.2,383.3z M466.5,371.2h1.2c6.8,0.4,13.1,1.1,13.2,1.1l10,3.5
	c2.7,2.2,5.5,4.3,8.5,6.2c-2.9-2.6-5.9-5-9-7.3l-10.5-3.2l-12.2-1.1c-0.1,0-9.4,0.6-14.4,2.3c-3.7,1.3-9.8,6.6-12.6,9.2
	c3.6-2.7,11.7-8.5,13.4-8.5h0.1c0.5,0.2,1.6-0.1,3.1-0.6C460.3,371.8,463.4,371.2,466.5,371.2L466.5,371.2z"/>
<path class="st10" d="M326.7,386.5c-0.9-0.5,34.8-20.3,50.1,0.3C376.9,386.8,367.8,374.6,326.7,386.5z"/>
<path class="st10" d="M376.8,386.8c0,0-2.4-3-9.6-4.6c-6.7-1.4-19.2-1.8-40.4,4.3l0,0l0,0c-0.1,0-0.1-0.1-0.1-0.1
	c0-0.5,7.1-4.6,16-7c10.9-3.1,25.7-4.3,34.4,7.3l0,0L376.8,386.8z M356.4,377.5c-1.3,0-2.6,0.1-4,0.2c-8.9,1-17.6,3.9-25.3,8.5
	c21-6,33.4-5.6,40.1-4.2c3,0.5,5.9,1.7,8.5,3.5C371.1,380.2,364.6,377.5,356.4,377.5L356.4,377.5z"/>
<path class="st24" d="M525.4,463.1c0,0,6.7,56.2-55.1,93.4c0,0,62.5-67.8,56-97.9S525.5,463.1,525.4,463.1"/>
<polygon class="st2" points="305.8,337.6 324.6,304.8 341.6,323.9 354.8,289.3 345.6,325.7 325.4,312 "/>
<path class="st25" d="M315.1,534.3c0,0-4.3,10.1-3.4,14.6s-0.1,5.4-0.1,5.4l-3.7-4.3l-2.2-5.7l-3.8-2.5l-2.4-3.8l-3.8-3.7
	c0,0-6.2-0.4-5.8-2.3s-6.2,9.1-6.2,9.1s-1.9-4.8,0-13.2l1.9-8.4c0,0-2.6-6-1.4-7s4.6-3.6,4.6-3.6v-4.3c0,0-6.5,0.5-5.9,1.9
	s-1.9-7.4,0-7.7s-8.7,6.5-8.7,6.5l-5.3-1.7l-1.4-4.8c0,0,0-12-1.2-7.9s-2.6,1.2-2.6,1.2v-3.8l-2.9,5.8l1.9-11c0,0,4.6-12.5,2.2-17.5
	s-8.6-8.4-9.4-8.9s-3.4-1.9-3.4-1.9l-1.5-7.7c-2-2-4.5-3.3-7.2-3.8v-2.6c0,0-14.6-11-17.3-19.2c-1.8-5.3-4.1-10.3-7-15.1
	c0,0-6.5-22.8-2.9-32.2s-1.1-20.6-1.1-20.6s3-26.6,1.1-28.1s-6.2-10.5-6.2-10.5s-9.8-19.9-4.3-24.5s-3.4,9.4-3.4,9.4l-1.4-9.1
	l1.4-6.7l2.9-3.8l5-6l2.4-2.9c0,0-1.4-17.5,2.6-18s-3.1-13.9,0-15.6s-9.1,25.7-9.1,25.7s-1.2-17.8,4.3-24c3.8-4.6,7-9.6,9.6-14.9
	c0,0,12.5-16.1,17.8-20.4c3.9-3.4,7.5-7,10.8-11l3.6-2.9l-9.4,5.5l5.3-7.9l8.6-6.2l-11.3,7.4l-6,4.1l-2.2,3.8l-3.3,5.5
	c3.6-9.4-0.2-6.2,6.2-13s11-9.1,11-9.1s-14.9,9.4-17,10.3s8.4-10.3,13.2-14.2s15.8-19.7,15.8-19.7l18.6-7.6c0,0-3,3.5,8.5-4
	c7.3-4.6,15.2-8,23.5-10l10.3-6.2c0,0,7.7-1.9,10.3-1.4s7-3.1,7-3.1h8.4l14.2-4.1l10.8-2.9c14.2,2.6,11.1,5.5,14.2,2.6
	s4.6,4.8,4.6,4.8s1.7-1.9,2.6-2.9s6.5,1.4,6.5,1.4l2.9,4.6l1.7,5.5l2.4,1.4l6.5-1.9c0,0,4.3-6.7,8.9-5.5c4.6,1.2,13.4-1.9,13.4-1.9
	s45.8,0.7,47.5,7s23.3,9.4,23.3,9.4l12.4,12.2l10.1,13.9c0,0-14.4-14.2-21.1-16.1s2.9,7.4,2.9,7.4s10.6,8.2,18.2,14.4
	s17.8,18,17.8,18v2.9c0,0,7.7,6,7.4,9.1s3.1,4.3,3.1,4.3v10.6l-5.3-8.2c0,0,7.2,17,7.2,20.6s16.3,25,12,30s4.8,14.2,4.8,14.2
	s3.6,20.4,0,19.4s3.6,18.5,3.6,18.5s5.5,11.8,0,4.1s-4.1,8.4-4.1,8.4l0.5,13.9l-3.6-10.3l1,14.6c0,0-4.6,8.4-2.4,11.5
	s-4.3-1.4-4.3-1.4s3.6,20.4,2.4,25.7s-4.6,26.2-8.6,25.2s-14.9,31.2-12.5,31.7s9.1,21.4,9.1,21.4l-6.7-12.2c0,0-3.4-5.5-4.3-4.8
	s3.6,0.5,0.7,8.6s-8.4,10.1-8.4,10.1l-2.4,10.6c0,0,14.9,13,11.5,11.5s-13-8.2-13-8.2s3.6,4.8,0,7.4s-6,2.9-6,2.9s1.7,14.6,0.2,17.8
	s-4.3,10.1-4.3,10.1l-9.1,4.1l-6,2.6l4.6-10.8c0,0,8.9-18,8.9-25.4s0.7-23.5,0.7-23.5s7.4-4.3,10.6-10.6s3.6-19.2,7-19.2
	s1.9-5.5,1.9-5.5s5.5-4.6,7-8.9s0.7-5.5,0.7-5.5l-7.9,8.6l-7.2,9.4l-10.3,19c0,0,8.2-37.2,7.2-45.4s-1.9-15.6-1.9-15.6l-1-4.3v-8.2
	l2.9-5c0,0-3.6-20.9-3.6-28.6s0,0,0.5-22.1c-8.2,3.8-17.5-11.2-14.2-14.9s-6-6.7-6-6.7L516,306c0,0,9.8,2.9,7.9,14.6
	s16.6,13.2,16.6,13.2s-13.7,2.4-17.8-5S508.4,307,508.4,307s-5.1-12.4-8-10.2s2.2-8.4,2.2-8.4s-11-18-2.9-0.7
	c5,10.5,9.3,21.4,13,32.4l9.3,12.2l4.3,3.5l-12-5.9l-6-7.7l-7.1-6.4l-7.7-11.5c0,0-8.3-4.3-10.5-8.1s0.2-8.8,0.2-8.8
	s23.7,23.6,10.2,16.9s-13.8-21.4-13.8-21.4s20.2,3.8,12.1,13s-0.5,0-0.5,0l4.9,13.8l20.5,26.5l-39.3-32.5c0,0,26,28.1,27.7,26.7
	s-2.6,1.7-2.6,1.7s29.3,36.2-12.7-8.4s1.4,9.6,8.6,9.8c5.4,0.3,10.8,1.1,16.1,2.3l4.3-1.6c0,0-10.3,13-17.5,8.4
	s-26.2-19.4-26.2-19.4l-12.5-10.6c0,0-14.2-12.2-7-1.9s18.3,20.2,18.3,20.2l8.2,6.2l6-0.2c0,0-5.8,7.9-7.7,5.3s-14.4-8.4-14.4-8.4
	l-10.6-7.9c3.1,4.9,7.3,8.9,12.2,11.8c4.5,2.5,9.1,4.6,13.9,6.2l-15.4-1.9l-14.2-1.4l-11.3-7.7l-15.6-12.2l8.2,13.2l14.4,9.1
	l-14.4-4.8l-7-6.7l-6-9.4c0,0,5.3,19,10.3,20.4s17.8,5.8,17.8,5.8l-26.9-8.9l-5.5-11c0,0-1.9-11.5-8.9-20.9s-7.2-16.6-7.2-16.6
	s-10.6-13.3-9.8-16.1c1.7-6.5,30.7,63.3,29.5,65.3l-5.3-7.9l-4.3-7.2l-2.4-4.1l0.7,17.8l-7.7-8.6l8.6,25.4l-17.8-27.1l-0.5,33.8
	l-5-40.6l-6.5,36.7c0,0-3.6-37.7-4.8-46.8s-6.5,60-6.5,60l-23-86.2l-17,54.5c0,0,0.2,34.8,1.2-29.5s-25.2,47.3-25.2,47.3l6.6-56.9
	l-11.8,47l-7.9-38.9c0,0-3.4,55.2,0,59.5s-21.1-28.6-16.6-43s-9.1,35-4.6,50.4s3.8,45.6,3.8,45.6l9.4,40.3l-19.2-19.4
	c0,0-4.1,8.9-5.5,1.9c-1.1-4.5-2.9-8.9-5.5-12.7l-4-1.4c0,0-1.9,2.4-0.2,6.5s10.1,14.6,12.2,14.9s9.4,13.4,9.4,18.7
	s10.3,10.3,10.3,10.3l7.9,1c0,0,12.2,34.6,14.4,34.6S315.1,534.3,315.1,534.3z"/>
<path class="st25" d="M536,256.4c-14.9-14.8-30.6-28.8-47.1-41.8c-8.3-6.6-16.8-12.9-25.5-19.1c-8.2-5.8-16.6-11.5-26-15.4
	c-10.1-4.2-21.4-6.2-31.9-2.4c-1.3,0.4-2.1,1.7-1.8,3.1c0.4,1.3,1.7,2.1,3.1,1.8c18.5-6.7,37.4,5.6,51.9,15.8
	c16.8,11.8,32.9,24.5,48.3,38c8.7,7.6,17.1,15.5,25.3,23.6C534.8,262.2,538.3,258.7,536,256.4L536,256.4z"/>
<path class="st25" d="M552,226c-12.7-6.6-23.9-15.6-34.8-24.7s-21.9-18.8-34.1-26.6c-6.8-4.4-14-8.1-21.6-10.9
	c-1.3-0.4-2.7,0.4-3.1,1.7c-0.4,1.3,0.4,2.7,1.7,3.1c13.1,4.8,24.9,12.9,35.8,21.5c11.2,9,21.9,18.7,33.4,27.3
	c6.4,4.9,13.1,9.2,20.2,13C552.3,231.8,554.9,227.5,552,226L552,226z"/>
<path class="st25" d="M496.8,285.4c5.8,10,12.8,19.3,20.8,27.6c2,2,5.5-0.6,3.9-3l-9.5-14.7l-2.2,3.8c5.7,0.4,9.9,5.6,13.3,9.7
	l3.5-3.5c-11-8.5-21.1-18.1-30.3-28.6c-1-1-2.6-0.9-3.5,0.1c-0.9,1-0.9,2.5,0,3.5c9.2,10.5,19.3,20,30.3,28.6c1,1,2.6,0.9,3.5-0.1
	c0.9-1,0.9-2.5,0-3.5c-4.4-5.3-9.5-10.7-16.8-11.2c-1.4,0-2.5,1.2-2.5,2.5c0,0.4,0.1,0.9,0.3,1.2l9.4,14.7l3.9-3
	c-7.8-8-14.5-16.9-20-26.6C499.5,280.1,495.2,282.6,496.8,285.4L496.8,285.4z"/>
<path class="st25" d="M504.7,294.5c3.2,0,3.2-5,0-5S501.5,294.5,504.7,294.5z"/>
<path class="st25" d="M522,314.1c1.8,4.2,4.4,8.2,7.5,11.6c1.4,1.5,4.5,0.4,4.3-1.8l-0.9-9.2c0-1.2-0.9-2.3-2.2-2.5
	c-1.2-0.2-2.4,0.6-2.7,1.8c-1.1,5-1.4,10.2-0.8,15.3l4.3-1.8c-0.2-0.2-0.5-0.5-0.7-0.7l-0.3-0.4c-0.5-0.6,0.1,0.2-0.2-0.2
	c-0.4-0.5-0.8-1.1-1.1-1.7c-0.2-0.3-0.4-0.7-0.5-1l-0.2-0.5c-0.1-0.1-0.2-0.3,0-0.1c-0.3-0.7-0.5-1.3-0.7-2c-0.2-0.7-0.3-1.3-0.4-2
	c-0.1-0.4,0,0.4,0-0.1c0-0.2,0-0.3,0-0.5c0-0.4,0-0.8-0.1-1.1c0-0.7,0-1.3,0.1-2c0-0.1,0-0.3,0-0.4c0,0.2,0-0.3,0-0.3
	c0.1-0.4,0.2-0.7,0.2-1.1c0.4-1.3-0.4-2.7-1.7-3.1c-1.3-0.4-2.7,0.4-3.1,1.7l0,0c-1.6,6.8,0.3,13.9,5.2,18.9c1,1,2.6,0.9,3.6-0.1
	c0.4-0.5,0.7-1.1,0.7-1.7c-0.6-4.6-0.4-9.4,0.6-13.9l-4.9-0.7l0.9,9.2l4.3-1.8c-2.8-3.1-5.1-6.7-6.7-10.6c-0.7-1.2-2.2-1.6-3.4-0.9
	C521.8,311.4,521.4,312.9,522,314.1L522,314.1z"/>
<path class="st25" d="M396.9,289.1c2.6,10.4,6.5,20.5,11.6,29.9c1.5,2.8,5.8,0.3,4.3-2.5c-4.9-9.1-8.6-18.7-11.1-28.7
	C400.9,284.7,396.1,286,396.9,289.1z"/>
<path class="st25" d="M454.1,309.5l5,5c0.5,0.5,1.1,0.7,1.8,0.7c1.4,0,2.5-1.1,2.5-2.5c0-0.7-0.3-1.3-0.7-1.8l-5-5
	c-0.5-0.5-1.1-0.7-1.8-0.7c-1.4,0-2.5,1.1-2.5,2.5c0,0,0,0,0,0C453.3,308.4,453.6,309.1,454.1,309.5z"/>
<path class="st25" d="M465.1,319c3.2,0,3.2-5,0-5S461.9,319,465.1,319z"/>
<path class="st25" d="M463.3,310.3c-0.5,0.4-0.9,0.9-1.2,1.4c-0.1,0.2-0.2,0.4-0.3,0.5c-0.2,0.4-0.3,0.8-0.5,1.1
	c-0.1,0.4-0.2,0.8-0.2,1.2c0,0.2,0,0.4,0,0.6c0,0.6,0.1,1.3,0.3,1.9c0.2,0.6,0.6,1.1,1.1,1.5c0.6,0.3,1.3,0.4,1.9,0.3
	c1.3-0.4,2.1-1.7,1.8-3.1c-0.1-0.3-0.2-0.5-0.2-0.8l0.1,0.7c0-0.4,0-0.7,0-1.1l-0.1,0.7c0.1-0.3,0.1-0.7,0.3-1l-0.3,0.6
	c0.1-0.3,0.3-0.6,0.5-0.9l-0.4,0.5c0.2-0.2,0.4-0.5,0.7-0.7c0.2-0.2,0.4-0.5,0.5-0.8c0.2-0.3,0.2-0.7,0.2-1c0-1.4-1.1-2.5-2.5-2.5
	c0,0,0,0,0,0l-0.7,0.1C464,309.7,463.6,309.9,463.3,310.3L463.3,310.3z"/>
<path class="st26" d="M298.7,195.1c-9.5-2.1-19.5,3.1-25.7,10.7s-9.4,17.1-12.1,26.4c-8.6,29.9-14.5,60.5-17.9,91.5l9.4-35.2
	l6.7-21.7l15.4-48.7L298.7,195.1z"/>
<path class="st27" d="M304.1,366.9l6.2-6l5.5-4.3l9.1-3.8l3.9-2.4l4.7-2.9h1.9l-5.3,5.3l8.9-5.3l-6.2,5.6l8.9-3.6
	c0,0,7,0.7,10.6,1.2c3,0.3,5.9,0.3,8.9,0c0,0,11.4-0.7,12.5,1s5.9,6.7,5.9,6.7l1.9,12l-4.8-3.4h-4.1l-1.9,3.4l-2-3.6l-12.1-2.2
	c0,0-13.9,1.9-15.8,0.5s-8.6-2.2-8.6-2.2c-4-0.9-8.2-0.6-12,1c-5.8,2.6-9.1,2.4-9.1,2.4L304.1,366.9z"/>
<path class="st27" d="M512.6,363c0,0-4.3-9.1-8.4-12s-8.6-6.7-8.6-6.7l-7.2-3.1l-11.5-1.8l-10.6,2.5l-5.5,1.7l-9,3.8l-10.1,6.5
	l-3.6,1v1.9l-4.3,3.6v3.6l2.9,3.1l1.7-2.6l4.8-1.9l5-1l6-0.7l1.5-2h5l5.2-1.3c0,0,4.8-1.2,7.2-3.1s9.4,0.2,9.4,0.2l6.5-1.4l5.5,1.1
	l7.9,2.4L512.6,363z"/>
<path class="st28" d="M387.7,471.3c0,0-1.5-1.4,5.2-2.2s6.3-1.4,8.9,0c1.6,1,3.1,2.2,4.3,3.6c-0.9,1.3-2.1,2.3-3.6,2.9
	c-2.2,0.7-5.6,0-5.6,0l-6.2,0.3l-5-2.1L387.7,471.3z"/>
<path class="st28" d="M388.8,438.5c0,0-0.4,2.9-3.2,10.1c-1.1,3.1-2.5,6.1-4,9c0,0-3.6,4-2.5,7.2s2.5,6.5,2.5,6.5l4,2.5h-5.4
	l-3.6-5.5v-4.9l2.5-7.2l2.5-2.9L388.8,438.5z"/>
<path class="st28" d="M425.9,474.5l3-4.8l4.5-3.4l4.6-2.6c0,0,3.3-1.6,4.1,0s1.9,2,0,4.3s-9,6.5-9,6.5l-4.2,1.4L425.9,474.5z"/>
<path class="st26" d="M231.1,347.4c25.2,76.3,46.1,151.2,25.2,76.3s-16.6-73.4-20.9-74.9"/>
<path class="st26" d="M313.3,247.1c0.7,2.2-10.3,62.1-17.3,62.6S313.3,247.1,313.3,247.1z"/>
<path class="st29" d="M352.4,271.1c0,0,13.3,57.6,12.6,61.2s-6.3-61.2-6.3-61.2H352.4z"/>
<path class="st25" d="M416.2,271.1c0,0,25.2,60.4,32.8,61.4l7.6,0.9l-11.5-9.7L416.2,271.1z"/>
<path class="st10" d="M409.3,256.7c0,0,37.1,74.8,42.1,75.8"/>
<path class="st10" d="M512.6,259.4c0,0,31,33.6,30.5,64.8s0,36.4,0,36.4s5.8-21.5-4.1-46.3s-26.4-53-26.4-53L512.6,259.4z"/>
<path class="st26" d="M358.8,147.3c-0.5,1.5-1,3-1.5,4.6c-17.9,55-39.8,116.2-39.8,116.2l47.5-115.7L358.8,147.3z"/>
<path class="st26" d="M515,228.1c0,0,54.5,94.9,43.7,125.1s-13.9,38.1-13.9,38.1s19-14.4,19-43.9s-7.9-59-7.9-59L515,228.1z"/>
<path class="st10" d="M434.2,191.2c63,112.2,65.2,118.4,66.6,118.4s-64.4-118.4-64.4-118.4"/>
<path class="st10" d="M473.3,143.3c30.4,15.8,72.8,61.6,82.6,84.8s16.9,49.8,16.9,52s-24.5-68-31-68.4S506.5,173,499,166.1
	S473.3,143.3,473.3,143.3z"/>
<path class="st30" d="M415.9,714.4L457,737l-22.7,7.7l-24.8,27.6l5.7-21.8c0,0,5-14.2,1.3-33.7"/>
<path class="st30" d="M408.5,687.7l7.9-18.7l3.2,9.4l26.8-9.4l21.6,18.7c0,0-11.1,16-9.6,20.4S408.5,687.7,408.5,687.7z"/>
<path class="st31" d="M419.6,660.3c0,0-19.3,42.8-20.7,49.3s-12.6,49.7-12.6,49.7l-2.6,12.9c0,0-84.9-58.9-93.2-142.7L290,625
	l9.6-29.9l9-25.4l8.8-21.7c0,0,5.2,18.5,3.6,21.4s8.5,32,14.4,36.7s32.2,26.3,32.2,26.3s23.6,16,30.1,17.2c0,0,21.9,4.1,21.9,7.4
	L419.6,660.3z"/>
<path class="st31" d="M416.4,668.9l3.2,9.4c0,0,30.8-12.2,35.1-9.4s23,31.7,27.7,51.8c0,0,9,30.6,9,34.2s27-39.6,29.5-45.4
	s13.3-37.4,13.3-37.4s16.2-33.8,15.1-45.4c0,0-0.4-26.8-7.9-38.4s-14.7-21-14.7-21l-3-10.9l-4-8.5l-6.1-10.1h-3l4.8,11l-9.7,39.5
	l-15.5,19.7l-23,25.6l-19.1,12.9l-4.9,5.8l-23.7,4.6L416.4,668.9z"/>
<path class="st31" d="M405.8,691.8c0,0,17.5,22.6,10.6,55.7c0,0-12.2,35-7.4,38.4s-25.2-13.7-25.2-13.7
	C375.5,770,397.6,689.5,405.8,691.8z"/>
<polygon class="st32" points="408.5,676.5 370.8,762.1 408.5,685.5 "/>
<path class="st32" d="M467.1,688.5c0,0,19.4,72.2,18.4,74.1s5.9-7.6,5.9-7.6C497.3,752.9,473,686.4,467.1,688.5z"/>
<path class="st33" d="M468,687.7c0,0-6.7,7.5-8.1,14.3s-5.3,19-5.3,23.9S457,737,457,737l7.7,14.4l5.7,10.7l6.8,10.1l11.5-12.7
	L468,687.7z"/>
<polyline class="st34" points="454.7,668.9 466.3,684.9 440.3,672.4 438.5,671.6 "/>
<path class="st34" d="M408.5,687.7c0,0,45.5,13.5,49.9,20.3c0,0-7.6,23.6-1.4,28.9s-39-17.7-39-17.7l-12.2-27.4L408.5,687.7z"/>
<path class="st34" d="M412.4,765.3c3.7,0,21.5-22.4,21.5-22.4l24.1-5.8c0,0-9.2,13-8.7,15.1s1,7.7,1,7.7l-10.3,12.3L426.7,797
	l-19-11C407.2,779,408.7,765.3,412.4,765.3z"/>
<path class="st34" d="M469.1,759.9l8,12.3c0,0-16.9,18-18.8,18h-1.9c0,0,15-14.1,13.8-22.2L469.1,759.9z"/>
<path class="st30" d="M419.6,799.4c1.9-4.8,18,4.1,20.2,6.7s20.1-13.4,20.1-13.4s13-18.5,11.5-28.1c-0.1-0.8-0.3-1.5-0.7-2.3
	c-4.5-8.5-11.7-19.8-12.2-26.1s-15.9,16.9-13,21.4S417.7,804.1,419.6,799.4z"/>
<path class="st35" d="M3,906.9c0,0,22.2-92.9,33-100.8c0,0,10.8-3.1,6.5-9.1c0,0,16.6-19,26.6-24.8c0,0,33.8-30.8,31.7-34.5
	l-2.2-3.7l66.2-75.8c0,0,4.3-7.7,5-6.2l0.7,1.4c0,0,20.9-7.6,23-1.6c2,5.6,28.1-45.9,48-49.7c1.3-0.3,2.6-0.3,3.9-0.1
	c20.2,3.2,23-5.6,28.8-0.1s1.4-13.8,10.1-17.5c0,0,21.6-22.1,24.1-14.7S290,625,290,625s7.2,39.1,13.6,51.9s37.1,56.5,39.9,75.2
	s24,61.9,24,61.9s42.3,103.7,41.9,135.4c0,0,14.3,31,10.2,44.6S0,994,0,994"/>
<path class="st35" d="M744.5,686.6l-27.4-18c0,0,8.6-4.1,4.3-10.3s-31-16.3-31-16.3s-22.3-18.7-31.7-20.2l-10.1-8.6
	c0,0-7.2,3.6-5,6.5s-13-11.5-13-11.5s-9.4,0.7-11.5,5c0,0-5.8-26.6-11.5-26.6c0,0-21.6-10.1-38.9-4.3c0,0-24.8-20.8-43.4-19.7
	c-8.8,5.6,22.2,64.3,31,58.7c0,0,26.7,49.6,24.6,94.9s3.9,206.6,3.9,206.6l1.2,71.3l158.4-2.9V686.6z"/>
<path class="st36" d="M687,676.3c0,0,27.7-24.3,30.1-21.5s6.2,6.2,0,13l-4.8-5.2C712.3,662.6,688.5,679.7,687,676.3z"/>
<path class="st13" d="M649.4,615.5L629,632.9c0.3,0.1,0.5,0.3,0.8,0.4C637.8,627.8,651.5,617.9,649.4,615.5z"/>
<path class="st13" d="M618.7,615.5c0,0,5.8-8.2,10.1-5.8L618.7,615.5z"/>
<path class="st13" d="M600,586.7c0,0,8.2,3.8-7.7,18.2C592.3,605,619.7,595.4,600,586.7z"/>
<polygon class="st13" points="569.3,584.8 691.2,676.9 569.3,588.4 "/>
<path class="st13" d="M691.2,676.9L684,994c0,0,3.6-314.5,3.6-317.1S691.2,676.9,691.2,676.9z"/>
<path class="st37" d="M697,908l8.1,6.2L697,908z"/>
<path class="st37" d="M711.4,915.5l3.2-5.6L711.4,915.5z"/>
<path class="st38" d="M698.3,933.2c0,0-7.5,15.7-6,19.2c0,0-1.1,10,4.7,10c0,4.3,12.4,4.3,12.4,0c0,0,4.2-6.1,2-8.9
	s-14.4,0.4-14.4,0.4s1.6-3.2,4.1-3.2c2.3,0.2,4.5,0.5,6.7,1.1v4.6c0,0,0.6,5.6-3.5,4.5c-2.6-0.7-4.9-2-6.9-3.8l-0.4-6.4l1.4-4.6
	l0.4-2.8l3.3-2.8l2.1-10.3L698.3,933.2z"/>
<path class="st39" d="M701,948.6l3.3-1.9l5.2,1.9l1.8,5c0,0-14.4-6.1-14.4-2.8S701,948.6,701,948.6z"/>
<path class="st37" d="M698.7,936.8c0,0-5.7,13-5,16.9S698.7,936.8,698.7,936.8z"/>
<path class="st39" d="M697,962.4c0,0-5.4,4.3-5.8,10s5.8-5,5.8-5s-10.1,10.4-7.6,12.2s4.3-2.5,4.3-2.5s-4.6,5.8-2.5,8.3
	s7.1,5.8,7.1,5.8s8-5,6-9s3.4,1.8,3.4-0.7s-2.3-6.1-2.3-6.1s0.2,5.4,2.3,1.5s-2.7-11.2-2.7-11.2L697,962.4z"/>
<path class="st37" d="M701,965.6c0,0-8.3,14.8-4.1,19.1c0,0-2.3-0.3,1.4-7.9S701,965.6,701,965.6z"/>
<path class="st37" d="M698.3,965.6l-4.7,9.5L698.3,965.6z"/>
<path class="st37" d="M701.5,975.1l-0.5,9.5L701.5,975.1z"/>
<path class="st37" d="M691.2,981.2l2.5,6.5L691.2,981.2z"/>
<path class="st40" d="M687.6,922.4c0,0-2.6,10.8-0.2,14.4s-2.7,0-2.7,0v49.3c1-1.7,2.1-3.3,3.4-4.9c1.4-1.6,5.6-20.6,5.6-20.6
	s-3.6-4.5-1.2-11.9c1.4-4.2,2.3-8.6,2.7-13c0,0-4-21.2-5.8-17.3"/>
<path class="st41" d="M689.4,929c0.4-0.5,2.5,8.1,0.5,10.3S689.4,929,689.4,929z"/>
<path class="st41" d="M687.4,946.8c0,0-0.2,16,1.6,15.6S687.4,946.8,687.4,946.8z"/>
<path class="st39" d="M716.9,904.8c0,0,0.1,1.3,0.3,3.2c0.5,4,1.5,10.5,3.3,10.5h-3.6c0,0,2.3,9,4.2,7.6l-6-3.2c0,0,1.7,7.2,3,7.2
	s-3,1.4-3,1.4s-1.8,3.6,0,5.4s1.8,2.5,1.8,2.5h-4.7l-3.6-2.2l-1.8-1.1v5.8l-4.8,1.8v-5.8c0,0,3.7-6.1,1.9-6.1s-7.6,2.9-9,5.8
	l-1.4,2.9c0,0,2.5-8.6,1.4-13.7c-0.7-3-2.9-5.4-5.8-6.5l-1.8,2.2v5.8l-0.2,3.2v4.7l2-18.7l5.8,2.2l3.5,2.5c0,0-10-5.8-9.3-7.6
	s9.3,1.4,9.3,2.2s-9.3-8.7-9.3-8.7l4.9-4.7l4.4-5.3l5.7-1.8l9.5,2.9"/>
<path class="st42" d="M687.6,883.5c0,0,2.9-5,3.6-2.9l0.7,2.2c0,0,6.1,1.3,7.2-1s3.2,0,3.2,0v1.7h5.4v3.6l2.2,1.8l-2.9,4h2.9
	c2,0.7,3.5,2.3,4,4.3l3.2,4l-2.9,1.4l-2.2-2.9l-2.9-1.1l-2.2,1l0.4-4.7l-5,1.4v6.1l-6.1-3.2l1.4,4.7c0,0-0.4,4-2.2,0l-1.8-4
	l-1.1,5.7c0,0-6.5,1.8-5-3.6s0-11.5,0-11.5L687.6,883.5z"/>
<path class="st41" d="M695.2,893.1l7.1-8.2c0,0,0,8.2-3.5,8.2H695.2z"/>
<path class="st41" d="M691.2,887.8l4,5.3c0,0-5.8-2.5-5.8-4.1v-1.5L691.2,887.8z"/>
<path class="st37" d="M708,894.1c0,0-2.5,28.3-5.4,30.6l2.9-2.3c0,0,6.5-14.4,4-16.7S708,894.1,708,894.1z"/>
<polyline class="st37" points="695.2,915.6 701.8,922.8 695.2,917.9 "/>
<path class="st37" d="M710.1,925.3c0,0,1.7,8.4,2.1,8.8s-3.8-4.4-3.8-4.4L710.1,925.3z"/>
<path class="st13" d="M100.8,737.8c0,0,138.6-3.5,141.1,5.6S100.8,737.8,100.8,737.8z"/>
<path class="st13" d="M38.2,820.5c0,0,20.5,175,30.2,170.6L38.2,820.5z"/>
<path class="st13" d="M3,905.8l35.2-85.4c0,0-1.1-7.6,0-8.6s-7.6,0-7.6,0S-5.2,903.7,3,905.8z"/>
<path class="st13" d="M163.4,660.1c0,0,14.4,6.5,32.7,13c22.8,8.1,51.7,16.2,66.7,11.8l-30.2-9.1l-27-6.8l-22.7-8.8l11.9-5.4
	C194.8,654.6,164.5,647.7,163.4,660.1z"/>
<polygon class="st13" points="283.3,646.5 241.9,743.3 400,919.9 250.9,741.7 290,646.5 290,638 "/>
<path class="st13" d="M248,602c0,0,7.1,26.7,24.5,31.3s-7.6-24-7.6-24l13.8-5.7C278.7,603.7,246,596.1,248,602z"/>
<path class="st43" d="M331.9,724.6c0,0,34.7,33.3,42.9,40.9c7.2,6.6,47.3,27.9,49.8,28.1c0,0,15,7.8,15.1,12.5s37.3-33.9,37.3-33.9
	s47.5-64.3,47.1-72s14.5-35.7,19-55.4s-1.7-56.4-1.7-56.4l11.2,11.3c0,0,25.4,69.6,27,87.9s6.4,306.4,6.4,306.4H419.6
	C419.5,994.4,352.2,852.5,331.9,724.6z"/>
<path class="st44" d="M373.7,829.6c0,0,54.2,54.9,64.5,55.3s48.3-59,59.5-64.4s58.1-65.3,58.1-65.3l24.8-57.9
	c0,0-46.1,88.7-82.1,114.1l-51.7,61l-8.6,7.8L373.7,829.6z"/>
<path class="st30" d="M336.3,752.5c0,0,77.4,52.9,106.9,74.5c0,0,15-20,29.6-30s40.6-37.1,40.6-37.1l28.1-57.1
	c0,0,24.3-71.3,21.5-78.3s11.8,37.7,11.8,37.7s-23.5,85-35.4,93.1c0,0-45.5,61-62.2,71.8c0,0-43.3,32-37,31.6
	c0,0-18.8-25.5-25.7-23.7c1-1.4-31.5-24.9-32.5-23.5l-34.2-11.2L336.3,752.5z"/>
<path class="st34" d="M338.6,778.2c0.1-0.2,101.3,56.5,101.2,56.7c-2.8,4.2,44.2-34.7,44.2-34.7l35.8-38.1c0,0,13-24,19.4-36.3
	s16.6-40.9,16.6-40.9s13.2-43.2,12-46.9s5,16.7,5,16.7s-18.6,60.8-23.4,67.4s-24,45.9-24,45.9l-36.8,38.1c0,0-24,19.4-33.1,28.8
	s-10,13.7-10,13.7s-23.1-21.6-37-28.1s-31.9-14.4-31.9-14.4l-33.6-15L338.6,778.2z"/>
<path class="st15" d="M327.5,395.6c0,0,11.2-9.6,14.7-9.6c0,0-6.1,9.2,3.8,15.4C346.1,401.4,338.7,403.5,327.5,395.6z"/>
<path class="st15" d="M354.7,383.8c0,0,15,8.8-1.2,18.2c0,0,12.8-0.6,16.2-4.8C369.7,397.2,373.3,388.6,354.7,383.8z"/>
<path class="st15" d="M458.8,376.9c0,0-12.6,10.4,1.8,18l-8.9-0.5c0,0-13.3-3.4,0.4-15.2L458.8,376.9z"/>
<path class="st15" d="M467.5,376.2c0,0,15,7.8,1.5,17.9c0,0,10.4-0.4,18.2-6.9C487.2,387.3,491.6,379.2,467.5,376.2z"/>
<path class="st15" d="M443.5,373.1"/>
</svg>
