<svg xmlns="http://www.w3.org/2000/svg" xmlns:xlink="http://www.w3.org/1999/xlink" viewBox="0 0 720.48 696.96">
<defs>
<style>.cls-1{fill:#d39772;}.cls-2{fill:url(#radial-gradient);}.cls-3{fill:#e0b998;}.cls-4{fill:#d9a887;}.cls-5{fill:#d08464;}.cls-6{fill:#d79f7f;}.cls-7{fill:#91604e;}.cls-8{fill:#e5ad8f;}.cls-9{fill:#3a2b29;}.cls-10{fill:#e6bd9c;}.cls-11{fill:#dd9b73;}.cls-12{fill:#e2b791;}.cls-13{fill:#d6895f;}.cls-14{fill:#451610;}.cls-15{fill:#d6a380;}.cls-16{fill:#d49c76;}.cls-17{fill:#d4dcdd;}.cls-18{fill:#64777b;}.cls-19{fill:#3a4344;}.cls-20{fill:#ddd0d0;}.cls-21{fill:#718689;}.cls-22{fill:#232222;}.cls-23{fill:#ce5f5f;}.cls-24{fill:#934256;}.cls-25{fill:#aa494b;}.cls-26{fill:#d66161;}.cls-27{fill:#b04e53;}.cls-28{fill:#c9c3c0;}.cls-29{fill:#331c18;}.cls-30{fill:#3d201c;}.cls-31{fill:#1a1212;}.cls-32{fill:#cd8b74;}.cls-33{fill:#121212;}.cls-34{fill:#aa5448;}.cls-35{fill:#923f3a;}.cls-36{fill:#a34b46;}.cls-37{fill:#b3594f;}.cls-38{fill:#bb5a56;}.cls-39{fill:#ab4e4c;}.cls-40{fill:#cec6c2;}.cls-41{fill:#4b5e42;}.cls-42{fill:#231d18;}.cls-43{fill:#ccb6a6;}.cls-44{fill:#1c1b1a;}.cls-45{fill:#c77572;}.cls-46{fill:#a04e4f;}.cls-47{fill:#b76363;}.cls-48{fill:#d47575;}.cls-49{fill:#d66e6e;}.cls-50{fill:#bf6666;}.cls-51{fill:#1b1b1c;}.cls-52{fill:#070708;}.cls-53{fill:#17150f;}.cls-54{fill:#3e3c3f;}.cls-55{fill:#211e22;}.cls-56{fill:#0e0e10;}.cls-57{fill:#1f1f21;}.cls-58{fill:#343434;}.cls-59{fill:#222322;}.cls-60{fill:#181819;}.cls-61{fill:#181818;}.cls-62{fill:#241123;}.cls-63{fill:#1f111f;}.cls-64{fill:#170f16;}.cls-65{fill:#1b1d34;}.cls-66{fill:#16141d;}.cls-67{fill:#908688;}.cls-68{fill:#1a1826;}.cls-69{fill:#1d192b;}.cls-70{fill:#171527;}.cls-71{fill:#101013;}.cls-72{fill:#1c2a40;}.cls-73{fill:#142030;}.cls-74{fill:#636363;}.cls-75{fill:#1b171a;}.cls-76{fill:#231e22;}.cls-77{fill:#080909;}.cls-78{fill:#503222;}.cls-79{fill:#5e392a;}.cls-80{fill:#6d5851;}.cls-81{fill:#664442;}.cls-82{fill:#231913;}.cls-83{fill:#231411;}.cls-84{fill:#261716;}.cls-85{fill:#563b36;}.cls-86{fill:#563e3b;}.cls-87{fill:#0c0b0b;}.cls-88{fill:#191719;}.cls-89{fill:#13110e;}.cls-90{fill:#603929;}.cls-91{fill:#382b29;}.cls-92{fill:#db7176;}.cls-93{font-size:12px;font-family:MyriadPro-Regular, Myriad Pro;}.cls-93,.cls-95{fill:#231f20;}.cls-94{fill:#392b29;}.cls-95{font-size:14.34px;font-family:MarckScript-Regular, Marck Script;}.cls-96{fill:#c22026;}.cls-97{fill:#d69b7a;}.cls-98{fill:#d39975;}.cls-99{fill:#d99a7e;}
</style>
<radialGradient id="radial-gradient" cx="360.44" cy="348.48" r="353.92" gradientUnits="userSpaceOnUse">
<stop offset="0" stop-color="#fff"/>
<stop offset="0.76" stop-color="#e65765" stop-opacity="0.9"/>
</radialGradient>
</defs>
<title>Layer 3 (4)
</title>
<g id="Layer_2" data-name="Layer 2">
<g id="Layer_3" data-name="Layer 3">
<path class="cls-1" d="M111.86,213.78s15.54-3.12,18.84-2.4,8.76,1.32,10.08,3.6,3.72,2.58,2,6.48,5.7,6.6-5.28,7.86-11.22,2.52-17,.06-8.22-7.74-8.16-4.08-.3,3.36.42,6.06.3,4.14-.48,1.74,1.26-1.68-1.74-7.5-3-5.46-1.5-8.7S111.86,213.78,111.86,213.78Z"/>
<rect class="cls-2" x="1.16" width="718.56" height="696.96"/>
<path class="cls-1" d="M166.56,216.92l-5.46,6.24,1.14-10.08L158.64,174l-10.08-18.48-49.2-1.68-53,.24-4.8,51.6L39.6,215.72l-1.2,3.84-1.92-.48-2.88-1.92-1.68,1.68-.48,4.32.48,4.3c0-.27-.42-3.84,1.2,8.42,1.68,12.72,7,17.28,9.12,21.12s7.92,4.56,7.92,4.56A82.89,82.89,0,0,1,53,281c.48,11.76,7.44,26.64,7.44,26.64S68.64,321.08,73.92,329,83,357.56,83,357.56l19.2,1.68s15.84,2.64,21.6,4.56.24,12,.24,12c8.4,3.12,21.12-13,21.12-13l-4.56-7.2s-.72-7-1.92-12.24-.72-13.92-.72-13.92-1.44-10.56-.48-14.64c.77-3.26,1.53-12.35,1.81-15.86a1,1,0,0,1,0-.18c.08-3,1.64-5.56,3.41-7.95,4.9-8.52,10.91-16.93,11-27.15a.91.91,0,0,1,.6-.88c0-1.72,0-2.94,0-2.94a17.51,17.51,0,0,0,4.56-2.88c2.16-1.92,6-7.2,6-9.6s1.68-7.92,1.68-7.92l3.12-10.32V217.88C169.68,215.72,166.56,216.92,166.56,216.92Z"/>
<polygon class="cls-3" points="374.22 398.3 372.24 397.04 358.92 384.44 349.2 379.04 325.44 316.04 326.16 262.04 349.56 233.24 387 223.16 418.32 244.4 442.8 276.44 447.12 312.08 440.64 354.92 419.04 384.08 405.72 384.8 401.4 397.4 394.56 408.2 386.28 403.16 374.22 398.3"/>
<path class="cls-4" d="M675,186.08l-1.08-15.84L630,131l-33.84-6.48-40.32,9.72L549,202.64V217.4l.36,4L550.8,226l2.16,4,4.68,3.24,2.52,11.52,1.44,8.64.51,6.66a1.19,1.19,0,0,1,.15.46,15.77,15.77,0,0,0,2.52,6.11,42.2,42.2,0,0,0,4.38,4.41c6.12,5.4,5.4,6.12,5.4,6.12l7.2,27.36s4,13.32,3.24,20.16-4.68,13.68-4.68,13.68l6.48,13.32s7.56,14.4,11.52,18.36,6.12,20.52,6.12,20.52l13.32-15.84s9.72-7.92,5.4-13-.36-23-.36-23,6.84-10.44,9-16.2S664.56,270,664.56,270l5.76-26.64,10.8-47.52Z"/>
<path class="cls-5" d="M58.56,303.8S53,281,53.28,277.4s10.56,25.68,13.92,27.12-.75-7.23,4.17-2.31,5.43,3,7.83,3.75,1-4.32,2.88-2.64,6.48,4.8,6.48,4.8,4.56,1.2,4.56-.24,4.11-.93,4.11-.93,1.17-2.43,1.89-.75,4.32-1.92,11.28-.24,11.34.3,15.18-2.58,9.78-6.54,9.78-6.54l4.56-5,4.8-4.56-7.44,9.6-7.92,9.36s-4.32,5-14.4,5.76-10.08,7.68-10.08,7.68l6,8.88s-25.44-6.24-28.08-8.88-8.64,2.16-8.64,2.16l-.48,4.8Z"/>
<path class="cls-5" d="M40.56,248.12s-7-6.72-7.2-22.08c0-3-.1-5-.16-6.22s-.13-1.7-.2-1.68a33.4,33.4,0,0,0-.36,4.3s-.24-5,1.68-3.84S37,223.4,37,223.4l-.72,6.48-1,5S36.72,243.32,40.56,248.12Z"/>
<path class="cls-5" d="M165.12,222.68s1-2.64,2.16-2.16,1.2,5.28,1.2,5.28l-.48,5.76-1.2,4.56a21.15,21.15,0,0,1-1.44-5.52,65.73,65.73,0,0,1,1.2-7.68Z"/>
<path class="cls-5" d="M141.84,166.76s-21.36,8.4-27.6,8.4-22.08,1.2-31.68-1.68-14.88,1.2-16.32,3.84-5,11.76-7.44,18S51.12,217.64,49,222.44s-2.16,6.24-2.16,6.24l9.12-55,21.84-17,39.36,6.48,26.16-1Z"/>
<path class="cls-5" d="M43.68,230.12s-3.36,2.16-4.08.72l-.72-1.44a21.51,21.51,0,0,0-1.2,5.28c0,1.92,1,6,2.64,7.2a11.63,11.63,0,0,0,4.8,1.44s-1.68-2.88-1.68-4.32,1.2-7.92,1.2-7.92Z"/>
<path class="cls-5" d="M158.88,233.48s-5,19.92-3.84,20.88,2.16-6.24,2.88-7.92,4.32-5.28,4.32-5.28,1.92-3.12,1-5.52a31,31,0,0,0-3.6-5.76l-.72,3.6"/>
<path class="cls-5" d="M41.52,252.44s2.64,5,7.68,3.6c0,0,6,2.88,1.44,3.12A11.4,11.4,0,0,1,43.2,257Z"/>
<path class="cls-5" d="M46.32,236.6v11.28l4.08,6.24s-1.92-.72-1.44-7a27.45,27.45,0,0,0-1-10.32Z"/>
<path class="cls-5" d="M81.6,353.72s18.24-6.24,29.76-1.92,17.76,5.76,18.24,1.44-.48-18.24,3.84-31.2,4.8-11,4.8-11l3.84,41.76,4.8,11s-22.56,21.6-22.8,12-14.64-14.88-14.64-14.88-23.52-4.8-26.4-3.36-5.28-6.72-2.4-1.92S81.6,353.72,81.6,353.72Z"/>
<path class="cls-6" d="M154.8,224.12s-14.64,20.4-16.32,43.68-14.88,33.12-14.88,33.12-28.8,4.56-32,4.56,26.64,2.64,26.64,2.64l7.18-2.7,15.31-11.35a9.86,9.86,0,0,1,.53-1,39.46,39.46,0,0,1,3.2-4.09,26.28,26.28,0,0,0,4.54-9.21c.11-.37.22-.74.32-1.1a.84.84,0,0,1,0-1c.21-.32.41-.66.6-1a36.89,36.89,0,0,0,1-4.41c.36-2.39.62-4.79,1.11-7.16.09-.43.19-.9.3-1.38a6.14,6.14,0,0,1,.84-2.22,3.17,3.17,0,0,1,1-1.11l.08,0c0-.13,0-.26,0-.4a146.57,146.57,0,0,1,4.56-25.2v-17Z"/>
<path class="cls-5" d="M91.92,244s-2.16,4.56-.48,6.72a5.24,5.24,0,0,0,4.32,1.92s-3.84.48-3.84-4.08Z"/>
<path class="cls-7" d="M96.48,251.72s-.48-2.4,1-2.64,4.32-2.16,4.32-.24-2.16,1.68-3.36,1.68A2.53,2.53,0,0,0,96.48,251.72Z"/>
<path class="cls-7" d="M110.64,249.32s2.64-1.92,3.84-1.44a7.38,7.38,0,0,1,2.16,1.44s-1.2,1.92-2.88,1.44A12.66,12.66,0,0,1,110.64,249.32Z"/>
<path class="cls-8" d="M428.54,326.12S404.23,358.45,402,374.61a97.29,97.29,0,0,0,0,28.07l52.3-42.53-5.16-30.63Z"/>
<path class="cls-9" d="M384.08,198.32c-5,5.47-10.2,11.08-13.57,17.77s-4.89,14.14-3,21.37c.82,3.11,5.64,1.79,4.82-1.33-3.57-13.47,6.88-25.16,15.26-34.28,2.17-2.36-1.35-5.91-3.54-3.53Z"/>
<path class="cls-9" d="M370.42,237.92v-1.08a1.88,1.88,0,0,0-.22-1,2.16,2.16,0,0,0-1.32-1.32,1.86,1.86,0,0,0-1-.22l-.66.09a2.48,2.48,0,0,0-1.11.64l-.39.51a2.53,2.53,0,0,0-.34,1.26v1.08a1.86,1.86,0,0,0,.22,1,1.93,1.93,0,0,0,.51.81,2.05,2.05,0,0,0,.81.52,2,2,0,0,0,1,.21l.66-.09a2.48,2.48,0,0,0,1.11-.64l.39-.51a2.53,2.53,0,0,0,.34-1.26Z"/>
<path class="cls-9" d="M366.48,241.14c3.22,0,3.22-5,0-5s-3.22,5,0,5Z"/>
<path class="cls-10" d="M398.52,285.08s-4.32-3.6,5-6.48,15.48-.72,15.48-.72,4.56,5.16,5,8.64-1.08,3.6-1.08,3.6l-6.84-4-10.8,1.08-5.76,1.44Z"/>
<path class="cls-10" d="M346.32,279s4-2.16,6.48-2.16,7.92,2.88,7.92,2.88l5.76,4,6.12,2.16V289l-13-4h-13Z"/>
<path class="cls-11" d="M373,331.16s-10.44-6.84,1.08-13.68C374,317.48,365.76,324.68,373,331.16Z"/>
<path class="cls-7" d="M375.12,329a2.59,2.59,0,0,1,3.42.54c1.44,1.8.9,2,.9,2a6.22,6.22,0,0,1-2.7,0C375.66,331.16,375.12,329,375.12,329Z"/>
<path class="cls-12" d="M345.6,302.36s4.56,6.24,14.16,4.32,10.56-2.4,10.56-2.4,4.56-.48,5.52-1.68,1.92.72,1.92,2.88a43.07,43.07,0,0,1-1.2,7l-1.92,2.4,2.64-1.44s-2.88,3.84-1,1.92,3.6-4.8,3.84-10.32-7.56-16-7.56-16l-16.68-3.72L347.28,287l-6.72,10.32Z"/>
<path class="cls-7" d="M388.44,330.26s-.9-1.44.18-1.62a22.76,22.76,0,0,1,2.88-.18s1.8.54,1.26,1.44-.9.9-2,.9A7.12,7.12,0,0,1,388.44,330.26Z"/>
<path class="cls-6" d="M400.24,255c1.69.35,2.72.6,2.72.6l-2.48-3.24A4.08,4.08,0,0,1,400.24,255Z"/>
<path class="cls-6" d="M365,366.54l2.18.08a28.89,28.89,0,0,1-6-7.5,27.26,27.26,0,0,1-7.81-8.38c-1.07-.11-1.76-.14-1.76-.14s-2.16-15.84-4.56-20.16-2.16-14.88-2.16-16.8.24-9.36,1.2-12.48,1.44-13.92,3.36-28.32c.88-6.57,2.05-9.79,3.07-11.35a4,4,0,0,1,.57-2.68c3.91-6.67,10.44-8.08,17.5-9.46,7.94-1.55,15.5-4.38,23.53-5.36l-9.87-12.91-42.48,22.08L330,281.24l4.08,51.84,9.39,18.22a5.09,5.09,0,0,1,2,1.57c5,6.31,12.55,8.19,18.72,13C364.49,366.05,364.76,366.29,365,366.54Z"/>
<path class="cls-12" d="M396.6,291.2s-4.2,3-4.2,4.92-1.2,8.16-.24,12a90.58,90.58,0,0,0,4.08,10.8s.72-.48,0-7.44l-.72-7s2.16.72,8.4,2.16,14.16-.48,14.16-.48a40.8,40.8,0,0,0,5.28-5,55.85,55.85,0,0,1,5.52-5.52l-12.72-9.48-16.56,2.52-3,2.52"/>
<path class="cls-6" d="M658.44,235s1.8,17.28-1.8,22-17.64,13.32-22,16.92-11.16,9-11.16,9-6.48,9-19.8,7.2-18.36-5.76-20.88-7.92-6.48-5.76-6.48-5.76l-1.8.72a61.89,61.89,0,0,1,7.2,7.2c2.52,3.24,9.72,8.64,12.6,8.64s13,5,21.6,0,18.72-12.6,18.72-12.6L651.6,271s4.68-5,6.48-10.08,2.16-19.08,2.16-19.08Z"/>
<path class="cls-6" d="M666.18,258.26s-14.94,18.9-21.78,30.42-24.12,32-26.64,41.4-1.8,16.2-4.32,27.72-11.16,22.32-11.16,22.32l2.16,10.44s16.56-19.44,18-21.24.72-7.56.72-7.56l-1.08-2.88s-5-12.24.72-20.16,13.68-24.12,13.68-24.12l18-27.72,9.72-14.4,2-14.22"/>
<path class="cls-6" d="M575.64,279.68s14,5.76,14.4,11.52-.36,13,2.52,19.44,7.2,16.2,6.84,27.72a228.79,228.79,0,0,0,1.08,25.56,93,93,0,0,0-7.2-33.12c-7.2-16.56-9-16.56-10.8-25.2S575.64,279.68,575.64,279.68Z"/>
<path class="cls-13" d="M586.44,228.92s-5,3.6-3.6,6.12a12.93,12.93,0,0,0,3.6,4S581,235,586.44,228.92Z"/>
<path class="cls-14" d="M585.72,237.42s2.26-.13,4.66-.48c3.34-.49,3.72,2.17.39,2.66C588.92,239.87,585.72,237.42,585.72,237.42Z"/>
<path class="cls-14" d="M601.92,236.8a1.73,1.73,0,0,1,1.77-1.77c1.78,0,3.55-1.6,4.79.18s-1.57,1.08-1.57,1.08l.15-.55a1.43,1.43,0,0,1-1.59,1.6A14,14,0,0,1,601.92,236.8Z"/>
<path class="cls-15" d="M616.8,157.4s12,21.84-.72,22.56-28.08-4.8-28.08-4.8-12-2.4-18.24-1.44-9.36,8.16-9.36,8.16l-2.64,8.4a85,85,0,0,0-1.92,16.32c0,7.92,2.4,20.64,2.4,20.64l2.64,13.92-.48,5.76-2.76-13.68s-3-7.2-3-10.32-7.92-32.64-7.92-32.64L553,145.4l31.68-4.32h29.52l2.64,16.32"/>
<path class="cls-16" d="M598.68,295.88a60.59,60.59,0,0,1,7.56,25.2c1.08,14.76,1.08,28.08,1.08,28.08V361s.36,8.28-1.44,12.6-3.24,5-3.24,5l-4-7.2,1.8-7.56s-.72-37.08-2.52-41.4-6.48-15.84-6.48-15.84L590,291.2l8.64,3.24Z"/>
<path class="cls-16" d="M608.76,270A35.38,35.38,0,0,0,594,270S601.92,263.12,608.76,270Z"/>
<path class="cls-5" d="M89.91,221.81l-3.15,1.08-3.24.72s-3.24.27-6.12.27a24.42,24.42,0,0,1-6.66-1.35,30.77,30.77,0,0,0-3.15-.63,1.92,1.92,0,0,0-1.28.56c.25.27.51.53.77.78.92.07,2,.19,2,.19s4.86,1,6.48,1.35,7,0,9.9-.54a20.16,20.16,0,0,0,5.22-1.8l1.08-1.08Z"/>
<path class="cls-5" d="M80.91,214.52c-4.5,0-5.58.54-5.58.54-2.93,0-7,2.83-8.25,3.75h0a4.09,4.09,0,0,0,.7,0,2.52,2.52,0,0,0,.47-.13,1.56,1.56,0,0,0,.28-.16,2.27,2.27,0,0,0,.31-.31l-.12.16a1.29,1.29,0,0,1,.46-.38c.37,0,.42-.25.88-.25.21,0,.38-.27.52-.18l.32-.27,5.4-1.71,5-.18s4.41.63,5.58.81S85.41,214.52,80.91,214.52Z"/>
<path class="cls-17" d="M71.16,219.24c-1.06.57,2.92,2.28,4.21,2.71a45.46,45.46,0,0,0,5.49.85l4.68-.85a4.22,4.22,0,0,0,3-2c.82-1.7-1.87-2.13-1.87-2.13l-5.14-1.14s-5.62.43-4.68.14S72.21,218.67,71.16,219.24Z"/>
<path class="cls-18" d="M81.87,216.63a1.43,1.43,0,0,1-.37.08c-.91,0-1.82-.06-2.74-.07l-.16,0a1,1,0,0,1-.39.09c-.09,0-2.31,1.26-2.31,2.24,0,1.46,1.81,2.65,4,2.65s4-1.19,4-2.65C84,217.94,83.13,217.08,81.87,216.63Z"/>
<ellipse class="cls-19" cx="80.01" cy="218.84" rx="1.23" ry="1.38"/>
<ellipse class="cls-20" cx="81.8" cy="218.93" rx="0.33" ry="0.78"/>
<path class="cls-21" d="M78.25,216.73c1.16,0,.62.63.62.63l-1.13-.3.42.72-.84-.45.45.66-.87-.24.6.53-1-.11.83.44H76.19l1.16.21-1.25.45,1.46-.33-1,1.05L78,219l-.75,1.67,1-1.1L77.8,221l1-1.22,0,1.4.54-1,.27,1.19.59-1.4.69,1.55L81,220l1,1-.12-1.16.93.57-.54-1.14,1.25.27-1-.78,1-.53-.89.26.33-.71-.6.24.09-.84-.6.6-.09-.6-.41.66-.57-.84-.21.63-.57-.72-.29.45-.84-.54a8.66,8.66,0,0,1,2.83,0,3.93,3.93,0,0,1,1.49.78s.63.39.63.83.39,1.11-.21,1.68a6.51,6.51,0,0,1-1.55,1.07,7.77,7.77,0,0,1-2.65.42,5.4,5.4,0,0,1-2.6-1s-1.1-.77-.92-1.79C75.92,218.79,77.09,216.71,78.25,216.73Z"/>
<path class="cls-5" d="M98.52,215.84s1,13.68-1.44,17.64l-2.4,4S98.64,233.36,98.52,215.84Z"/>
<path class="cls-5" d="M117,221.9s9,3.06,12.87,2.34,7.2-1.62,7.2-1.62l2.25-1s.63,1.71-5.22,2.61-6.12.9-6.12.9a66.81,66.81,0,0,1-11.25-2.34l-.54-1.17Z"/>
<path class="cls-5" d="M139.56,218.84,136,216.68a64.9,64.9,0,0,0-11.79-1.62c-5.4-.09-8.82,4.5-8.82,4.5a2.45,2.45,0,0,0,.26.54,1.08,1.08,0,0,1,.38-.44,20.25,20.25,0,0,1,3.23-2.17,14.15,14.15,0,0,1,3.93-.73.42.42,0,0,1,.16,0l.26-.09,6-.48,4.74.72a29.41,29.41,0,0,1,4.32,2.1C140.34,220.1,139.56,218.84,139.56,218.84Z"/>
<path class="cls-17" d="M136.32,220a14.75,14.75,0,0,0-2.85-1.92c-1-.36-3.69-1-3.69-1l-3.69-.09-3.15.27-2.52,2.16s-1.89,1.53-.09,2.16a27,27,0,0,0,5.85.72l2.52.18h3.6a16.59,16.59,0,0,0,3.33-1.8"/>
<path class="cls-18" d="M130.69,216.87a1.53,1.53,0,0,1-.37.08c-.93.06-1.85-.06-2.78-.06l-.16,0a1.06,1.06,0,0,1-.39.09c-.09,0-2.34,1.35-2.34,2.4,0,1.57,1.83,2.84,4.1,2.84s4.09-1.27,4.09-2.84A2.89,2.89,0,0,0,130.69,216.87Z"/>
<path class="cls-21" d="M127,217.1c1.17,0,.63.65.63.65l-1.14-.31.42.75-.84-.47.45.68-.87-.24.6.55-1-.12.84.46H125l1.17.22-1.26.46,1.47-.34-1,1.09,1.5-1.06-.75,1.74,1-1.15-.48,1.52,1-1.27,0,1.46.54-1.09.27,1.24.6-1.45.69,1.61.15-1.58,1,1.05-.12-1.21.93.59-.54-1.18,1.26.28-1-.8,1-.56-.9.28.33-.74-.6.24.09-.86-.6.62-.09-.62-.42.68-.57-.87-.21.65-.57-.74-.3.46-.84-.56a8.77,8.77,0,0,1,2.85,0,4,4,0,0,1,1.5.81s.63.4.63.87.39,1.14-.21,1.73c0,0-1.2,1.09-1.56,1.12a7.56,7.56,0,0,1-2.67.43,5.37,5.37,0,0,1-2.61-1.05,2.21,2.21,0,0,1-.93-1.86S125.86,217.08,127,217.1Z"/>
<ellipse class="cls-19" cx="128.79" cy="219.34" rx="1.23" ry="1.38"/>
<ellipse class="cls-20" cx="130.77" cy="219.16" rx="0.33" ry="0.78"/>
<path class="cls-22" d="M118.08,219.11a38.08,38.08,0,0,1,3.78-2.25,12,12,0,0,1,3-.72c1,0,4.14-.09,4.14-.09l4.14.9,4.5,2.52,1,1.08S130.32,213.17,118.08,219.11Z"/>
<path class="cls-5" d="M112.32,226s-.09,8.64,1.71,10.71l1.8,2.07S113.31,237.38,112.32,226Z"/>
<path class="cls-22" d="M68.43,221s2.85-3.6,6.29-4.14,3.63-1.2,7.66-.53a25,25,0,0,1,7.17,2.4S77.57,213.13,68.43,221Z"/>
<path class="cls-23" d="M86.28,273.2s3.24-2.16,4.8-3.48,3.12-1.8,4.08-2.76a7.3,7.3,0,0,1,3.24-1.32s.72-.84,3.72-.36a23.14,23.14,0,0,0,6.48-.12l3.36-.24s4.08-.24,5.16.6S121,268,121,268l2.52,2,2.28,1.68,1.08.72a5.32,5.32,0,0,0-3.12.72,74.2,74.2,0,0,1-8.4,3.48,48.25,48.25,0,0,1-9.48.72c-1.8-.24-7.92-.48-8.88-1.2S89.28,274,89.28,274Z"/>
<path class="cls-24" d="M86.58,273.29s5.4-.64,6.93-1.61,3.42-2.89,6.12-2.35,5.13,1.39,7.2,1,6-1.71,8-1,6.39,2.57,7.83,2.46a12.48,12.48,0,0,1,3.42.43s-4.68,1-11.34-2c0,0-2.16-.65-7.74,1,0,0-4.86-.11-7.2-1-.53.34-2.22-1.1-6,2A20.65,20.65,0,0,1,86.58,273.29Z"/>
<path class="cls-25" d="M86.58,273.29s6.3-5.37,7.62-6,2.16-2.52,6.12-2.4,8.28-.24,8.28-.24,4-.6,6-.12,8.88,5.52,8.88,5.52l2.88,1.92s-3.12,0-5.76-.24a57.49,57.49,0,0,0-5.76-1.8,15.39,15.39,0,0,0-8,.81,46.69,46.69,0,0,1-7.83-.93A14.92,14.92,0,0,0,92.76,272S88.8,273.38,86.58,273.29Z"/>
<path class="cls-26" d="M91.62,273.83a23.51,23.51,0,0,1,5.13-1.71c1.53-.09,8.64.54,12.78,0s7.2-1.44,7.47.27,0,2.7-2.79,3.24S108.9,278.33,91.62,273.83Z"/>
<path class="cls-27" d="M98.16,266.84a22.22,22.22,0,0,0,7.32.12c3.36-.66,5.58-2.1,6.42-.72s-2.7,2.28-2.7,2.28a10.7,10.7,0,0,1-7.08.36c-3.66-1.2-5.4-2.1-5.82-1.44A3.75,3.75,0,0,1,98.16,266.84Z"/>
<path class="cls-16" d="M591.36,204.68s.36,14.88-1.44,18l-1.8,3.12S590.52,224.24,591.36,204.68Z"/>
<path class="cls-16" d="M577.26,243.68l-.27.26a16.43,16.43,0,0,0-4.59,14A42.08,42.08,0,0,1,577.26,243.68Z"/>
<path class="cls-28" d="M351.24,297.44l4.08-2.76a12.9,12.9,0,0,1,4.68-1c2.52,0,3.72.12,3.72.12l3.72,2L369,297.8l.48,1-2.88,1.32s-4.92,1.56-6.72,1.44-6.84-2.4-6.84-2.4Z"/>
<path class="cls-28" d="M399,299.24a45.07,45.07,0,0,1,4.56-3.24c1.56-.84,5.52-.84,5.52-.84l5.64,2,2.4,1.68s-3.72,3.6-5.76,3.72a65,65,0,0,1-7.2-.48l-2.28-.72L399,299.72Z"/>
<ellipse class="cls-29" cx="360.48" cy="297.2" rx="3.96" ry="3.48"/>
<ellipse class="cls-29" cx="407.52" cy="298.7" rx="3.96" ry="3.48"/>
<path class="cls-30" d="M359,294l.9,1.26-1.86-.6,1.86,1.38-2.7-.12,2,.6-2.52.42,1.8.36-1.44,1.14,1.5-.6-.72,1.74,1.32-1.08v1.56l1.14-1.2.9,1.44v-1.56l1.38,1.26-.3-2.1,1.32,1.38-.66-1.8,1,.24-1.5-1.26,1-1.26-1.44.3-.24-1-.54.72-.72-1.14-.06,1.26-1-1.44a3.46,3.46,0,0,1,2.88.36s1.74.24,2.16,2.88a4,4,0,0,1-2.58,3.24c-2.46,1-4.86-1.62-4.86-1.62a3.07,3.07,0,0,1,.06-3.42S358.32,294,359,294Z"/>
<ellipse class="cls-31" cx="360.45" cy="297.08" rx="0.99" ry="1.14"/>
<ellipse class="cls-28" cx="362.46" cy="297.35" rx="0.42" ry="0.69"/>
<ellipse class="cls-28" cx="363.12" cy="296.27" rx="0.18" ry="0.21"/>
<path class="cls-30" d="M406,295.39l.9,1.26-1.86-.6,1.86,1.38-2.7-.12,2,.6-2.52.42,1.8.36-1.44,1.14,1.5-.6-.72,1.74,1.32-1.08v1.56l1.14-1.2.9,1.44v-1.56l1.38,1.26-.3-2.1,1.32,1.38-.66-1.8,1,.24-1.5-1.26,1-1.26-1.44.3-.24-1-.54.72-.72-1.14-.06,1.26-1-1.44a3.46,3.46,0,0,1,2.88.36s1.74.24,2.16,2.88a4,4,0,0,1-2.58,3.24c-2.46,1-4.86-1.62-4.86-1.62a3.07,3.07,0,0,1,.06-3.42S405.33,295.39,406,295.39Z"/>
<ellipse class="cls-31" cx="407.25" cy="298.45" rx="0.99" ry="1.14"/>
<ellipse class="cls-28" cx="409.41" cy="298.4" rx="0.72" ry="0.81"/>
<path class="cls-32" d="M348.12,295.4s4.68-5.16,11.16-4.8a14.66,14.66,0,0,1,13.92,8S364.32,285.2,348.12,295.4Z"/>
<path class="cls-33" d="M349.56,297.2s12-10.44,20.88,1.32C370.44,298.52,364,289.52,349.56,297.2Z"/>
<path class="cls-32" d="M397.56,300.44s8.52,7.32,15.48,3.72l7-3.6S408,307.28,397.56,300.44Z"/>
<path class="cls-32" d="M350.28,300.44s7.8,9.36,19.56.84C369.84,301.28,358.08,305.6,350.28,300.44Z"/>
<path class="cls-32" d="M397,297.44s11.28-14.52,24.36,1C421.32,298.4,411,285.44,397,297.44Z"/>
<path class="cls-33" d="M398,299.24s8.28-10.92,20.28.12C418.32,299.36,408.6,290.6,398,299.24Z"/>
<polygon class="cls-33" points="410.04 294.71 411.57 294.26 411.57 295.25 413.19 294.89 412.29 295.79 415.35 295.61 413.73 296.15 415.98 296.15 414.72 296.6 417.15 296.6 415.53 297.05 417.42 297.14 416.25 297.59 417.96 297.59 416.97 298.04 410.04 294.71"/>
<polygon class="cls-33" points="356.16 293.66 355.26 293.18 355.68 293.84 354.06 293.24 355.2 293.9 353.22 293.66 354.6 294.2 352.92 294.02 353.76 294.62 352.38 294.2 353.22 295.04 351.96 294.44 352.5 295.22 351.42 295.16 351.9 295.7 350.22 295.58 351.3 296 356.16 293.66"/>
<path class="cls-34" d="M362.22,343.7s5.85.29,7.19-.28,3.81-.68,5.77-1.18a20.35,20.35,0,0,1,3.95-.55l3,.91s1.7-.31,3.67-.63,9.75,1.19,9.75,1.19l7.05,1.48a35.27,35.27,0,0,1-9.3,5.6c-5.61,2.3-14.19,1.44-14.19,1.44l-10.26-3.52S367.71,347.25,362.22,343.7Z"/>
<path class="cls-35" d="M371.52,346.19l-.1,0C364.46,347.22,371.52,346.19,371.52,346.19Z"/>
<path class="cls-35" d="M401.46,344.5l-8.64.36a52.71,52.71,0,0,0-7.74,1.53c-2.16.81-3.87-.54-5.67-1.35s-7.92.09-7.92.09l-9.09-1.62a7.57,7.57,0,0,0,.6.53l.12.08,8.17,1.53.47-.07c7.74-1.17,7.65.09,7.65.09,4.68,2.07,5.31,1.44,5.31,1.44,5.94-2.34,16-2.25,16-2.25l.59.31a1.25,1.25,0,0,1,.08-.12c.14-.14.26-.29.4-.43Z"/>
<path class="cls-36" d="M362.52,343.85s6.3-.72,8-.9,6.12-1.71,7.56-1.35l4,1,4.15-.73,10.62,1.62,5.22,1.17s-12-.81-17.91,2.07a15.74,15.74,0,0,1-4.8-1.69,14,14,0,0,0-7.92.09Z"/>
<path class="cls-37" d="M372.51,347.72s4.32,2.34,11,1,7.92-2.88,10-1.71-.72,2.79-.72,2.79-6.3,2.79-11.61,1.53a55.49,55.49,0,0,1-10.62-4Z"/>
<path class="cls-38" d="M384.6,349.64s3.36-1.8,4.68-1.68,3.48-.12,1.8,1.32S384.6,349.64,384.6,349.64Z"/>
<path class="cls-39" d="M366.48,344s8-2.16,10.68-1.56,4.92,1.2,4.92,1.2l4.8-.84s7.32.72,9.84,1.08-8-.6-9.84-.12-3.36,1.92-9.12,0C377.76,343.76,378,342.32,366.48,344Z"/>
<path class="cls-40" d="M613.62,203.72s4.14,2.7,7.74,2.34,9-2.7,9-2.7-3.42-2.16-5.76-2.52A10,10,0,0,0,613.62,203.72Z"/>
<path class="cls-40" d="M568.08,206.06a11.08,11.08,0,0,1,7.74-3.6,10.65,10.65,0,0,1,9.18,3.42S576.18,211.1,568.08,206.06Z"/>
<ellipse class="cls-41" cx="576.72" cy="204.98" rx="3.96" ry="3.06"/>
<ellipse class="cls-41" cx="621.9" cy="202.91" rx="3.96" ry="3.06"/>
<ellipse class="cls-42" cx="576.36" cy="204.71" rx="1.62" ry="2.07"/>
<ellipse class="cls-43" cx="579.42" cy="204.35" rx="0.54" ry="0.99"/>
<ellipse class="cls-43" cx="624.33" cy="202.64" rx="0.45" ry="0.54"/>
<ellipse class="cls-42" cx="621.72" cy="202.64" rx="1.62" ry="2.07"/>
<path class="cls-44" d="M564.24,206.12s5-6,11.1-5.49,9.62.81,11.68,2.68l2.06,1.87h0S576.37,197,564.24,206.12Z"/>
<path class="cls-44" d="M609.72,204.68s12-14,24,0c0,0-9.48-10.68-24.36.12"/>
<path class="cls-16" d="M566.52,208.64s10,10.32,19.2,0A27,27,0,0,1,566.52,208.64Z"/>
<path class="cls-16" d="M560.16,204.8s4.68-6.72,11.52-6.6,15.24,4.44,15.24,4.44S576,195.92,560.16,204.8Z"/>
<path class="cls-16" d="M611.88,207.08s9.84,8.64,18.84-.48C630.72,206.6,626.52,209.48,611.88,207.08Z"/>
<path class="cls-16" d="M608.64,202.4s6.84-7.8,12.72-7S636,200.6,636,200.6,619,193.16,608.64,202.4Z"/>
<path class="cls-45" d="M581.58,258.74a25.65,25.65,0,0,0,4.64-1.91,28.86,28.86,0,0,1,6.28-2.1,6.85,6.85,0,0,1,2.73-.73,11.18,11.18,0,0,1,2.92.92c.54.45,4.46-.55,2.55-.19s-1.06.17,1.82-1.09h6.37l4.55.36,4.55.92,3.64.18L616,258.38s-3.83,2-7.28,3.64-12.56,2-12.56,2a27,27,0,0,1-10.56-3.46C585.48,260.8,580.31,258.74,581.58,258.74Z"/>
<path class="cls-46" d="M581.31,258.88a9.65,9.65,0,0,1,5.12-1c2.74.32,11.16,1.75,15.91.32a76.31,76.31,0,0,1,18.84-3A117,117,0,0,0,602.89,259s-3.11,1.59-16.46-.16C586.43,258.88,586.07,258.4,581.31,258.88Z"/>
<path class="cls-47" d="M581.58,258.8s7.29-3.33,9.18-3.87,3.51-2,7.2.09a1.26,1.26,0,0,0,1.35-.18,9.42,9.42,0,0,1,4.77-1.35,129.23,129.23,0,0,1,17.1,1.71s-13.23.81-17.46,2.88a18.18,18.18,0,0,1-9.09,1.17c-4.86-.72-8.73-1-8.73-1S582.57,258.71,581.58,258.8Z"/>
<path class="cls-48" d="M589,260.6a36.91,36.91,0,0,0,10.53-.09c5.49-.9,11.16-2.25,11.16-2.25l3.87-1.44a12.33,12.33,0,0,1-5.58,4.05,73.28,73.28,0,0,1-9.27,1.89s-6.21.63-8.55-.45a21.79,21.79,0,0,1-3.33-1.8Z"/>
<path class="cls-49" d="M595.53,261.14s7.83-1.53,7.83-.72-.36,1.35-1.89,1.35S595.53,261.14,595.53,261.14Z"/>
<path class="cls-50" d="M588.69,256.91s4.68-2.16,6.39-1.26.9,1.8-.09,2S588.69,256.91,588.69,256.91Z"/>
<path class="cls-50" d="M597.78,256.19a10.27,10.27,0,0,1,3.78-1.35c1.89-.18,10.17,0,10.17,0s-6,2.43-7.47,2.7-5.76,2.61-6.66,1.17A2,2,0,0,1,597.78,256.19Z"/>
<path class="cls-51" d="M53,281s3.62,15.53,6.64,21.75c.19.39.38.74.56,1.05,3.12,5.28,16.08,17.52,18.24,30.72s3.6,22.32,3.6,22.32L79.2,354s-.48,3.6,1.68,3.6S92.4,358,92.4,358s13.92,1.92,15.12,2.88,16.32,2.88,16.56,14.88-2.4,41.28-2.4,41.28-3.6,20.4-1.92,21.6,5,13.92,5.52,26.88,1,20.88,1,20.88-24.72,10.56-24,.48-2.16,27.36-15.36,12.48-19,13.68-28.08.72-12.24,4.8-27.36-4.8-18,7.44-24.72,1.68S0,335.48,0,335.48s22.32-7.2,25.44-10.56l.48-1.92L35,316.76s8.64-10.08,10.8-14.64,2.4-11.52,2.4-11.52L48,287.72,52.32,282Z"/>
<path class="cls-51" d="M139.2,300.92s15.6,10.8,22.56,30c0,0,18,10.08,23.28,24.72l16.32,7.2,8.16,1.2,3.84,4.56s6.48,4.08,7,8.16,5.28,5.76,5.28,5.76l19,42S228.72,463.4,228.48,480,221,504,217.2,503.72,206.64,491,206.64,491s9.12,22.56-6.24,16.08S185,461,183.36,478.76s-3.84,34.32-8.16,24.72-5.28-28.08-5.28-28.08l-7.2-43.92L150.24,375.8l-3.36-12-4.8-11S134.4,315.32,139.2,300.92Z"/>
<path class="cls-52" d="M124.08,375.8a1.3,1.3,0,0,0,0,.83c.5,1.12,3.88,1.57,22.78-12.83l26.16,133s-15.84,25.68-21.84,1-14.4-3.84-14.4-3.84l-10.56-7.44-5-45.12-1.68-5L121.44,402S122.64,380.36,124.08,375.8Z"/>
<path class="cls-53" d="M46.56,299s1.92,11.76,7.2,17.28,19.44,23.28,19.68,25.2S79.2,354,79.2,354l2.88,2.88s-1-31-10.32-37.44c0,0-11.76-14.88-13-18.48S53,281,53,281l-5,6S48,297.32,46.56,299Z"/>
<path class="cls-54" d="M50,309.86c1.59-1,3.23-1.85,4.86-2.74s3.29-1.74,5-2.52c-1.59,1-3.23,1.85-4.86,2.74S51.73,309.07,50,309.86Z"/>
<rect class="cls-54" x="46.57" y="300.19" width="11.98" height="0.37" transform="translate(-154.09 76.13) rotate(-32.74)"/>
<rect class="cls-54" x="45.72" y="296.31" width="11.49" height="0.37" transform="translate(-161.56 83.95) rotate(-35.22)"/>
<rect class="cls-54" x="46.67" y="291.58" width="10.08" height="0.25" transform="matrix(0.75, -0.66, 0.66, 0.75, -179.36, 106.31)"/>
<rect class="cls-54" x="46.88" y="287.01" width="7.01" height="0.25" transform="translate(-194.57 129.07) rotate(-47.21)"/>
<rect class="cls-54" x="48.02" y="303.64" width="11.56" height="0.38" transform="matrix(0.86, -0.5, 0.5, 0.86, -145.76, 68.5)"/>
<rect class="cls-54" x="51.35" y="309.4" width="11.84" height="0.28" transform="translate(-142.46 66.22) rotate(-28.9)"/>
<rect class="cls-54" x="52.88" y="312.37" width="11.94" height="0.4" transform="translate(-143.82 67.44) rotate(-28.92)"/>
<rect class="cls-54" x="55.52" y="314.85" width="12.04" height="0.6" transform="translate(-149.42 73.07) rotate(-30.02)"/>
<rect class="cls-54" x="73.95" y="341.26" width="6.79" height="0.26" transform="translate(-125.94 56.43) rotate(-22.74)"/>
<rect class="cls-54" x="74.74" y="343.87" width="6.23" height="0.52" transform="translate(-116.72 49.8) rotate(-20.72)"/>
<rect class="cls-54" x="61.34" y="322.49" width="11.47" height="0.52" transform="translate(-152.27 76.67) rotate(-29.97)"/>
<rect class="cls-54" x="59.5" y="320.15" width="12.04" height="0.6" transform="translate(-151.54 75.78) rotate(-30.02)"/>
<rect class="cls-54" x="57.16" y="317.45" width="12.04" height="0.6" transform="translate(-150.5 74.24) rotate(-30.02)"/>
<rect class="cls-54" x="63.28" y="325.19" width="12.04" height="0.6" transform="translate(-153.56 78.34) rotate(-30.02)"/>
<rect class="cls-54" x="64.94" y="327.18" width="11.52" height="0.48" transform="translate(-154.36 79.33) rotate(-30.03)"/>
<rect class="cls-54" x="66.95" y="330.6" width="11.04" height="0.36" transform="translate(-155.49 80.37) rotate(-29.96)"/>
<rect class="cls-54" x="76.25" y="347.31" width="5.22" height="0.39" transform="translate(-137.62 64.46) rotate(-24.62)"/>
<rect class="cls-54" x="72.34" y="337.84" width="7.88" height="0.43" transform="translate(-159.03 83.64) rotate(-30.05)"/>
<rect class="cls-54" x="68.86" y="333.68" width="10.21" height="0.55" transform="translate(-157.27 81.91) rotate(-30.05)"/>
<path class="cls-55" d="M45.84,302.12s3.66,11.94,7.08,15.72,19.44,24.84,19.44,24.84l7.38,15.12,2.34-1s-5.76-12.72-9.54-17.94S60.66,324,56.16,316.76s-9-18.54-9-18.54Z"/>
<path class="cls-53" d="M139.2,300.92s-5.1,22,2.28,49.86l5.4,13s16,10.92,20.52,12,11.52-.18,11.52-.18-1.62-15.3-7-24.66-10.14-20-10.14-20S151.86,303.62,139.2,300.92Z"/>
<path class="cls-54" d="M138.77,306.68l-.27-.28a9.06,9.06,0,0,1,3.79-2.2l.1.37A8.62,8.62,0,0,0,138.77,306.68Z"/>
<path class="cls-54" d="M138.45,311.21l-.26-.28a27.14,27.14,0,0,1,7.78-5l.15.36A26.56,26.56,0,0,0,138.45,311.21Z"/>
<path class="cls-54" d="M138.09,314.66l-.17-.35a27.59,27.59,0,0,0,5.17-3.39l.42-.35c1.34-1.12,2.71-2.28,4.45-2.39l0,.39c-1.6.1-2.93,1.21-4.22,2.29l-.43.36A28,28,0,0,1,138.09,314.66Z"/>
<path class="cls-54" d="M138.07,318.51l-.31-.22a11.07,11.07,0,0,1,4.1-3.13l.26-.13a76.43,76.43,0,0,0,7.87-4.95l.22.31a74.53,74.53,0,0,1-7.91,5l-.25.13A10.89,10.89,0,0,0,138.07,318.51Z"/>
<path class="cls-54" d="M138.28,323.34l-.26-.28c.78-.72,1.55-1.48,2.3-2.21,1.3-1.27,2.65-2.59,4.09-3.76a16.2,16.2,0,0,1,7.89-3.74l0,.38a15.74,15.74,0,0,0-7.69,3.66c-1.43,1.16-2.77,2.47-4.07,3.74C139.84,321.86,139.07,322.62,138.28,323.34Z"/>
<path class="cls-54" d="M139.07,325.7l-.27-.28c2.68-2.61,5.87-5.51,9.74-6.93a15.74,15.74,0,0,1,5.18-1v.38a15.8,15.8,0,0,0-5.05,1C144.87,320.25,141.73,323.12,139.07,325.7Z"/>
<path class="cls-54" d="M139.19,329.62l-.22-.32,9.39-6.6c2.13-1.49,4.53-3.18,7.3-3.64l.07.38c-2.69.45-5.06,2.11-7.14,3.58Z"/>
<path class="cls-54" d="M140.23,332.63l-.26-.29a55.7,55.7,0,0,1,9-6.6,12.94,12.94,0,0,1,2.27-1.11c.3-.11.62-.19.92-.27l.57-.16a11,11,0,0,0,4-2.18l.25.29a11.32,11.32,0,0,1-4.14,2.26l-.58.16a9.13,9.13,0,0,0-.89.27,11.84,11.84,0,0,0-2.2,1.08A54.34,54.34,0,0,0,140.23,332.63Z"/>
<path class="cls-54" d="M139.74,336.91l-.3-.24c1.76-2.19,4.35-3.43,6.85-4.62a26.79,26.79,0,0,0,5.2-3l.38-.31a7.49,7.49,0,0,1,1.53-1.07,7.69,7.69,0,0,1,2.6-.54,5.12,5.12,0,0,0,3-.86l.25.3a5.54,5.54,0,0,1-3.19.95,7.19,7.19,0,0,0-2.46.5,6.9,6.9,0,0,0-1.45,1l-.39.32a27.07,27.07,0,0,1-5.28,3C143.88,333.63,141.45,334.79,139.74,336.91Z"/>
<path class="cls-54" d="M139.88,339.66l-.2-.33a65.34,65.34,0,0,1,13.47-6.23l.28-.09a12.72,12.72,0,0,0,2.87-1.2q.44-.29.84-.6a10.67,10.67,0,0,1,1.16-.78,2.84,2.84,0,0,1,2.48-.27l-.16.35a2.48,2.48,0,0,0-2.14.26,12,12,0,0,0-1.11.75c-.27.21-.56.42-.86.61a12.83,12.83,0,0,1-3,1.25l-.28.09A64.8,64.8,0,0,0,139.88,339.66Z"/>
<path class="cls-54" d="M140.09,342.65l-.13-.37a40,40,0,0,0,7.24-3.82,53.61,53.61,0,0,1,5.59-3.16,26.24,26.24,0,0,1,9-2.32l0,.38a25.73,25.73,0,0,0-8.9,2.3,50.34,50.34,0,0,0-5.55,3.13A40.45,40.45,0,0,1,140.09,342.65Z"/>
<path class="cls-54" d="M141.71,346.37l-.25-.29a40,40,0,0,1,17.1-8.47l.49-.11a9.49,9.49,0,0,0,4.51-1.81l.26.29a9.84,9.84,0,0,1-4.69,1.9l-.49.11A39.8,39.8,0,0,0,141.71,346.37Z"/>
<path class="cls-54" d="M141.84,348.78l-.14-.36a80.25,80.25,0,0,0,9.8-4.43l1.68-1a28.77,28.77,0,0,1,4.84-2.5,29,29,0,0,1,7.22-1.31l0,.39a28.26,28.26,0,0,0-7.12,1.28,28.81,28.81,0,0,0-4.78,2.47l-1.69,1A79.55,79.55,0,0,1,141.84,348.78Z"/>
<path class="cls-54" d="M143.49,352.66l-.13-.37a136.49,136.49,0,0,0,16.23-6.82l.07,0a10.05,10.05,0,0,1,2.76-1.06c1.56-.26,3.2.17,4.47-.55l.19.34c-1.4.78-3.09.34-4.59.59a10,10,0,0,0-2.66,1l-.07,0A134.92,134.92,0,0,1,143.49,352.66Z"/>
<path class="cls-54" d="M144.12,355.72c-.14-.82.45-1.56,1.75-2.21l8.13-4.07c.89-.44,1.81-.9,2.75-1.29,3.75-1.51,7.81-1.81,11.74-2.1l0,.39c-3.89.28-7.93.58-11.61,2.07-.93.38-1.85.84-2.73,1.28L146,353.85c-1.13.57-1.65,1.17-1.54,1.8Z"/>
<path class="cls-54" d="M145.1,357.4l-.2-.33a57.28,57.28,0,0,1,13.72-6,26,26,0,0,1,4-.88c.88-.11,1.79-.15,2.66-.19a16.42,16.42,0,0,0,5.32-.85l.14.36a16.19,16.19,0,0,1-5.44.87c-.87,0-1.76.09-2.63.19a27,27,0,0,0-3.93.87A56.92,56.92,0,0,0,145.1,357.4Z"/>
<path class="cls-54" d="M147.31,360.62l-.21-.33A95.81,95.81,0,0,1,158.54,354a18.88,18.88,0,0,1,4-1.49,21.78,21.78,0,0,1,3.4-.35l6.44-.3v.39l-6.44.3a20.77,20.77,0,0,0-3.33.34,18.53,18.53,0,0,0-4,1.46A94.42,94.42,0,0,0,147.31,360.62Z"/>
<path class="cls-54" d="M150,363.57l-.23-.32c7.76-5.45,16.35-7.76,24.18-6.52l-.06.39C166.12,355.88,157.64,358.18,150,363.57Z"/>
<path class="cls-54" d="M153.83,364.83l-.19-.34A36.31,36.31,0,0,1,174.43,360l0,.39A35.89,35.89,0,0,0,153.83,364.83Z"/>
<path class="cls-54" d="M157.55,368.22l-.12-.37,6-1.86c.74-.23,1.51-.46,2.28-.64a35,35,0,0,1,9.57-.49v.39a35,35,0,0,0-9.47.47c-.76.18-1.52.42-2.26.64Z"/>
<path class="cls-54" d="M163.31,370.68l-.08-.37,3.83-.85c2.9-.64,6.19-1.37,9.35-.76l-.07.38c-3.08-.6-6.33.12-9.2.76Z"/>
<path class="cls-54" d="M166.05,373.34l-.14-.37a28.89,28.89,0,0,1,10.86-1.67l0,.39A28.25,28.25,0,0,0,166.05,373.34Z"/>
<path class="cls-56" d="M146.88,363.8l24.24,137L173,499.4S160.56,413,157.2,406Z"/>
<path class="cls-56" d="M147.6,388.28l-5.76,95.28s7.92,3.36,9.36,7.2S147.6,388.28,147.6,388.28Z"/>
<path class="cls-56" d="M124.1,376.63s0,4.21,22.78-12.83l3.36,12s-26.64,16.08-27.36,11.52S124.1,376.63,124.1,376.63Z"/>
<path class="cls-56" d="M150.16,367.45,181.8,486.13S179,507.33,175,502,146.52,363.8,146.52,363.8Z"/>
<path class="cls-57" d="M177.69,382.56s-3.19,9.05.71,17.73,3.9,12.07,3.9,12.07l1.06,11.32s-11.69-21.88-12.75-29.05-2.13-18.11-2.13-18.11Z"/>
<path class="cls-57" d="M163.44,334.52S180,349.88,181.68,355.4l17.52,8.88L210,365l1.68,4.56-14.4,20.88s-7.2,5-10.32,12.72-2.4,20.88-2.4,20.88l2.16-15.36a37.48,37.48,0,0,1,9.6-13.92C203.52,388,211.44,376,211.44,376l1.92-7.44L209.52,364l-8.16-1.2L185,355.64s-2.4-12.48-23.28-24.72Z"/>
<path class="cls-58" d="M169.2,376.76s13.92,11.76,19.44,12.72,6.72.72,6.72.72S184.67,388.86,169.2,376.76Z"/>
<path class="cls-58" d="M178.08,359.48s23,7.44,25.2,11.52l2.16,4.08S205,369.8,178.08,359.48Z"/>
<path class="cls-59" d="M212,401s9.72,45.36,9.72,58.32v13S226.8,417.56,212,401Z"/>
<path class="cls-59" d="M210.24,384.8s13,15.84,14,27.72,1.08,27,1.08,27S234.36,398.84,210.24,384.8Z"/>
<path class="cls-59" d="M216.72,384.08s8.28,9.36,8.64,13.32S229.32,391.64,216.72,384.08Z"/>
<path class="cls-59" d="M229.32,405.32s5,23.4,2.16,36l-2.88,12.6S243,431.24,229.32,405.32Z"/>
<path class="cls-60" d="M25.92,323s27,52.08,49,60.72S95,393.44,95,393.44l7.56,91.8s-2.88,2.16,0,3.6,23.88,2.4,23.64-2.4.84-46.56-6.72-50.16-1.08-1.08-1.08-1.08l5.66-58.57s8.74-15.23-43.46-21c0,0-29.52-38.52-36-53.28C44.64,302.36,37.08,317.36,25.92,323Z"/>
<path class="cls-61" d="M29.16,324.32s17.28,30.6,31.68,43.56,35.28,22,35.28,22S61.2,375.8,29.16,324.32Z"/>
<path class="cls-61" d="M33.12,322.16s22.68,31.32,28.44,36S50.4,354.56,33.12,322.16Z"/>
<path class="cls-61" d="M36.36,318.92s4,11.52,10.44,15.12,18,16.56,18,20.88v4.32s10.08-3.6-15.48-27.72C49.32,331.52,44.28,330.08,36.36,318.92Z"/>
<path class="cls-61" d="M45.72,308.84s23,28.44,24.12,37.44-2.52,13.32,1.08,13.32,32.76,2.16,32.76,2.16l-32.4-4S80.64,343.4,45.72,308.84Z"/>
<path class="cls-61" d="M1.08,339.08s22-7.92,23-9.36-9,21.24-9,21.24L19.8,334.4S5.76,340.88,1.08,339.08Z"/>
<path class="cls-61" d="M35.28,349.16s7.56,18,7.56,29.16v11.16S48.6,366.44,35.28,349.16Z"/>
<path class="cls-61" d="M59,375.44s10.8,75.24,10.44,83.88L69.12,468l1.44-1.08S69.48,409.64,59,375.44Z"/>
<path class="cls-61" d="M65.16,379.76S90,496.4,88.92,498.56s-5.4-1.8-5.4-1.8S67.32,399.56,65.16,379.76Z"/>
<path class="cls-62" d="M410.88,366.67s-4.05,2.19-6.58,2.19-8.61,4.13-8.61,4.13l-22.95,22.87c-.43-.38-1.55-1.26-4.15-3.18-6.14-4.56-18.23-13.13-18.23-13.13a15.23,15.23,0,0,0,1.45-2.11.91.91,0,0,1-.73-.92v-.27a.91.91,0,0,1-.68-.66c-1.46-5.16-2.29-10.46-4.74-15.29-.73-1.43-1.63-2.81-2.46-4.21.92,2.15,2.76,6.47,3.86,9.12,1.52,3.65,11.91,70.24,10.89,76.31s-8.86,23.09-8.86,23.09l5.07,18.47,25.07-27.46L402.52,424l-2.78-11.43Z"/>
<path class="cls-63" d="M371.76,396s13.92-14.64,21.6-20.4a49.38,49.38,0,0,1,14.4-7.68l-25.92,30.24-7.62.18-2-1.26"/>
<polygon class="cls-63" points="399.12 424.04 374.88 457.64 370.08 464.6 401.04 426.68 399.12 424.04"/>
<path class="cls-63" d="M354.48,388s10.32,8.16,12.24,14.4.24,9.36.24,9.36l-11.76-6.72-2.88-17.76Z"/>
<path class="cls-64" d="M371.76,396.31s19.75-21.87,25.4-24.79a31.62,31.62,0,0,1,11.8-3.16S380,399,376.27,399.71,371.76,396.31,371.76,396.31Z"/>
<polyline class="cls-64" points="400.56 425.96 353.52 480.68 353.76 484.04 384.24 451.64 401.04 426.68"/>
<path class="cls-64" d="M343.92,353.72S352,375,351.81,377.44a27.54,27.54,0,0,1-.93,4.84s-7-25.44-7-28.56"/>
<path class="cls-64" d="M358.32,438l17,18-18-12.72s1.68-2.88,1-5.28"/>
<path class="cls-64" d="M355.44,453.8s11.76,3.6,16.32,2.64l4.56-1S359,460,354.48,456.92s-1.44-.48-1.44-.48Z"/>
<path class="cls-64" d="M361.68,459.08,354,479.72l20.88-22.08A56.61,56.61,0,0,1,361.68,459.08Z"/>
<path class="cls-64" d="M351.6,379c.21-3.88,26.64,17.88,26.64,17.88s1.92,1.44-1.44,1.68-25.2-17.28-25.2-17.28"/>
<path class="cls-64" d="M368.64,394l4.8,5Z"/>
<polyline class="cls-64" points="399.84 421.4 373.68 455.72 401.52 425.48 399.84 421.4"/>
<path class="cls-64" d="M395.64,395.24l-28.8,36.36S395.28,402.08,395.64,395.24Z"/>
<path class="cls-64" d="M359.64,398.84S375.84,409.64,378,410,369.72,410.72,359.64,398.84Z"/>
<path class="cls-65" d="M354.16,483.08l27.44,85L312.48,514.4s22.32-25.92,25.2-32,10.8-15.12,10.8-15.12Z"/>
<polygon class="cls-66" points="354.43 481.51 404.87 421.13 414.96 405.68 416.46 428.5 418.59 424.82 415.34 435.2 420.59 436.23 425.85 407.89 426.6 459.06 425.47 496.24 415.34 528.26 402.57 528.63 378.92 552.56 347.76 485.93 354.43 481.51"/>
<path class="cls-66" d="M348.48,467.24,297,399.2s-37.8,15.48-38.16,16.92.72-4-4.32,0a38.13,38.13,0,0,1-10.8,5.76s-14.4,38.16-15.84,50.4S225,497.12,225,497.12s0,37.44-1.08,43.56-.36,22-.36,22l19.8,19.44,32.4,6.48,43.56,5,42.12-2.88S436,640,449.28,619.16s43.92-40.32,43.92-40.32l63.72-13.32-7.2-87.84L540,440.6,525.24,414l-14.76-11.52-50.4-25.56-10.08,59L441.36,509l-32,17.28-50-10.8-10.8-48.24"/>
<ellipse class="cls-67" cx="305.52" cy="560.6" rx="8.4" ry="9.12"/>
<path class="cls-67" d="M376.14,564.89a3.86,3.86,0,0,0-.17-.58.89.89,0,0,1-.41-.77v-.11a9.63,9.63,0,0,0-1-1.3,22.51,22.51,0,0,0-3.47-3,31.83,31.83,0,0,0-4-2.45,11.13,11.13,0,0,0-3.14-1.17,9.29,9.29,0,0,0-4.13,7.85c0,5,3.76,9.12,8.4,9.12a8.58,8.58,0,0,0,8.2-7.19A.69.69,0,0,1,376.14,564.89Z"/>
<polyline class="cls-68" points="314.82 510.62 381.24 567.14 312.48 514.4 314.82 510.62"/>
<path class="cls-68" d="M349.09,464.61s28.55,95.51,29.27,99.11-32.4-90-32.4-90l2.52-9.11"/>
<path class="cls-68" d="M413.4,401.72s-55.81,79-59.85,78.89.65,2.47.65,2.47,44.7-42,62.32-73l-3.12-6.84"/>
<path class="cls-68" d="M414.24,504.92,375.12,546.8,373,544.64s35.28-22.32,41.76-43.92,6.12-21.6,6.12-21.6l-6.6,25.8"/>
<path class="cls-69" d="M256.32,414.2s-8.64,18.24-8.64,33.12,12,91.2,12,91.2L251,452.6S246.24,443.48,256.32,414.2Z"/>
<path class="cls-69" d="M247.68,447.32S288,419.48,292.8,424.76s-1,3.36-1,3.36S264,436.76,248.16,452.6Z"/>
<path class="cls-69" d="M232.8,461.24s20.16,25.44,20.16,35-1.44-18.72-1.44-18.72L234.24,455Z"/>
<path class="cls-69" d="M235.2,490.52c-2-1.63,13.92,17.28,17.28,17.28S250.56,503,235.2,490.52Z"/>
<path class="cls-69" d="M233.28,512.6s16.8,12,20.16,12S253.44,520.28,233.28,512.6Z"/>
<path class="cls-69" d="M269.76,443l-2.88,61.44S273.6,465.56,269.76,443Z"/>
<path class="cls-69" d="M407.52,450.2l-35,66.24S397.92,474.68,407.52,450.2Z"/>
<path class="cls-69" d="M385.44,512.6l30.72-39.36S401.28,499.64,385.44,512.6Z"/>
<path class="cls-70" d="M481.44,506.84c-5.76,50.88-12.48,56.64-11,65.76,1.14,7.21-3.12,22.22-5,28.19a16.21,16.21,0,0,1,2.75-1.78c2.5-1.37,4.38-3.42,6.46-5.32s4.69-3.06,7.15-4.6,3.9-4,6.09-5.69c-3-16.86-7.73-46.59-5-53,3.84-9.12,11-60,11-60s5.28-21.12,20.16-45.6C514.08,424.76,487.2,456,481.44,506.84Z"/>
<path class="cls-69" d="M534.45,570.45c-6.26-29.88-19.89-81.85-19.89-81.85s7.26,53.21,15.05,83.33A19.34,19.34,0,0,1,534.45,570.45Z"/>
<path class="cls-69" d="M542.4,453.56,552.48,563s1.44-87.84-9.6-107.52"/>
<polyline class="cls-71" points="675.36 272.6 675.36 297.56 656.64 344.12 634.08 408.44 627.84 488.6 628.32 499.64 719.04 495.32 720.48 293.72 695.52 278.36 688.8 271.16 677.28 272.6"/>
<polyline class="cls-71" points="501.6 393.6 504.53 374.24 510.4 356.33 520.67 344.72 537.29 333.58 547.56 330.68 553.55 342.24 565.65 335.52 570.97 343.32 580.32 375.21 578.36 412.96 565.16 455.07 563.21 504.92 552.45 504.92 521.16 440.55 501.6 393.6"/>
<path class="cls-72" d="M576.54,285.8l7.38,23.94s2.34,10.44,2,13.68-4,13.68-4,13.68l-.9.72s17.1,27.9,19.62,35.64a119.53,119.53,0,0,1,3.78,15.3L623,368.42s1.8-3.42.9-4.5-6.3-8.82-2-25.38L641,306l22.68-33.84,3.06-11.88,18.54,26.46s.9,18.18-25.74,59.58l-2.88,3.06c-.69.79-26.25-21.35-25.56-22.14L657,350.78l5.4,8.28s-21.24,33.12-23.58,44.64-9.9,74.7-6.84,96.12l-72.72,4.5s-1.26-47,7.56-72.36,14.58-43.92,5-61.2-2.16-26.1-2.16-26.1l10.26,16L567.54,333.5l-14.76,10.8s-6.12-12.42-5.94-16.56,5.76-11.16,5.76-11.16Z"/>
<polygon class="cls-73" points="667.44 261.68 665.46 272.66 630.9 327.74 628.2 327.56 663.66 272.12 666.72 260.24 667.44 261.68"/>
<path class="cls-73" d="M685.26,286.7S661.5,342.86,657.54,347C657.54,347,687.78,297.5,685.26,286.7Z"/>
<polygon class="cls-72" points="552.6 343.58 566.46 331.16 568.44 333.14 552.6 343.58"/>
<path class="cls-73" d="M561.3,318.76s-5.68-2.21-8.79.55-10.62,3.86.37,25.53l15.92-12.12Z"/>
<path class="cls-73" d="M576.33,287.49s-6.86,19.91-8.48,21,12.45,29.87,12.45,29.87,4.16-1.63,5.6-15c0,0,1.08-8.69-9-36.93"/>
<polygon class="cls-73" points="561.54 319.23 577.05 288.07 562.63 320.47 561.54 319.23"/>
<path class="cls-73" d="M581.28,363.32l-29-45.07s6.64-4.14,8.15-2.7S581.28,363.32,581.28,363.32Z"/>
<path class="cls-73" d="M561.59,318.76A101.47,101.47,0,0,1,589.73,352c10.73,21,13.63,33.12,13.63,33.12s-20-49.53-42.06-64.42"/>
<path class="cls-73" d="M647.28,344.84s-10.56,7.92-14.16,16.32-17.76,17.52-17.76,17.52h-1.92s12.48-3.12,17-9.84,15.12-21.36,19-23.52-.48-1.68-.48-1.68Z"/>
<polygon class="cls-73" points="629.52 327.32 657 350.78 657.84 348.44 629.52 327.32"/>
<path class="cls-73" d="M582,357.56s9.36,26.88,9.36,37.68-7,60-9.6,80.88-1.92,27.6-1.92,27.6l10.8-83.28s4.56-28.08,2.4-33.84S582,357.56,582,357.56Z"/>
<path class="cls-73" d="M627.6,369.32s-15.36,35.52-17.76,42-4.56,40.56-4.56,40.56l-3.36,22.56s-1.2,1.68,0,6-.72,21.36-.72,21.36l1.2-.24,1-20.64s-1.68.48-.72-4.56,3.36-23,3.36-23l2.16-23.76,2.64-18.24Z"/>
<ellipse class="cls-74" cx="596.88" cy="417.32" rx="3.6" ry="4.56"/>
<ellipse class="cls-74" cx="590.4" cy="483.44" rx="3.6" ry="4.56"/>
<ellipse class="cls-73" cx="596.7" cy="415.96" rx="0.72" ry="0.56"/>
<ellipse class="cls-73" cx="596.45" cy="418.62" rx="0.61" ry="0.47"/>
<ellipse class="cls-73" cx="589.98" cy="481.7" rx="0.66" ry="0.54"/>
<ellipse class="cls-73" cx="590.16" cy="485.24" rx="0.6" ry="0.48"/>
<path class="cls-72" d="M568.8,429.44l15.12-6.12S579.6,430.16,568.8,429.44Z"/>
<path class="cls-72" d="M605.52,474.44s11.88-2.52,18.36-.72S605.52,474.44,605.52,474.44Z"/>
<path class="cls-72" d="M605.88,492.08s20.16,1.44,22,4S605.88,492.08,605.88,492.08Z"/>
<path class="cls-75" d="M668.4,340c1.44-2.88-25.2,62.64-25.2,62.64l-6.72,96-4.5,1.14c-3.46-.25,3.38-96.37,6.84-96.12C638.82,403.7,667,342.92,668.4,340Z"/>
<path class="cls-56" d="M681.12,272.12s15.36-1.92,12,13.44-19.2,55.68-19.2,55.68L670.08,347,645.6,394.52l13.92-48.24,17.76-38.64,8.64-24-8.64-11Z"/>
<path class="cls-76" d="M673.56,342.68s7.92-2.52,10.08-1.44,11.52,11.16,11.52,11.16l23,5.76-22.68-7.92-11.16-11.16Z"/>
<path class="cls-76" d="M695.52,288s11.16,11.16,8.28,24.48-3.24,15.84-3.24,15.84S710.64,306,695.52,288Z"/>
<path class="cls-76" d="M713.52,303.08s7.2,38.88-4.68,42.12C708.84,345.2,717.48,343,713.52,303.08Z"/>
<path class="cls-76" d="M693,277.52l-19.08,63.72S691.56,284.36,693,277.52Z"/>
<path class="cls-76" d="M568,332.84l-20,17.53s11.4-1.8,12.5,1.45,17.66,18.8,14.35,39.41c-3.08,19.17-11.26,45.54-12.38,49.12-.08.26-.13.4-.13.4s-5.51,30.73-5.15,47.72S577,391.59,577,391.59s6.25-18.08-9.93-41.94l2.21-4.34-4-7.59Z"/>
<path class="cls-77" d="M547.92,351s5.4,23.4-13.32,23c0,0,10.8,4.32,14.76,4.32s7.92-8.28,7.92-8.28l2.52,35.28L559.44,370l5.76-8.28L558.72,351Z"/>
<path class="cls-77" d="M523.8,357.44l-7.2,35.64S516.6,374.72,523.8,357.44Z"/>
<path class="cls-77" d="M531,388.4s11.52,14,11.16,23.4.72,10.44.72,10.44A157.65,157.65,0,0,0,531,388.4Z"/>
<path class="cls-78" d="M46.56,233.36S43,230,43.44,227.12,40.56,218,40.56,218l-4.8-.72,1.2-3.36s-4.08-2.4-4.08-3.84.48-10.56.48-10.56-.72-.48-1.44-3.84-1-12.48-1-12.48l-2.88-1.44s1.68-13.44,1-16.08,3.6-8.4,3.6-8.4l-2.88,1s.72-2.64,4.8-4.8a67.16,67.16,0,0,1,9.36-3.84l.72-1.68s-9.84.72-11.52,4.08c0,0,.48-5,6.72-7.68L47.76,141s-3.36-5,4.8-10.56,11-7.2,11-7.2l2.88-1s1.92-6.24,3.6-6.48,4.32-2.64,4.32-2.64L71,121.76s-.72-1.68,4.32-4.08S85,111.2,86.88,110a6.41,6.41,0,0,1,3.84-1h2.64a24.64,24.64,0,0,0,4.56-2.88l1.2-1.2-1.2,3.84a10.84,10.84,0,0,1,4.32,0c2.4.48,7.44,3.6,7.44,3.6l5.28,3.36,3.84-3.36s2.64-2.16,4.8-2.16h8.64l-1,.77-5.44,4s-1.2,2.64,1.92.48,4.56-3.36,4.56-3.36,1.92,2.4.72,3.6l-1.2,1.2a23.85,23.85,0,0,1,7-1,60.85,60.85,0,0,0,7,0l-4.32,1.92.48,2.4s7.68-2.64,9.36-.72-6.24,2.64-6.24,2.64l-.24,2.4s5.28-.72,7,1,7.68,6,7.68,6l1.2.72-7.92.24s-.24,1.2,3.36,1.68,6.24,7.2,6.24,7.2l-7.92.24a32.57,32.57,0,0,1,6,4.56c2.64,2.64,9.12,9.12,9.6,11.28s-2.64,3.12-2.64,3.12l6.48,8.88.48,4.32-2.64-.24,4.8,7.92-5,.72s2.64,14.4-1.2,18.72l-3.84,4.32s.48,11.28-.48,13.44-4.56,5-4.8,6.72-2.88,11-2.88,11-2.4,3.36-2.64-12.48l-.24-15.84-1.68-8.64a36,36,0,0,0-1.44-10.8c-1.68-5.52-3.6-11.52-3.6-11.52l-1.2-5.76S144,164.72,137,167.12s-10.56,2.64-10.56,2.64l-10.08,1s-6.48,2.16-9.84,1.92-15.84-.72-15.84-.72-9.6-3.84-14.88-5a19.56,19.56,0,0,0-9.6.24L60.72,171a27,27,0,0,0-5,13.92A32.23,32.23,0,0,1,51.6,198.8l-.48,9.36-1,9.6S47,223,46.8,227.36s-.24,7.44-.24,7.44"/>
<path class="cls-78" d="M136.56,125.24s13.68,1.44,17,2.88S136.56,125.24,136.56,125.24Z"/>
<path class="cls-79" d="M135.84,130.76s14.16-5.28,19.2-3.12S135.84,130.76,135.84,130.76Z"/>
<path class="cls-78" d="M132.74,131.38l2.93-1.09c.58-.22,14.4-5.32,19.57-3.11.27.12,1.11.48,1,1.17-.33,1.75-11.25,2.55-20.36,2.91Zm19-3.77c-3.78,0-9,1.42-12.4,2.48,7.36-.4,14.37-1.13,15.7-1.87l-.25-.12A8,8,0,0,0,151.79,127.61Z"/>
<path class="cls-78" d="M56.4,151.16S37,151.4,34.32,161.72,32.4,171.8,32.4,171.8,29.28,154.52,56.4,151.16Z"/>
<path class="cls-80" d="M98.1,135.14s2.52-11.88,7.2-16.74,4.14-6.48,4.14-6.48S98.1,121.28,98.1,135.14Z"/>
<path class="cls-81" d="M153.9,184.1s11.88,6.66,12.42,11.52l.54,4.86S166.86,193.46,153.9,184.1Z"/>
<path class="cls-81" d="M157,194.9s10.08,5.4,9.18,12.78l-.9,7.38S167.94,201.74,157,194.9Z"/>
<path class="cls-81" d="M159.12,208.4a22.94,22.94,0,0,1,2,14.76l-1.8,7.92S162,213.08,159.12,208.4Z"/>
<path class="cls-78" d="M111.78,156.2s11.34-9,10.26-18.18L121,128.84S128.88,145,111.78,156.2Z"/>
<path class="cls-80" d="M106.56,166.64s9.72-13,7.74-19.8l-2-6.84S122,150.62,106.56,166.64Z"/>
<path class="cls-80" d="M127.08,159.44s13-21.6,21.24-22.5l8.28-.9S144.9,133.16,127.08,159.44Z"/>
<path class="cls-81" d="M120.06,152.78s-.72-18.9,8.1-22.68l8.82-3.78S122.58,127,120.06,152.78Z"/>
<path class="cls-81" d="M143.28,156s14.22,6.3,19.8,15.3l5.58,9S162.72,167.72,143.28,156Z"/>
<path class="cls-82" d="M384.12,198.44l2.28-.6-3.6.12c-18.12,4.68-6.36.72-22.92,8.28a56.21,56.21,0,0,0-24.3,22,76.66,76.66,0,0,0-18.66,40.92s-13.44,70-12.84,75.36-9.36,49.08-9,60.12S283,475.4,283,475.4s-12.36,33.84-14.76,46.44-12.84,37.92-15.72,47.28c-1.62,5.26-.77,8.7.28,10.71a6.52,6.52,0,0,1,1.91.82h0L256,568.88l1.57,13.81c.14.12.29.22.42.34.52-8.95,3.17-24.11,3.17-24.11s-.36,11.52-1.32,21.84a26.44,26.44,0,0,0-.08,3.85c.59.58,1.17,1.17,1.7,1.8q1.31-2.25,2.72-4.46a60.45,60.45,0,0,1-.86-11.27l2.76,8.38.81-1.17.27-4,.77,2.5c.64-.89,1.29-1.76,2-2.62l1.35-13.2v.48s.33,3.71.54,10.32q.9-1.1,1.83-2.16c1.56-13.08,5.37-26.25,16.69-33.63q.23-.61.48-1.23c1.15-4.15,2.18-7.14,2.18-7.14a16.18,16.18,0,0,1,.18,2.81,26.3,26.3,0,0,1,9.5-8.42c3.53-8.12,8.32-16.46,7.84-14.79s-2.91,9.07-4.3,13.24q1.07-.37,2.16-.66l17.14-22.3s16.92-20.4,19.44-23,8.28-15.6,12-25.56S358,417,358,417c.48-10.08-9.24-54.6-12.12-59.76s-4.2-28.8-4.2-28.8c4.56,14.88,17.64,28.08,17.64,28.08l-7.44-10.68A109.27,109.27,0,0,1,342.12,324c-3.6-11.76.72-32.76,1.68-37.8s.6-16.08.6-16.08c-.84-5.28,4.68-16,4.68-16,2.16-6.72,13.56-12,13.56-12l4.92-2.16-2-.72h2.76l-1.92-.84H369l-1.8-1.08,1.2-.12-1.44-.84,1.2-.36-1.44-.72h1.8l-1.8-1.8,1.8.6-1.08-1.92h1.8l-1.2-1.32h1.08l-.84-1h1.32l-1.2-1.2h1.32l-1.08-1.8,1.56-.24-1.68-1.44h1.56l-.72-1.8,1.92.84-.84-1.92h2.16L371,220.16l1.56.36-1.2-2.16h2l-2.76-1.56,3.24.24-1.68-1.32h2.16l-1.32-1.08h1.8l-.72-1.44h1.92l-.84-1.08h1.08l-1.08-1.56,1.32-.24-1-.84,2.52.24-1-1.32h1.08l-.12-1.44,1.08.12v-1.2l1.2.24-.36-1.2h.48l-.48-1.08,1.68-.24-.36-1.56,1.92.84-.84-1.44,1.8.72-1.32-1.32,2.28.72L383.64,200h1.92l-1.68-.84,2.4.12Z"/>
<path class="cls-82" d="M386.94,197.75l-2-.09.81.45-1.08-.09,1,1-1.62-.45,1.26,1.35-1.53-.36.45,1.08h-.54l.54,1.08-.9.09.45.9-1.17-.18.9.9h-1.17l.81.9H381l1.08,1h-1.71l.63.54-2-.45,1.71,1.44-2.16-.09,1.8.63h-2.7l2.16,1.44-2.79-.36,1.8,1.17-2.07.09,1.62,1.44-2.79-.63,3.06,2.25-3.24-.9,2.25,1.71-3.15-1.08,2,1.89-2.79-.72,1.71,1.53-1.62-.54,1.08,1.44-2.07-.36,2.07,1.62-2.16-.63,1.8,1.62-2.43-.18,1.89,1h-2l1.89,1.8-2.7-.81,1.53,1h-2l2.34,1.26h-2l1.53,1.35L370.2,223l2,2.43-2.82-1.35,2.64,2.52-3.42-1.53,2.52,1.71-2.43-.54,2.16,1.71-2.34-.09,2.07,1.17H368l2.52,1.62-2.16-.27,1.53,1.17h-2l1.44,1.8-2.16-.54,1.71,1.44-1.89-.09,1.08.81-1.53.15,2.16,1.29-2.25-.18,2.16.63-1.08.27,1.26.36-1.53.36,1.17.72-1.26.09.81.63-1.8.27S377.49,244,386,244.1s16.56,5.22,16.56,5.22,11.43,6.12,18.45,11.43,11.43,19.7,12.24,33.11c0,0,1.77,6.88-1.11,16.87s-5.55,26.7-5.82,32,3.87,10,3.33,13.68-5,14.85-5,14.85-4.14,12.15-3.87,16.11.09,10.26.09,10.26,2.16-.81,2.16-2.43-1.08,27.54-1.08,27.54-2.43,19.8-1.62,24,3.12,42.9-7,57.3S386.4,538.4,386.4,538.4l6.12-3.06-5,7.56,9.72-8.82-8.46,12.06a27,27,0,0,0,8.28-5.22l4.5-4s-1.26,16.2-3.42,19.26,5.76-5.58,8.46-9.36-10.08,26.82-10.08,26.82l3.78-.9s5.58,1.26-5,7.92S383,588.44,383,588.44s12.06,2.88,14.4.9,2.7,9,2.7,9l1.8,5.94,2.88,2.7,1.62-4.86,3.42,4.14,1.62-7.92,4.68,7.74s.18-11,2.34-13.14,6.12-3.24,6.12-3.24l3.42-.18s-7.92,6.48-4.14,11l3.78,4.5,3.06-7.56,1.44,5.58,6.12-10.26,2.88,9.9,4.5-19.08,5.22,4.5s1.44-11.16,2-29.34,2.7-86.58,3.78-101.52S457,417.8,460,409.34s4.5-14.76,15.12-13,16.92-1.26,25.2,4.5,15.66,3.06,18.9,7.92,11.88,10.08,9.54,17.82-6.48,24.48-6.48,24.48l6.84-17.28-3.24,18.9,5.22-25.56.06,3.25.48,26.63.9-9.18,3.24,9.72L534,439.94l5.4,15.3-.54-9.9,3.6,10.8-4-19.26,7.56,18s.9-18-8.82-32.4-20.16-21.06-20.16-21.06l-22.32-11.7-29.88-27.36a16.19,16.19,0,0,1-5.76-12.6c.18-8.1-.18-22-.18-22l-.36-31.14s-2.16-19.44-5.58-28.08a230.26,230.26,0,0,0-12.06-33.48l-12.78-17.82s-10.62-13-21.24-15.84A127.6,127.6,0,0,0,386.94,197.75Z"/>
<path class="cls-9" d="M358.2,356.18s-1.58-1.78-3.79-4.47A20.25,20.25,0,0,0,358.2,356.18Z"/>
<path class="cls-9" d="M362,223.52c-2,0-15.66,12.6-15.66,12.6.54-3.6,14.76-16,14.76-16l-4.14.9,2.16-3.6h-3.24l5.4-4.68-6.48,3.78,6.3-5.58s-9.36,5.58-7.38,2.7,15.84-6.84,15.84-6.84a76.52,76.52,0,0,1-8.64,1.62,21.63,21.63,0,0,0-8.15,3.47l1.49-1.13L348.3,214c-.29.16-.58.33-.86.51a30.32,30.32,0,0,0-8.56,8.67s-6.9,6.18-17.88,29.4-8.94,43.68-13.8,54.84-4.08,74.16-4.08,76-3.06,39.06-3.06,39.06l7.38-19.08-16,69.12,3.24-28.62L286.74,475s-7.92,38.16-16.56,58.68-4.68,35.28-4.68,35.28,9.36-33.66,6.3-22.14c-1.66,6.26-.51,15.39.9,22.43A70.38,70.38,0,0,1,276.47,553l.55-11.6,1.58,6.88a35.93,35.93,0,0,1,2.62-4.23c.3-6.06,1.37-11.82,4.08-14.53a31.33,31.33,0,0,0,5.48-7.9c-3.56,9.55-3.32,14.2-3.32,14.2L300.6,509.9l-3.75,15.52,0,.17c.55-.46,1.11-.9,1.69-1.32l.46-1.77c2.88-10.62,24.84-41.76,24.84-41.76l-16.2,26.82,18.72-20.88-14.4,20.7C339.48,483.26,354.42,417,354.42,417l-.9,18.36c-.9,18.36-4.68,22.5-15.66,41s-16.92,26.64-16.92,26.64l8.28-11s10.08-11.7,12.06-14.4,7.92-12.24,7.92-12.24a181.31,181.31,0,0,0,7.38-17.28c3.24-9,.9-27,.42-30.48s-2.22-14.52-2.94-21.18-10.26-40.14-10.26-40.14-5.22-34.74-3.24-26.28c1.35,5.78,9.08,15.83,13.85,21.63-5.18-7.63-11-20.91-11-20.91a104.05,104.05,0,0,1-3.6-14.22C338.58,309.2,341.1,300,341.1,300l2.52-15.84v-16s-.36-5.22,3.42-13.14a25.64,25.64,0,0,1,11.34-11.34l-5.22,2.16,7-4-7.38,1.8L362,237l-9.9,2.16,5.58-4-6.3,2.52,10.08-10.26c-2.52.36-11.7,9-11.7,9C351.72,233.42,362,223.52,362,223.52Zm-45.9,239s-6.48,22.86-17.82,43.2c-1.76,3.15-3.22,6-4.45,8.68a54.82,54.82,0,0,0,1.57-5.26l5.4-17.28,18.9-50.58Z"/>
<path class="cls-9" d="M392,243l-1.48-.63-11.12-4.77,16.56,4-14.4-7.2,15.48,2.16-12.24-8.28s12.6-2.52,14.76.36S384.48,217,384.48,217s15.48,1.44,18.36,6.84-8.64-10.08-8.64-10.08l13.32,7.56-14.76-14,13.32,7.92-5.76-9.72,12.24,7.2-8.64-11.16A44.33,44.33,0,0,1,427.68,217c9.72,12.6,17.28,17.28,23.76,42.84S459.72,316,459.72,316s-3.24,34.2,1.44,40.68S500.76,397,500.76,397l-17.64-13.68,19.8,16.92-18.36-10.8,6.12,5.76s-25.2-14-28.8-20.88S459.72,410,459.72,410l-2.16,73.44-6.12,87.48L445,528.44l.36,55.44-4-28.08L430.2,583.52l6.48-51.84L419.4,588.92l6.84-43.2L414.72,582.8l8.64-51.12L409,559.76l13.68-48.6L407.52,547.7l10.08-39.42L400,533.12s25.2-16.2,27.36-51.48,16.2-76,17.28-104.76-5-23.4-2.16-63,4.32-45.72-6.48-54.72-7.56-4.68-7.56-4.68l-8.28-9.36,13.68,13-22-10.8,14,10.08Z"/>
<path class="cls-83" d="M343.44,224.24s-20.52,9.36-22,36-7.2,57.24-7.2,57.24l-2.88,30.6,6.12-38.16-4,72.36L325.08,293l1.8,95.4,2.52-95,5,73.44s-4-81,2.88-105.12,9.36-30.6,9.36-30.6l4-9.72-13,26.28,11.88-29.16L339.48,239l1.8-8.64-5.76,6.84,3.24-8.28-4.68,5.4S330.48,235,343.44,224.24Z"/>
<path class="cls-83" d="M303.84,443.48s12.24-23.76,7.92-46.08-6.48-22.32-6.48-22.32l12.24,36-.72-20.16,4.32,19.44-3.6-36.72,7.92,31-3.6-45.36L329,401l1.44-45.36,5.76,48.24,1.44-29.52,5.76,43.2,2.16-28.8S355,401,347,427.64s-18,55.44-18,55.44L331.2,455s-2.16,28.8-10.08,36l3.6-20.88-17.1,37.44,13.5-38.16L300.6,509.9l14-44.1L293,516.12l13.68-47.44-26.64,56.16,18.72-51.12L281.52,514s15.84-41.76,15.84-54.72S303.84,443.48,303.84,443.48Z"/>
<path class="cls-83" d="M403.2,242.12l-4.8-6,8.88,6-3.6-6.72,4.08,2.16-6-8.88,5.76,4.56-5.28-6.72,7.92,5.28-1.2-5.28,8.64,5.76-3.36-14.64,4.56,7.92-1-7.44,6.48,8.16s-9.36-17.64-10.56-15.6c0,0,4.32-1.2,11,8.64s9.84,8.16,17.52,27.6,12,35.28,12,35.28l.72,17-2.88-16.8-.72,28.32L450,287l-3.12,22.56,1.2-22.56-2.4,19.92s.48-32.88-8.16-43.2-16.08-12.48-16.08-12.48l10.32,10.32L423.84,256l9.36,9.84-12-9.6-10.8-7.44-15.84-6Z"/>
<path class="cls-83" d="M466,363.27a20.38,20.38,0,0,0,3.27,2.48Z"/>
<path class="cls-83" d="M457.53,356.84l8.48,6.43c-5.2-4.68-14.78-16.72-14.61-41.78.25-34.37-.49,1.48-.49,1.48l.74,24.48L448,310.36l-.25,28.19-3.67-33.63-.49,38.82L440.87,318l-6.12,49.7L436,322.48l-12.49,38.07,9.06-42s-5.88,24.73-11.76,32.89a58,58,0,0,1-11.11,11.49,1.13,1.13,0,0,1-.29.69l0,0a26.76,26.76,0,0,0-1.62,2.46h0l-.17,3.86s-13.47,39.81-10.28,48.46a50.18,50.18,0,0,1,2.33,7.18l11.87-21.77.24,28.19,2.7-5.19-1.23,27.94,4.41-21.26-1.22,15.57,12-56.37-.25,32.64,11.75-62.07-2.44,45,14.2-33.88-2.94,64.54,8.82-57.86L459,365l18.37,17.07Z"/>
<path class="cls-84" d="M320.58,401.18s4.32-19.8-1.44-39.42l-5.76-19.62L323.1,369S325.44,390,320.58,401.18Z"/>
<path class="cls-85" d="M282.25,542.71l.35-12.83-2.11,15.22C281,544.28,281.63,543.48,282.25,542.71Z"/>
<path class="cls-85" d="M278.06,549.33l.22-7.21L275.5,555.8A47.83,47.83,0,0,1,278.06,549.33Z"/>
<path class="cls-85" d="M272.61,570a90.1,90.1,0,0,1,1.62-9.52l2.25-24.07s.36-3.24-3.6,13c-1.36,5.57-1.19,13.17-.38,20.75Z"/>
<path class="cls-85" d="M257.4,580.64l3.6-9.36,1.44,12.56h0l1.08-14,2.64,4.8.6-7.32.91,8.81c.11-.15.21-.3.32-.44l1.65-22.41-6.12,11.88.43-1.78,1.73-7.22-4.32,7.56,2.16-15.48-4,5.4-5.4,17.64L253.08,576l4.32-8.28Z"/>
<path class="cls-84" d="M329,401s-3.6,54.72-10.44,69.48-9,16.92-9,16.92l7.56-23.76s5.4-16.56,5.4-23.4.72-22,3.6-30.6"/>
<path class="cls-84" d="M340.92,417.56s-2.88,38.16-6.84,45.72,8.28-20.88,8.28-20.88Z"/>
<path class="cls-85" d="M298.8,408.56l-16.92,70.2Z"/>
<path class="cls-84" d="M311.4,327.2s3.24,18-.36,51.12-4,36-4,36S324,368.6,310.32,329"/>
<path class="cls-9" d="M442.08,437s-17.28,82.08-22.32,91.44S434.16,512.6,442.08,437Z"/>
<path class="cls-84" d="M426.53,497.75,410.4,519.56l18.28-22.85A5.35,5.35,0,0,1,426.53,497.75Z"/>
<path class="cls-84" d="M453.6,449.24l3.12,15.36-.48-44.88-1.68,16.8-1-24.48L450,428.36l-1.2-19.2-2.64,18.48-1.68-14.88-6.24,32.88,3.36-35.76S433,434.36,436.32,449c.86,3.76,1.61,6.94,2.25,9.61,1.64,2.41,2.13,5.49,2.14,8.6.43,1.65.65,2.43.65,2.43l-.66-1.24c-.07,2.33-.35,4.63-.56,6.66,0,.3-.07.59-.11.88l.85,2.82-1-1.57c-1.12,6.8-4.06,11.9-8.63,16.94l-12.66,40.55,7.44-13-3.12,24.48,6.72-23L425,545l9.6-31-6.24,35.28L439,509l-1.68,38.4,6.24-51.12-2.64,47.52,3.6-36.72,3.36,29.52V501.8l3.6,33.12-1.68-37.44,1.68,18L450,468l4.08,35Z"/>
<polygon class="cls-84" points="433.92 451.4 426.96 489.32 434.4 460.52 427.44 494.36 435.6 466.28 429.12 502.52 436.8 476.84 434.16 503.72 438 473.24 440.4 497.48 438.72 462.44 442.08 493.16 443.76 450.2 440.4 460.28 441.84 439.88 436.08 451.64 436.32 439.4 433.92 451.4"/>
<polygon class="cls-84" points="436.56 480.68 432 496.28 437.52 481.88 438.24 494.12 439.2 472.52 436.56 480.68"/>
<polygon class="cls-84" points="427.2 499.88 415.68 523.4 417.84 516.2 421.68 506.36 427.2 499.88"/>
<polygon class="cls-9" points="417.84 365.24 404.4 405.8 417.36 377.24 416.4 410.12 420.48 375.32 420.96 412.28 428.16 364.28 430.56 402.44 435.36 335 428.64 357.8 436.8 318.2 417.84 365.24"/>
<path class="cls-86" d="M396.72,203.72s18,5.52,26.88,16.56l8.88,11-9.6-10.08S413.76,210.68,396.72,203.72Z"/>
<path class="cls-87" d="M550.8,216.14s-5.76-12.78-9.18-17.82a32.27,32.27,0,0,1-4.5-10.8l-.9-7.2s-4-2-3.24-6.3,1.26-13.5,1.26-13.5l.36-2.88.18-7.2s3.42,1.08,2.88-4.5S538.74,131,538.74,131s2.7-7.92,8.28-8.64c0,0,5.76-13.14,12.78-17.1s9.36-7.38,9.36-7.38l6.12-5.94,9.54-4.14,9-.72,3.24-1.26s4-5.94,11.88-3.6a81.4,81.4,0,0,0,15.12,2.88l8.28,5.76s11.7.72,18.36,8.46a124.43,124.43,0,0,1,9,11.34,22.37,22.37,0,0,1,12.24,1.8c5.76,2.88,11.16,9.18,11.16,9.18l3.06,7.2L681.3,124l5.22,7.56-3.78-3.06,4.68,5.76-2.52-1.08s2.34,4.5,1.8,6.66-1.44,4.14-.54,6.84,1.08,11.88,1.08,11.88V162l-2.7-5s-.9,10.08.18,13.5-.72,4.5-.72,4.5l.36,4.68s2.52,1.8,1.26,5.76a55.31,55.31,0,0,1-3.24,7.74s2.7,2-1.44,15.12S676.26,223,676.26,223l1.8,18.18L677.7,246l-2.34-8.46-.18,5.94-1.44-2.88s3.78,5.58,0,7.74-7.56,9.9-7.56,9.9h-2s-1.62-21.6-1.26-23.94,5.4-2,8.46-5.94,3.06-9.72,3.06-9.72l.18-5.76,2.34-5.22,2-5.4s1.8-6.48,0-8.46-2.7-2-2.7-2l-.72.9,1.08,6.12-1.44-1.62-1.08,6.84s-1.26-5.4-1.26-3.78v5.94l-2.52-4.14-2.34,9-3.06-14s-3.06,15.3-4.68,16.56-2.7-9.18-2.7-9.18-1.62-6.48-3.78-17.1-2.34-10.08-2.34-10.08l-.18,11.34-2.7-8.64L650,190.22s-6.3-22.86-8.46-25.38l-2.16-2.52s2.16,12.6,4.68,18.18l2.52,5.58s-9-17.28-11.16-23-3.06-5.94-3.06-5.94l.54,1.44-11-5,9,13.14L616.14,151s8.28,14,10.62,14.76.18.72.18.72S614.34,156,613.26,151s-4.32-5.94-4.32-5.94-2.7,6.48-7.56,9.72a17.84,17.84,0,0,1-9,3.24s-6.3,14.4-13.5,16.92-4.5,1.26-4.5,1.26l9-7.56s.72-.36,3.42-5.58l2.7-5.22s-11.34,8.28-13,6.66l12.6-9.18.72-2.7s-8.82,4.5-11.52,8.46,1.08-4.32,1.08-4.32l6.84-5.94-4.5.36s1.62-4.14-8.64.36-14.22,6.12-14.22,6.12l6.48-5s9.36-4.5,8.82-5.58c0,0-12.24-.18-12.42,1.62s-.18,3.06-.18,3.06l-3.6,1.62v2.88h-3.78l1.08,1.44-2,2s0,13.32.36,14.58a16.65,16.65,0,0,0,1.44,3.06H551.7s.18.18.54,7.2a69.65,69.65,0,0,0,1.62,12.06L553,208l.54,7.56v2.34Z"/>
<path class="cls-88" d="M582.24,103.64s-27.84,17.28-28.08,20.16L569,113.48s-8.88,15.12-12.48,17.76l-3.6,2.64L569,119.48s-19,20.64-23.28,31.2l-4.32,10.56s6.48-14.4,15.6-23.76,12.72-11,12.72-11L566.64,132s10.56-4.56,12-9.84,12.48-13.92,12.48-13.92l-11.52,7.68s21.84-16.08,13.92-11.76a87.93,87.93,0,0,0-14.4,10.08L592.8,99.32l-12.72,10.32,9.6-9.84Z"/>
<path class="cls-88" d="M572.64,132.2,600,106.52s-19.2,22.56-22.8,24.24S572.64,132.2,572.64,132.2Z"/>
<path class="cls-88" d="M595.2,137s.48-12.24-1.2-11c0,0,4.32,5,4.08,6.48S607,119.72,607,119.72l-5.76,13.92L595.44,144l1.68-7.68L594,140.84Z"/>
<path class="cls-88" d="M607.68,114,619,129.8l-3.12-10.08s8.16,8.88,10.32,13.92.48-9.12.48-9.12l-5-5.28,5.76,1.2L612.48,106l7,10.56-13.2-9.12,10.32,9.12-11.28-5.52Z"/>
<path class="cls-88" d="M641.52,110.6s22.56,5,29.76,11.76l7.2,6.72-11-7.68,14.88,14.88-10.32-6,10.32,11s-16.8-13.68-18.24-15.36,8.64,17.76,8.64,17.76l-17.52-19L664.32,142l-13-17,3.84,15.12-7.68-16.32,1.68,7s-3.12-13.2-8.16-16.56l-5-3.36Z"/>
<path class="cls-89" d="M644.64,140.6s10.08,20.88,10.56,29.76-1-11.76-1-11.76l5.28,12.72-4.8-17.76L665,172.28l-7.2-20.4L671.28,174l-7.44-24L679,179.72l-9.12-32.4,9.36,21.36-3.12-22.08s-2.4-10.32-4.32-11.52,3.12,7.44,2.4,12.24S664.08,137,664.08,137l2.64,12.24-10.8-15.84,1.92,12.24-6.72-9.84.48,11.52Z"/>
<path class="cls-88" d="M601.2,109.16l-12.72,18.48,9.12-8.88-.24,7.44,2.88-10.8v10.8l1.92-8.88,3.12,2.16L607,104.6l-4.8,8.64s2.16-12.48,1.92-10.8a74.86,74.86,0,0,1-2.64,7.92"/>
<path class="cls-88" d="M588.24,96.2l19.92-12-6.72,5.52,13-4.08-6.72,6.24s4.56-4.8,9.6-3.84a19.77,19.77,0,0,1,8.4,3.84l2.16,1.92-5.76-1.68,5.28,6.72-6-2.88,6,7.44L623,101.72l1.68,6-3.84-4.56,2.16,7.2-9.36-16.08L617.76,106l-9.84-6.24,1.68,6.72-8.4-7.68Z"/>
<path class="cls-88" d="M625.2,147.32s10.8,9.84,12,15.36l-4.56-11.52,10.08,12.24-5-8.64s12,7.68,11.28,14.16l1-4.32,3.36,8.4-6.48-19,3.6,4.8s-8.88-11.52-11-12.72-12-9.6-12-9.6l8.4,10.8-15.6-18.24L629,143.24l-13-13.68L625,142.28l-16.08-14.16Z"/>
<path class="cls-88" d="M606.24,142s-6.72,12.48-11,12.72-5.28-.24-5.28-.24S599.28,163.64,606.24,142Z"/>
<path class="cls-88" d="M534.24,171.08l1.2-10.8.48,9.36,2.64-13.92V169.4l6.24-4.08-1.68,4.56s6.48-11,3.36-10.8c0,0,4.08-.48-1.44,11.52l6.24-7-1.92,7.2,3.36-4.32L553,176.6a1.66,1.66,0,0,0-2.4,0c-1.2,1.2,1.2,12.24,1.2,12.24v19.44L548.88,196l1.44,10.08-4.08-13,1,6.48-2.64-9.12,1.68,6.72-2.88-8.16-1.68,5s-4.32-5.52-4.32-11.76-2.4-6.48-2.4-6.48Z"/>
<path class="cls-88" d="M627.12,111.56s15.84,17.28,15.12,27.36S640.56,128.84,627.12,111.56Z"/>
<path class="cls-88" d="M632.16,100s15.84,3.6,17.28,7.2S632.16,100,632.16,100Z"/>
<path class="cls-90" d="M73.68,161.72l-3.12-9.6,6.48,9.6-6.48-13.44L78,160l-4.56-10.56,7.44,14.4L76.8,143l6.48,19.2L85,145.64,86.4,159.8,85,139.4l4.56,23.28L88.8,145.4,92.4,162,91,146.6l4.32,16.08-.48-10.32,4.32,13.92-1.68-33.12,3.84,32.64,6-33.84-2.64,31.2,12.72-32.88-10.8,32.4,19-28.08-13,24.24L133,125.72,116.64,158.6s4.8-17.52,12.48-18.72,6.48-1.44,6.48-1.44-15.94,5.46-17,19.94c0,.39,0,.78,0,1.18,0,0,10.8-19.68,19.68-19.68h8.88s-18.48-.72-25.68,19.2l13.68-13-11.76,15.36s18-18.72,24.48-17.52,6.24,1.92,6.24,1.92-9.6-5.76-27.84,16.32l18.24-11.52L127.2,164.36s25.92-6.72,28.32-12.48l2.4-5.76s3.12,12.72-27.6,19c0,0,.72,2.4-2.16,2.4a106.89,106.89,0,0,0-11,1.44c.17,2.81-17.64,1.68-24,.42s-9.84-2.1-9.84-2.1-6.6-1.2-8.76-2.88S73.68,161.72,73.68,161.72Z"/>
<path class="cls-91" d="M110.16,215.36l1.08-8,.6,3.84s1.56-2.64,2.4-2.52.84-3.36.84-3.36l1.44,2.4s-.6-2,1.56-1.68a26,26,0,0,1,5.64,2.16L127,208s-.24-1.2,1.32-1a11.61,11.61,0,0,1,3,1l3-1h2.52l2.88.6,1,1.44,2.16-.24,2.28,1.8,2,3.12,1.08,2.64h-6.48L139,214.76a47.7,47.7,0,0,1-5.28-.24c-1.08-.24-4.8,1.2-4.8,1.2l-5.16-.24-4.44-.48a6.88,6.88,0,0,0-4.56.36,30.7,30.7,0,0,1-4.08,1.68Z"/>
<path class="cls-91" d="M61.32,212.72l.36-1.56,1.32-.72s0-2.16,1.2-2.88a7.24,7.24,0,0,1,3.12-.72l4-1.92s4.92-1.56,7.2-.36a20.57,20.57,0,0,1,4,2.76l4.2-.6h3.84l2.88,1.8,2.4,2.76,1.32,2.64-3.36-.12v1.92L91.2,217l-5.64-3-7.08-1-6.6-.36v.72l-4.44.72-5-.24Z"/>
<path class="cls-91" d="M343.44,288.32s5.28-4,7-4.68a7.42,7.42,0,0,1,3.48-.48l1.32.84,1.8-.48,5.4,1.08,5.64,1.92,6,1.44,1.2,1,.12,3.48-5.52-2.4s-11.28-3.12-15.72-3.12a45.26,45.26,0,0,0-5,.12l-6,3h-.72v-1.2Z"/>
<path class="cls-91" d="M391.56,289.16,402,286.52l9.24-1.8a10.84,10.84,0,0,1,5.4-.12,9.66,9.66,0,0,1,4.44,2.64l3.48,2.76.36,1.08-3.84-1.44-2.88-1.56-5.4-.12-7.56,1.56-8.64,1.68-4.2.84Z"/>
<path class="cls-91" d="M628.6,194.86c-3,.16-6,1.88-8.87,2.81l2.95-.67a61.93,61.93,0,0,0,7.93-2A8.61,8.61,0,0,0,628.6,194.86Z"/>
<path class="cls-91" d="M555.48,199.52l3.36-1.1,4.93-.23a19.48,19.48,0,0,0,5.39.89,21.65,21.65,0,0,1,5,.56,24.6,24.6,0,0,0,4.68,1.44,30.24,30.24,0,0,1,5,1.44l3,.84,1.44-2.28-7.08-3-7.56-3.72-5.88-2-5-.24s-3.72-.36-4.08.72-2,4.32-2,4.32Z"/>
<path class="cls-91" d="M601.44,198.08s8.4-4.08,10.92-4.08,8.4-2.16,8.4-2.16l8.88-3.6s5.16-1.44,7.44.72,4.8,4.8,4.8,4.8-2.88,1.68-4.2,1.68-7.07-.42-7.07-.42l-8.17,1.5S615.72,198,612,199.16a74.89,74.89,0,0,1-7.32,1.92s-2.76.36-3-1.32"/>
<path class="cls-92" d="M103.32,273.68a11.92,11.92,0,0,0,4.8,0c1.8-.6,4-.24,2.76.72s-3.48,1.8-5,1.32A5.2,5.2,0,0,1,103.32,273.68Z"/>
<text class="cls-93" transform="translate(384.43 425.36)">
</text>
<text class="cls-93" transform="translate(384.43 425.36)">
</text>
<path class="cls-94" d="M94.75,554H12.88V531.54H94.75Zm-81.47-.38H94.35v-21.7H13.28Z"/>
<path class="cls-94" d="M93,556H11.33v-22.8H93Zm-81.17-.43H92.5V533.67H11.78Z"/>
<text class="cls-95" transform="translate(23.2 546.63) scale(1.06 1)">Shubhangi
</text>
<path class="cls-96" d="M97.79,539.49,93,536.71l-4.94,2.54,1.09-5.6-3.8-4,5.42-.68,2.59-5.08,2.3,5.2L101,530l-4,3.86ZM93,536l4,2.3-.64-4.68,3.4-3.26-4.55-.8-1.88-4.26-2.12,4.16-4.58.58,3.21,3.41-.9,4.65Z"/>
<path class="cls-96" d="M96.55,537.16l-3.48-2L89.49,537l.79-4.13-2.74-3,3.92-.51,1.87-3.74L95,529.47l3.89.7L96,533Zm-3.46-2.55L96,536.3l-.46-3.45,2.46-2.4-3.29-.6,0-.1-1.32-3-1.53,3.06-3.32.43,2.33,2.52-.66,3.43Z"/>
<path class="cls-97" d="M119.24,229.44s9.12,6.24,13,3.84-1.68,1.44,3.84-2.4,6.72-8.88,8.4-4.32,3.84,9.6-2.88,15.36-1,12.72-5,14.64-8.16-2.64-10.32-7.92a27.12,27.12,0,0,0-7.44-10.56c-2.64-2.4-6.72-8.16-3.6-8.64S119.24,229.44,119.24,229.44Z"/>
<path class="cls-98" d="M88,204.24s1.2,3.36-5,0-5.76-4.56-11-2.16-6.48-1.2-9.12,4.32-5.52,12-2.88,15.12,7,12,12.24,10.32,5-1,12-3.6,10.32-4.08,8.64,1.2-4.56,6.48-4.56,11.76,7.68,13.44-2.64,13.44-4.8-3.36-14.16-9.6-16.8-5.28-17.76-12.72a147.77,147.77,0,0,1-.72-18s3.12-15.36,4.8-16.8,6.72-14.88,6.72-14.88,6.24-9.12,11.52-8.16,16.32,4.08,21.6,3.36,10.08,1.92,18.24.72,17.52-13.2,21.84-4.8-20.64,13.92-24,21.84-5.88,20.88-4.56,30.24,2.4,18.48-1.68,17.76-7.2-1-5.76-6.48,4.8-1.68,1.2-13.44-9.6-17.28-9.6-17.28Z"/>
<path class="cls-5" d="M94.76,297.54s5.94-5.58,12.78-2.34l6.84,3.24S103.58,293.22,94.76,297.54Z"/>
<path class="cls-99" d="M90.2,274.44s-9.36-.6-1.56,3.36,12,3.48,12,7.08,1.8,4.92,4.44,4.2,5.16-1.44,5.64.24,3.24,2.16,3.24-1.2-4.8-4.44,0-7.8a67.21,67.21,0,0,1,8.88-5.28s.6-1.68-2-.48-6.48,2.52-6.48,2.52l-5.16.36S96.32,278.52,90.2,274.44Z"/>
</g>
</g>
</svg>